<svg id="icon-xray-film-duo" xmlns="http://www.w3.org/2000/svg" viewBox="0 0 512 512"><path fill="var(--mpb-color-accent)" d="M488,64h-8v20c0,6.6-5.4,12-12,12h-40c-6.6,0-12-5.4-12-12v-20H96v20c0,6.6-5.4,12-12,12h-40c-6.6,0-12-5.4-12-12v-20h-8c-13.3,0-24,10.7-24,24v336c0,13.3,10.7,24,24,24h8v-20c0-6.6,5.4-12,12-12h40c6.6,0,12,5.4,12,12v20h320v-20c0-6.6,5.4-12,12-12h40c6.6,0,12,5.4,12,12v20h8c13.3,0,24-10.7,24-24V88c0-13.3-10.7-24-24-24ZM96,372c0,6.6-5.4,12-12,12h-40c-6.6,0-12-5.4-12-12v-40c0-6.6,5.4-12,12-12h40c6.6,0,12,5.4,12,12v40ZM96,276c0,6.6-5.4,12-12,12h-40c-6.6,0-12-5.4-12-12v-40c0-6.6,5.4-12,12-12h40c6.6,0,12,5.4,12,12v40ZM96,180c0,6.6-5.4,12-12,12h-40c-6.6,0-12-5.4-12-12v-40c0-6.6,5.4-12,12-12h40c6.6,0,12,5.4,12,12v40ZM480,372c0,6.6-5.4,12-12,12h-40c-6.6,0-12-5.4-12-12v-40c0-6.6,5.4-12,12-12h40c6.6,0,12,5.4,12,12v40ZM480,276c0,6.6-5.4,12-12,12h-40c-6.6,0-12-5.4-12-12v-40c0-6.6,5.4-12,12-12h40c6.6,0,12,5.4,12,12v40ZM480,180c0,6.6-5.4,12-12,12h-40c-6.6,0-12-5.4-12-12v-40c0-6.6,5.4-12,12-12h40c6.6,0,12,5.4,12,12v40Z"/><path fill="var(--mpb-color-accentReverse)" d="M381.093,331.052c9.21,9.218,9.21,24.15,0,33.36l-16.68,16.68c-9.21,9.21-24.15,9.21-33.36,0l-75.052-75.053-75.052,75.053c-9.21,9.21-24.15,9.21-33.36,0l-16.68-16.68c-9.21-9.218-9.21-24.15,0-33.36l75.053-75.052-75.053-75.052c-9.21-9.218-9.21-24.15,0-33.36l16.68-16.68c9.217-9.21,24.15-9.21,33.36,0l75.052,75.053,75.052-75.053c9.218-9.21,24.15-9.21,33.36,0l16.68,16.68c9.21,9.217,9.21,24.15,0,33.36l-75.053,75.052,75.053,75.052h0Z"/></svg>
