<svg xmlns="http://www.w3.org/2000/svg" viewBox="0 0 24 24" id="mpb-lettermark"><path fill="var(--mpb-color-accent)" d="M12 0C5.373 0 0 5.373 0 12s5.373 12 12 12 12-5.373 12-12S18.627 0 12 0zm6.082 15.312c.341 0 .597-.239.82-.462.154-.154.239-.188.324-.188a.19.19 0 0 1 .188.188c0 .666-1.486 2.204-2.819 2.204-1.128 0-1.709-.82-1.709-1.948 0-1.094.563-3.126 1.042-4.802h-.12c-.65 1.487-2.033 4.494-2.614 6.254-.085.291-.205.495-.462.495h-1.554c-.206 0-.342-.085-.342-.376 0-.188.326-5.264.326-6.75h-.07c-.512 2.683-1.571 7.775-5.194 7.775-1.538 0-2.307-1.094-2.307-2.29 0-1.366 1.368-2.255 2.016-2.255.171 0 .239.086.239.206 0 .205-.12.341-.12.735 0 .427.206.854.821.854 2.307 0 3.417-5.435 3.417-7.297 0-.53-.324-.854-.751-.854-.786 0-1.999 1.162-1.999 2.545 0 .565.324.821.683.821.223 0 .427-.136.53-.136.12 0 .188.068.188.188 0 .683-1.009 1.913-2.274 1.913-1.094 0-1.862-.838-1.862-2.033 0-2.905 3.023-4.511 5.161-4.511 3.554 0 3.742 3.195 3.742 5.689 0 .838-.017 1.436-.017 1.453.103-.239 2.221-5.006 2.973-5.929.291-.377 1.674-.804 2.819-.804.188 0 .307.12.307.307s-.324.598-.529 1.128c-.565 1.453-1.471 5.792-1.471 6.938.002.599.241.942.618.942z"/></svg>
