<svg xmlns="http://www.w3.org/2000/svg" xml:space="preserve" viewBox="0 0 2000 2000" id="mpb-logo"><g fill="var(--mpb-color-accent)"><path d="M775.527 967.498c0-6.61-3.305-9.915-9.364-9.915-14.874 0-30.85 26.993-30.85 51.783 28.095-5.51 40.214-30.299 40.214-41.868z"/><path d="M1000 0C447.715 0 0 447.715 0 1000s447.715 1000 1000 1000 1000-447.715 1000-1000S1552.285 0 1000 0zm-22.86 1000.55c-17.078 0-26.443-14.322-26.443-23.687-3.305 1.101-9.915 6.059-17.628 20.382-10.467 18.179-25.891 71.615-25.891 93.099 0 9.364-3.856 11.568-12.119 11.568-16.527 0-45.723 2.754-53.985 2.754-7.161 0-11.569-2.754-11.569-12.119 0-4.944 1.368-13.081 3.43-22.971-18.641 17.317-45.936 36.742-92.663 36.742-40.245 0-73.824-13.985-86.794-45.04-17.047 21.621-48.92 45.04-78.451 45.04-36.357 0-55.088-26.441-55.088-62.8 0-35.256 18.179-100.811 33.604-154.796h-3.855c-20.934 47.926-65.554 144.881-84.285 201.621-2.754 9.364-6.61 15.974-14.873 15.974H400.4c-6.61 0-11.017-2.754-11.017-12.119 0-6.059 10.467-169.669 10.467-217.596h-2.204c-16.527 86.488-50.68 250.648-167.466 250.648-49.579 0-74.369-35.255-74.369-73.817 0-44.069 44.07-72.715 65.003-72.715 5.509 0 7.713 2.754 7.713 6.61 0 6.61-3.856 11.018-3.856 23.688 0 13.772 6.61 27.543 26.442 27.543 74.369 0 110.175-175.179 110.175-235.225 0-17.077-10.467-27.543-24.238-27.543-25.34 0-64.452 37.46-64.452 82.08 0 18.179 10.467 26.442 22.035 26.442 7.161 0 13.772-4.406 17.078-4.406 3.855 0 6.059 2.204 6.059 6.06 0 22.035-32.501 61.697-73.266 61.697-35.256 0-60.046-26.992-60.046-65.553 0-93.649 97.504-145.432 166.364-145.432 114.582 0 120.642 103.014 120.642 183.442 0 26.993-.551 46.274-.551 46.825 3.305-7.713 71.615-161.407 95.853-191.155 9.365-12.119 53.985-25.891 90.894-25.891 6.06 0 9.916 3.855 9.916 9.915s-10.467 19.281-17.078 36.357c-18.178 46.825-47.375 186.747-47.375 223.657 0 19.281 7.713 30.297 19.832 30.297 10.289 0 18.174-6.724 25.004-13.446a96.785 96.785 0 0 1-.232-6.385c0-53.435 45.723-101.362 118.989-101.362 37.46 0 57.292 18.179 57.292 42.969 0 33.604-33.604 63.901-85.938 63.901 0 15.976 19.281 28.646 45.724 28.646 21.483 0 36.909-11.568 50.68-23.687 2.343-2.083 4.309-3.655 6.088-4.754 5.95-25.512 12.082-52.648 12.082-67.962 0-9.365-3.856-10.467-3.856-17.628 0-12.119 37.46-20.383 69.411-20.383 12.119 0 18.729 4.959 18.729 14.323 0 6.06-1.101 13.222-1.101 13.222s20.933-25.341 49.029-25.341c15.423 0 28.095 9.365 28.095 25.892-.004 19.833-13.227 42.419-35.811 42.419zm605.388 0c-17.077 0-26.441-14.322-26.441-23.687-3.305 1.101-9.915 6.059-17.628 20.382-10.467 18.179-25.892 71.615-25.892 93.099 0 9.364-3.856 11.568-12.118 11.568-16.528 0-45.725 2.754-53.987 2.754-7.161 0-11.569-2.754-11.569-12.119 0-3.417.661-8.378 1.744-14.367-12.973 13-33.179 26.486-60.678 26.486-43.518 0-52.333-30.297-52.333-30.297s-25.341 30.297-77.674 30.297c-26.796 0-45.198-15.669-46.18-40.358-18.922 18.371-48.163 42.01-98.69 42.01-51.233 0-90.896-24.238-90.896-73.266 0-57.291 46.825-104.116 117.888-104.116 41.866 0 60.046 17.628 60.046 38.561 0 22.586-14.874 40.214-35.807 40.214-13.772 0-22.587-8.814-22.587-19.831 0-12.119 7.713-15.425 8.264-22.036 0-4.406-1.651-7.161-8.264-7.161-12.118 0-31.4 21.484-31.4 60.597 0 25.891 19.282 41.866 46.274 41.866 20.933 0 39.112-11.568 52.884-21.484 1.993-1.395 3.618-2.492 5.046-3.337 5.24-26.79 15.879-53.326 15.879-68.277 0-9.365-3.856-10.467-3.856-17.628 0-12.119 38.01-20.383 69.961-20.383 12.12 0 18.73 4.959 18.73 14.323 0 25.341-20.382 59.495-20.382 99.709 0 8.263 5.508 13.772 13.22 13.772 8.815 0 13.221-6.61 20.382-19.832 12.12-21.484 19.282-49.579 19.282-69.961 0-9.365-3.856-10.467-3.856-17.628 0-12.119 38.01-20.383 69.961-20.383 12.12 0 18.73 4.959 18.73 14.323 0 21.484-19.282 63.902-19.282 95.853 0 11.568 7.161 19.832 14.874 19.832 9.364 0 13.772-4.408 20.933-11.569 2.935-2.934 4.914-4.586 7.148-5.211 6.418-27.473 13.776-58.44 13.776-75.216 0-9.365-3.856-10.467-3.856-17.628 0-12.119 37.459-20.383 69.41-20.383 12.12 0 18.73 4.959 18.73 14.323 0 6.06-1.102 13.222-1.102 13.222s20.933-25.341 49.028-25.341c15.425 0 28.094 9.365 28.094 25.892.001 19.83-13.219 42.416-35.806 42.416zm105.213 262.769c-40.215 0-77.674-25.892-77.674-64.453 0-44.069 36.359-63.351 52.333-63.351 3.856 0 6.059 1.651 6.059 4.959 0 5.508-4.957 8.262-4.957 20.382 0 15.974 12.118 24.79 26.992 24.79 40.215 0 52.884-56.74 61.148-110.727-13.22 12.67-35.807 29.747-79.327 29.747-27.543 0-50.13-18.178-50.13-42.417 0-36.91 18.179-74.368 18.179-94.2 0-9.365-3.856-10.467-3.856-17.628 0-12.119 38.012-20.383 69.412-20.383 12.669 0 18.728 4.959 18.728 14.323 0 24.239-19.28 62.801-19.28 96.954 0 11.018 5.508 17.078 14.323 17.078 11.569 0 15.974-7.161 23.687-20.933 9.915-17.078 16.526-49.579 16.526-69.411 0-9.365-3.856-10.467-3.856-17.628 0-12.119 38.012-20.383 69.412-20.383 12.669 0 18.73 4.959 18.73 14.323 0 13.773-6.061 19.832-21.484 110.176-14.323 84.284-33.053 208.782-134.965 208.782z"/></g></svg>
