<svg xmlns="http://www.w3.org/2000/svg" viewBox="0 0 800 800"><defs><style>.st0{fill:#fff}</style></defs><g id="Layer_1" style="opacity:.5"><path d="M319.8 575.4h-6.3v-6.3c0-1.3-1.1-2.4-2.4-2.4s-2.4 1.1-2.4 2.4v6.3h-6.3c-1.3 0-2.4 1.1-2.4 2.4 0 1.3 1.1 2.4 2.4 2.4h6.3v6.3c0 1.3 1.1 2.4 2.4 2.4s2.4-1.1 2.4-2.4v-6.3h6.3c1.3 0 2.4-1.1 2.4-2.4 0-1.3-1.1-2.4-2.4-2.4ZM319.8 530.9h-6.3v-6.3c0-1.3-1.1-2.4-2.4-2.4s-2.4 1.1-2.4 2.4v6.3h-6.3c-1.3 0-2.4 1.1-2.4 2.4 0 1.3 1.1 2.4 2.4 2.4h6.3v6.3c0 1.3 1.1 2.4 2.4 2.4s2.4-1.1 2.4-2.4v-6.3h6.3c1.3 0 2.4-1.1 2.4-2.4 0-1.3-1.1-2.4-2.4-2.4ZM311.1 522.2zM311.1 677.8zM311.1 500zM322.2 444.4zM311.1 477.8zM319.8 486.5h-6.3v-6.3c0-1.3-1.1-2.4-2.4-2.4s-2.4 1.1-2.4 2.4v6.3h-6.3c-1.3 0-2.4 1.1-2.4 2.4s1.1 2.4 2.4 2.4h6.3v6.3c0 1.3 1.1 2.4 2.4 2.4s2.4-1.1 2.4-2.4v-6.3h6.3c1.3 0 2.4-1.1 2.4-2.4s-1.1-2.4-2.4-2.4ZM311.1 544.4zM319.8 664.3h-6.3V658c0-1.3-1.1-2.4-2.4-2.4s-2.4 1.1-2.4 2.4v6.3h-6.3c-1.3 0-2.4 1.1-2.4 2.4 0 1.3 1.1 2.4 2.4 2.4h6.3v6.3c0 1.3 1.1 2.4 2.4 2.4s2.4-1.1 2.4-2.4v-6.3h6.3c1.3 0 2.4-1.1 2.4-2.4 0-1.3-1.1-2.4-2.4-2.4ZM311.1 633.3zM311.1 655.6zM319.8 708.7h-6.3v-6.3c0-1.3-1.1-2.4-2.4-2.4s-2.4 1.1-2.4 2.4v6.3h-6.3c-1.3 0-2.4 1.1-2.4 2.4 0 1.3 1.1 2.4 2.4 2.4h6.3v6.3c0 1.3 1.1 2.4 2.4 2.4s2.4-1.1 2.4-2.4v-6.3h6.3c1.3 0 2.4-1.1 2.4-2.4 0-1.3-1.1-2.4-2.4-2.4ZM319.8 619.8h-6.3v-6.3c0-1.3-1.1-2.4-2.4-2.4s-2.4 1.1-2.4 2.4v6.3h-6.3c-1.3 0-2.4 1.1-2.4 2.4 0 1.3 1.1 2.4 2.4 2.4h6.3v6.3c0 1.3 1.1 2.4 2.4 2.4s2.4-1.1 2.4-2.4v-6.3h6.3c1.3 0 2.4-1.1 2.4-2.4 0-1.3-1.1-2.4-2.4-2.4ZM311.1 588.9zM311.1 455.6zM311.1 566.7zM311.1 611.1zM319.8 308.7h-6.3v-6.3c0-1.3-1.1-2.4-2.4-2.4s-2.4 1.1-2.4 2.4v6.3h-6.3c-1.3 0-2.4 1.1-2.4 2.4s1.1 2.4 2.4 2.4h6.3v6.3c0 1.3 1.1 2.4 2.4 2.4s2.4-1.1 2.4-2.4v-6.3h6.3c1.3 0 2.4-1.1 2.4-2.4s-1.1-2.4-2.4-2.4ZM311.1 344.4zM311.1 322.2zM319.8 353.2h-6.3v-6.3c0-1.3-1.1-2.4-2.4-2.4s-2.4 1.1-2.4 2.4v6.3h-6.3c-1.3 0-2.4 1.1-2.4 2.4s1.1 2.4 2.4 2.4h6.3v6.3c0 1.3 1.1 2.4 2.4 2.4s2.4-1.1 2.4-2.4V358h6.3c1.3 0 2.4-1.1 2.4-2.4s-1.1-2.4-2.4-2.4ZM311.1 300zM300 266.7zM311.1 255.6zM311.1 277.8zM322.2 266.7zM311.1 388.9zM319.8 264.3h-6.3V258c0-1.3-1.1-2.4-2.4-2.4s-2.4 1.1-2.4 2.4v6.3h-6.3c-1.3 0-2.4 1.1-2.4 2.4s1.1 2.4 2.4 2.4h6.3v6.3c0 1.3 1.1 2.4 2.4 2.4s2.4-1.1 2.4-2.4v-6.3h6.3c1.3 0 2.4-1.1 2.4-2.4s-1.1-2.4-2.4-2.4ZM311.1 411.1zM322.2 400zM311.1 433.3zM300 400zM311.1 366.7zM319.8 397.6h-6.3v-6.3c0-1.3-1.1-2.4-2.4-2.4s-2.4 1.1-2.4 2.4v6.3h-6.3c-1.3 0-2.4 1.1-2.4 2.4s1.1 2.4 2.4 2.4h6.3v6.3c0 1.3 1.1 2.4 2.4 2.4s2.4-1.1 2.4-2.4v-6.3h6.3c1.3 0 2.4-1.1 2.4-2.4s-1.1-2.4-2.4-2.4ZM300 444.4zM319.8 442h-6.3v-6.3c0-1.3-1.1-2.4-2.4-2.4s-2.4 1.1-2.4 2.4v6.3h-6.3c-1.3 0-2.4 1.1-2.4 2.4s1.1 2.4 2.4 2.4h6.3v6.3c0 1.3 1.1 2.4 2.4 2.4s2.4-1.1 2.4-2.4v-6.3h6.3c1.3 0 2.4-1.1 2.4-2.4s-1.1-2.4-2.4-2.4ZM277.8 444.4zM275.4 486.5h-6.3v-6.3c0-1.3-1.1-2.4-2.4-2.4s-2.4 1.1-2.4 2.4v6.3H258c-1.3 0-2.4 1.1-2.4 2.4s1.1 2.4 2.4 2.4h6.3v6.3c0 1.3 1.1 2.4 2.4 2.4s2.4-1.1 2.4-2.4v-6.3h6.3c1.3 0 2.4-1.1 2.4-2.4s-1.1-2.4-2.4-2.4ZM230.9 130.9h-6.3v-6.3c0-1.3-1.1-2.4-2.4-2.4s-2.4 1.1-2.4 2.4v6.3h-6.3c-1.3 0-2.4 1.1-2.4 2.4s1.1 2.4 2.4 2.4h6.3v6.3c0 1.3 1.1 2.4 2.4 2.4s2.4-1.1 2.4-2.4v-6.3h6.3c1.3 0 2.4-1.1 2.4-2.4s-1.1-2.4-2.4-2.4ZM275.4 530.9h-6.3v-6.3c0-1.3-1.1-2.4-2.4-2.4s-2.4 1.1-2.4 2.4v6.3H258c-1.3 0-2.4 1.1-2.4 2.4 0 1.3 1.1 2.4 2.4 2.4h6.3v6.3c0 1.3 1.1 2.4 2.4 2.4s2.4-1.1 2.4-2.4v-6.3h6.3c1.3 0 2.4-1.1 2.4-2.4 0-1.3-1.1-2.4-2.4-2.4ZM275.4 353.2h-6.3v-6.3c0-1.3-1.1-2.4-2.4-2.4s-2.4 1.1-2.4 2.4v6.3H258c-1.3 0-2.4 1.1-2.4 2.4s1.1 2.4 2.4 2.4h6.3v6.3c0 1.3 1.1 2.4 2.4 2.4s2.4-1.1 2.4-2.4V358h6.3c1.3 0 2.4-1.1 2.4-2.4s-1.1-2.4-2.4-2.4ZM275.4 442h-6.3v-6.3c0-1.3-1.1-2.4-2.4-2.4s-2.4 1.1-2.4 2.4v6.3H258c-1.3 0-2.4 1.1-2.4 2.4s1.1 2.4 2.4 2.4h6.3v6.3c0 1.3 1.1 2.4 2.4 2.4s2.4-1.1 2.4-2.4v-6.3h6.3c1.3 0 2.4-1.1 2.4-2.4s-1.1-2.4-2.4-2.4ZM275.4 397.6h-6.3v-6.3c0-1.3-1.1-2.4-2.4-2.4s-2.4 1.1-2.4 2.4v6.3H258c-1.3 0-2.4 1.1-2.4 2.4s1.1 2.4 2.4 2.4h6.3v6.3c0 1.3 1.1 2.4 2.4 2.4s2.4-1.1 2.4-2.4v-6.3h6.3c1.3 0 2.4-1.1 2.4-2.4s-1.1-2.4-2.4-2.4ZM255.6 400zM275.4 575.4h-6.3v-6.3c0-1.3-1.1-2.4-2.4-2.4s-2.4 1.1-2.4 2.4v6.3H258c-1.3 0-2.4 1.1-2.4 2.4 0 1.3 1.1 2.4 2.4 2.4h6.3v6.3c0 1.3 1.1 2.4 2.4 2.4s2.4-1.1 2.4-2.4v-6.3h6.3c1.3 0 2.4-1.1 2.4-2.4 0-1.3-1.1-2.4-2.4-2.4ZM277.8 400zM275.4 619.8h-6.3v-6.3c0-1.3-1.1-2.4-2.4-2.4s-2.4 1.1-2.4 2.4v6.3H258c-1.3 0-2.4 1.1-2.4 2.4 0 1.3 1.1 2.4 2.4 2.4h6.3v6.3c0 1.3 1.1 2.4 2.4 2.4s2.4-1.1 2.4-2.4v-6.3h6.3c1.3 0 2.4-1.1 2.4-2.4 0-1.3-1.1-2.4-2.4-2.4ZM230.9 42h-6.3v-6.3c0-1.3-1.1-2.4-2.4-2.4s-2.4 1.1-2.4 2.4V42h-6.3c-1.3 0-2.4 1.1-2.4 2.4s1.1 2.4 2.4 2.4h6.3v6.3c0 1.3 1.1 2.4 2.4 2.4s2.4-1.1 2.4-2.4v-6.3h6.3c1.3 0 2.4-1.1 2.4-2.4s-1.1-2.4-2.4-2.4ZM275.4 797.6h-6.3v-6.3c0-1.3-1.1-2.4-2.4-2.4s-2.4 1.1-2.4 2.4v6.3H258c-1.3 0-2.4 1.1-2.4 2.4 0 1.3 1.1 2.4 2.4 2.4h6.3v6.3c0 1.3 1.1 2.4 2.4 2.4s2.4-1.1 2.4-2.4v-6.3h6.3c1.3 0 2.4-1.1 2.4-2.4 0-1.3-1.1-2.4-2.4-2.4ZM230.9 86.5h-6.3v-6.3c0-1.3-1.1-2.4-2.4-2.4s-2.4 1.1-2.4 2.4v6.3h-6.3c-1.3 0-2.4 1.1-2.4 2.4s1.1 2.4 2.4 2.4h6.3v6.3c0 1.3 1.1 2.4 2.4 2.4s2.4-1.1 2.4-2.4v-6.3h6.3c1.3 0 2.4-1.1 2.4-2.4s-1.1-2.4-2.4-2.4ZM230.9-2.4h-6.3v-6.3c0-1.3-1.1-2.4-2.4-2.4s-2.4 1.1-2.4 2.4v6.3h-6.3c-1.3 0-2.4 1.1-2.4 2.4s1.1 2.4 2.4 2.4h6.3v6.3c0 1.3 1.1 2.4 2.4 2.4s2.4-1.1 2.4-2.4V2.4h6.3c1.3 0 2.4-1.1 2.4-2.4s-1.1-2.4-2.4-2.4ZM275.4 664.3h-6.3V658c0-1.3-1.1-2.4-2.4-2.4s-2.4 1.1-2.4 2.4v6.3H258c-1.3 0-2.4 1.1-2.4 2.4 0 1.3 1.1 2.4 2.4 2.4h6.3v6.3c0 1.3 1.1 2.4 2.4 2.4s2.4-1.1 2.4-2.4v-6.3h6.3c1.3 0 2.4-1.1 2.4-2.4 0-1.3-1.1-2.4-2.4-2.4ZM275.4 708.7h-6.3v-6.3c0-1.3-1.1-2.4-2.4-2.4s-2.4 1.1-2.4 2.4v6.3H258c-1.3 0-2.4 1.1-2.4 2.4 0 1.3 1.1 2.4 2.4 2.4h6.3v6.3c0 1.3 1.1 2.4 2.4 2.4s2.4-1.1 2.4-2.4v-6.3h6.3c1.3 0 2.4-1.1 2.4-2.4 0-1.3-1.1-2.4-2.4-2.4ZM275.4 753.2h-6.3v-6.3c0-1.3-1.1-2.4-2.4-2.4s-2.4 1.1-2.4 2.4v6.3H258c-1.3 0-2.4 1.1-2.4 2.4 0 1.3 1.1 2.4 2.4 2.4h6.3v6.3c0 1.3 1.1 2.4 2.4 2.4s2.4-1.1 2.4-2.4V758h6.3c1.3 0 2.4-1.1 2.4-2.4 0-1.3-1.1-2.4-2.4-2.4ZM311.1 722.2zM311.1 766.7zM319.8 797.6h-6.3v-6.3c0-1.3-1.1-2.4-2.4-2.4s-2.4 1.1-2.4 2.4v6.3h-6.3c-1.3 0-2.4 1.1-2.4 2.4 0 1.3 1.1 2.4 2.4 2.4h6.3v6.3c0 1.3 1.1 2.4 2.4 2.4s2.4-1.1 2.4-2.4v-6.3h6.3c1.3 0 2.4-1.1 2.4-2.4 0-1.3-1.1-2.4-2.4-2.4ZM311.1 788.9zM311.1 811.1zM319.8 753.2h-6.3v-6.3c0-1.3-1.1-2.4-2.4-2.4s-2.4 1.1-2.4 2.4v6.3h-6.3c-1.3 0-2.4 1.1-2.4 2.4 0 1.3 1.1 2.4 2.4 2.4h6.3v6.3c0 1.3 1.1 2.4 2.4 2.4s2.4-1.1 2.4-2.4V758h6.3c1.3 0 2.4-1.1 2.4-2.4 0-1.3-1.1-2.4-2.4-2.4ZM311.1 700zM311.1 744.4zM275.4-2.4h-6.3v-6.3c0-1.3-1.1-2.4-2.4-2.4s-2.4 1.1-2.4 2.4v6.3H258c-1.3 0-2.4 1.1-2.4 2.4s1.1 2.4 2.4 2.4h6.3v6.3c0 1.3 1.1 2.4 2.4 2.4s2.4-1.1 2.4-2.4V2.4h6.3c1.3 0 2.4-1.1 2.4-2.4s-1.1-2.4-2.4-2.4ZM275.4 264.3h-6.3V258c0-1.3-1.1-2.4-2.4-2.4s-2.4 1.1-2.4 2.4v6.3H258c-1.3 0-2.4 1.1-2.4 2.4s1.1 2.4 2.4 2.4h6.3v6.3c0 1.3 1.1 2.4 2.4 2.4s2.4-1.1 2.4-2.4v-6.3h6.3c1.3 0 2.4-1.1 2.4-2.4s-1.1-2.4-2.4-2.4ZM275.4 42h-6.3v-6.3c0-1.3-1.1-2.4-2.4-2.4s-2.4 1.1-2.4 2.4V42H258c-1.3 0-2.4 1.1-2.4 2.4s1.1 2.4 2.4 2.4h6.3v6.3c0 1.3 1.1 2.4 2.4 2.4s2.4-1.1 2.4-2.4v-6.3h6.3c1.3 0 2.4-1.1 2.4-2.4s-1.1-2.4-2.4-2.4ZM275.4 308.7h-6.3v-6.3c0-1.3-1.1-2.4-2.4-2.4s-2.4 1.1-2.4 2.4v6.3H258c-1.3 0-2.4 1.1-2.4 2.4s1.1 2.4 2.4 2.4h6.3v6.3c0 1.3 1.1 2.4 2.4 2.4s2.4-1.1 2.4-2.4v-6.3h6.3c1.3 0 2.4-1.1 2.4-2.4s-1.1-2.4-2.4-2.4ZM275.4 219.8h-6.3v-6.3c0-1.3-1.1-2.4-2.4-2.4s-2.4 1.1-2.4 2.4v6.3H258c-1.3 0-2.4 1.1-2.4 2.4s1.1 2.4 2.4 2.4h6.3v6.3c0 1.3 1.1 2.4 2.4 2.4s2.4-1.1 2.4-2.4v-6.3h6.3c1.3 0 2.4-1.1 2.4-2.4s-1.1-2.4-2.4-2.4ZM277.8 266.7zM255.6 266.7zM275.4 86.5h-6.3v-6.3c0-1.3-1.1-2.4-2.4-2.4s-2.4 1.1-2.4 2.4v6.3H258c-1.3 0-2.4 1.1-2.4 2.4s1.1 2.4 2.4 2.4h6.3v6.3c0 1.3 1.1 2.4 2.4 2.4s2.4-1.1 2.4-2.4v-6.3h6.3c1.3 0 2.4-1.1 2.4-2.4s-1.1-2.4-2.4-2.4ZM275.4 175.4h-6.3v-6.3c0-1.3-1.1-2.4-2.4-2.4s-2.4 1.1-2.4 2.4v6.3H258c-1.3 0-2.4 1.1-2.4 2.4s1.1 2.4 2.4 2.4h6.3v6.3c0 1.3 1.1 2.4 2.4 2.4s2.4-1.1 2.4-2.4v-6.3h6.3c1.3 0 2.4-1.1 2.4-2.4s-1.1-2.4-2.4-2.4ZM275.4 130.9h-6.3v-6.3c0-1.3-1.1-2.4-2.4-2.4s-2.4 1.1-2.4 2.4v6.3H258c-1.3 0-2.4 1.1-2.4 2.4s1.1 2.4 2.4 2.4h6.3v6.3c0 1.3 1.1 2.4 2.4 2.4s2.4-1.1 2.4-2.4v-6.3h6.3c1.3 0 2.4-1.1 2.4-2.4s-1.1-2.4-2.4-2.4ZM255.6 444.4zM344.4 400zM355.6 411.1zM366.7 400zM355.6 388.9zM355.6 366.7zM355.6 344.4zM364.3 353.2H358v-6.3c0-1.3-1.1-2.4-2.4-2.4s-2.4 1.1-2.4 2.4v6.3h-6.3c-1.3 0-2.4 1.1-2.4 2.4s1.1 2.4 2.4 2.4h6.3v6.3c0 1.3 1.1 2.4 2.4 2.4s2.4-1.1 2.4-2.4V358h6.3c1.3 0 2.4-1.1 2.4-2.4s-1.1-2.4-2.4-2.4ZM364.3 397.6H358v-6.3c0-1.3-1.1-2.4-2.4-2.4s-2.4 1.1-2.4 2.4v6.3h-6.3c-1.3 0-2.4 1.1-2.4 2.4s1.1 2.4 2.4 2.4h6.3v6.3c0 1.3 1.1 2.4 2.4 2.4s2.4-1.1 2.4-2.4v-6.3h6.3c1.3 0 2.4-1.1 2.4-2.4s-1.1-2.4-2.4-2.4ZM364.3 442H358v-6.3c0-1.3-1.1-2.4-2.4-2.4s-2.4 1.1-2.4 2.4v6.3h-6.3c-1.3 0-2.4 1.1-2.4 2.4s1.1 2.4 2.4 2.4h6.3v6.3c0 1.3 1.1 2.4 2.4 2.4s2.4-1.1 2.4-2.4v-6.3h6.3c1.3 0 2.4-1.1 2.4-2.4s-1.1-2.4-2.4-2.4ZM364.3 486.5H358v-6.3c0-1.3-1.1-2.4-2.4-2.4s-2.4 1.1-2.4 2.4v6.3h-6.3c-1.3 0-2.4 1.1-2.4 2.4s1.1 2.4 2.4 2.4h6.3v6.3c0 1.3 1.1 2.4 2.4 2.4s2.4-1.1 2.4-2.4v-6.3h6.3c1.3 0 2.4-1.1 2.4-2.4s-1.1-2.4-2.4-2.4ZM355.6 477.8zM355.6 322.2zM355.6 500zM355.6 433.3zM364.3 530.9H358v-6.3c0-1.3-1.1-2.4-2.4-2.4s-2.4 1.1-2.4 2.4v6.3h-6.3c-1.3 0-2.4 1.1-2.4 2.4 0 1.3 1.1 2.4 2.4 2.4h6.3v6.3c0 1.3 1.1 2.4 2.4 2.4s2.4-1.1 2.4-2.4v-6.3h6.3c1.3 0 2.4-1.1 2.4-2.4 0-1.3-1.1-2.4-2.4-2.4ZM344.4 444.4zM355.6 455.6zM366.7 444.4zM355.6 188.9zM364.3 219.8H358v-6.3c0-1.3-1.1-2.4-2.4-2.4s-2.4 1.1-2.4 2.4v6.3h-6.3c-1.3 0-2.4 1.1-2.4 2.4s1.1 2.4 2.4 2.4h6.3v6.3c0 1.3 1.1 2.4 2.4 2.4s2.4-1.1 2.4-2.4v-6.3h6.3c1.3 0 2.4-1.1 2.4-2.4s-1.1-2.4-2.4-2.4ZM355.6 166.7zM364.3 175.4H358v-6.3c0-1.3-1.1-2.4-2.4-2.4s-2.4 1.1-2.4 2.4v6.3h-6.3c-1.3 0-2.4 1.1-2.4 2.4s1.1 2.4 2.4 2.4h6.3v6.3c0 1.3 1.1 2.4 2.4 2.4s2.4-1.1 2.4-2.4v-6.3h6.3c1.3 0 2.4-1.1 2.4-2.4s-1.1-2.4-2.4-2.4ZM355.6 522.2zM355.6 144.4zM355.6 100zM355.6 122.2zM364.3 130.9H358v-6.3c0-1.3-1.1-2.4-2.4-2.4s-2.4 1.1-2.4 2.4v6.3h-6.3c-1.3 0-2.4 1.1-2.4 2.4s1.1 2.4 2.4 2.4h6.3v6.3c0 1.3 1.1 2.4 2.4 2.4s2.4-1.1 2.4-2.4v-6.3h6.3c1.3 0 2.4-1.1 2.4-2.4s-1.1-2.4-2.4-2.4ZM355.6 255.6zM355.6 211.1zM311.1 233.3zM355.6 277.8zM364.3 308.7H358v-6.3c0-1.3-1.1-2.4-2.4-2.4s-2.4 1.1-2.4 2.4v6.3h-6.3c-1.3 0-2.4 1.1-2.4 2.4s1.1 2.4 2.4 2.4h6.3v6.3c0 1.3 1.1 2.4 2.4 2.4s2.4-1.1 2.4-2.4v-6.3h6.3c1.3 0 2.4-1.1 2.4-2.4s-1.1-2.4-2.4-2.4ZM366.7 266.7zM355.6 233.3zM355.6 300zM364.3 264.3H358V258c0-1.3-1.1-2.4-2.4-2.4s-2.4 1.1-2.4 2.4v6.3h-6.3c-1.3 0-2.4 1.1-2.4 2.4s1.1 2.4 2.4 2.4h6.3v6.3c0 1.3 1.1 2.4 2.4 2.4s2.4-1.1 2.4-2.4v-6.3h6.3c1.3 0 2.4-1.1 2.4-2.4s-1.1-2.4-2.4-2.4ZM344.4 266.7zM311.1 100zM311.1 33.3zM311.1 55.6zM311.1 77.8zM319.8 86.5h-6.3v-6.3c0-1.3-1.1-2.4-2.4-2.4s-2.4 1.1-2.4 2.4v6.3h-6.3c-1.3 0-2.4 1.1-2.4 2.4s1.1 2.4 2.4 2.4h6.3v6.3c0 1.3 1.1 2.4 2.4 2.4s2.4-1.1 2.4-2.4v-6.3h6.3c1.3 0 2.4-1.1 2.4-2.4s-1.1-2.4-2.4-2.4ZM355.6 811.1zM319.8-2.4h-6.3v-6.3c0-1.3-1.1-2.4-2.4-2.4s-2.4 1.1-2.4 2.4v6.3h-6.3c-1.3 0-2.4 1.1-2.4 2.4s1.1 2.4 2.4 2.4h6.3v6.3c0 1.3 1.1 2.4 2.4 2.4s2.4-1.1 2.4-2.4V2.4h6.3c1.3 0 2.4-1.1 2.4-2.4s-1.1-2.4-2.4-2.4ZM311.1-11.1zM311.1 11.1zM319.8 42h-6.3v-6.3c0-1.3-1.1-2.4-2.4-2.4s-2.4 1.1-2.4 2.4V42h-6.3c-1.3 0-2.4 1.1-2.4 2.4s1.1 2.4 2.4 2.4h6.3v6.3c0 1.3 1.1 2.4 2.4 2.4s2.4-1.1 2.4-2.4v-6.3h6.3c1.3 0 2.4-1.1 2.4-2.4s-1.1-2.4-2.4-2.4ZM319.8 219.8h-6.3v-6.3c0-1.3-1.1-2.4-2.4-2.4s-2.4 1.1-2.4 2.4v6.3h-6.3c-1.3 0-2.4 1.1-2.4 2.4s1.1 2.4 2.4 2.4h6.3v6.3c0 1.3 1.1 2.4 2.4 2.4s2.4-1.1 2.4-2.4v-6.3h6.3c1.3 0 2.4-1.1 2.4-2.4s-1.1-2.4-2.4-2.4ZM311.1 188.9zM311.1 166.7zM311.1 211.1zM319.8 175.4h-6.3v-6.3c0-1.3-1.1-2.4-2.4-2.4s-2.4 1.1-2.4 2.4v6.3h-6.3c-1.3 0-2.4 1.1-2.4 2.4s1.1 2.4 2.4 2.4h6.3v6.3c0 1.3 1.1 2.4 2.4 2.4s2.4-1.1 2.4-2.4v-6.3h6.3c1.3 0 2.4-1.1 2.4-2.4s-1.1-2.4-2.4-2.4ZM355.6 544.4zM311.1 144.4zM319.8 130.9h-6.3v-6.3c0-1.3-1.1-2.4-2.4-2.4s-2.4 1.1-2.4 2.4v6.3h-6.3c-1.3 0-2.4 1.1-2.4 2.4s1.1 2.4 2.4 2.4h6.3v6.3c0 1.3 1.1 2.4 2.4 2.4s2.4-1.1 2.4-2.4v-6.3h6.3c1.3 0 2.4-1.1 2.4-2.4s-1.1-2.4-2.4-2.4ZM311.1 122.2zM355.6 633.3zM355.6 611.1zM355.6 788.9zM364.3 619.8H358v-6.3c0-1.3-1.1-2.4-2.4-2.4s-2.4 1.1-2.4 2.4v6.3h-6.3c-1.3 0-2.4 1.1-2.4 2.4 0 1.3 1.1 2.4 2.4 2.4h6.3v6.3c0 1.3 1.1 2.4 2.4 2.4s2.4-1.1 2.4-2.4v-6.3h6.3c1.3 0 2.4-1.1 2.4-2.4 0-1.3-1.1-2.4-2.4-2.4ZM364.3 664.3H358V658c0-1.3-1.1-2.4-2.4-2.4s-2.4 1.1-2.4 2.4v6.3h-6.3c-1.3 0-2.4 1.1-2.4 2.4 0 1.3 1.1 2.4 2.4 2.4h6.3v6.3c0 1.3 1.1 2.4 2.4 2.4s2.4-1.1 2.4-2.4v-6.3h6.3c1.3 0 2.4-1.1 2.4-2.4 0-1.3-1.1-2.4-2.4-2.4ZM364.3 575.4H358v-6.3c0-1.3-1.1-2.4-2.4-2.4s-2.4 1.1-2.4 2.4v6.3h-6.3c-1.3 0-2.4 1.1-2.4 2.4 0 1.3 1.1 2.4 2.4 2.4h6.3v6.3c0 1.3 1.1 2.4 2.4 2.4s2.4-1.1 2.4-2.4v-6.3h6.3c1.3 0 2.4-1.1 2.4-2.4 0-1.3-1.1-2.4-2.4-2.4ZM355.6 566.7zM355.6 588.9zM355.6 655.6zM355.6 677.8zM355.6 744.4zM364.3 753.2H358v-6.3c0-1.3-1.1-2.4-2.4-2.4s-2.4 1.1-2.4 2.4v6.3h-6.3c-1.3 0-2.4 1.1-2.4 2.4 0 1.3 1.1 2.4 2.4 2.4h6.3v6.3c0 1.3 1.1 2.4 2.4 2.4s2.4-1.1 2.4-2.4V758h6.3c1.3 0 2.4-1.1 2.4-2.4 0-1.3-1.1-2.4-2.4-2.4ZM364.3 797.6H358v-6.3c0-1.3-1.1-2.4-2.4-2.4s-2.4 1.1-2.4 2.4v6.3h-6.3c-1.3 0-2.4 1.1-2.4 2.4 0 1.3 1.1 2.4 2.4 2.4h6.3v6.3c0 1.3 1.1 2.4 2.4 2.4s2.4-1.1 2.4-2.4v-6.3h6.3c1.3 0 2.4-1.1 2.4-2.4 0-1.3-1.1-2.4-2.4-2.4ZM355.6 766.7zM364.3 708.7H358v-6.3c0-1.3-1.1-2.4-2.4-2.4s-2.4 1.1-2.4 2.4v6.3h-6.3c-1.3 0-2.4 1.1-2.4 2.4 0 1.3 1.1 2.4 2.4 2.4h6.3v6.3c0 1.3 1.1 2.4 2.4 2.4s2.4-1.1 2.4-2.4v-6.3h6.3c1.3 0 2.4-1.1 2.4-2.4 0-1.3-1.1-2.4-2.4-2.4ZM355.6 722.2zM355.6 700zM230.9 664.3h-6.3V658c0-1.3-1.1-2.4-2.4-2.4s-2.4 1.1-2.4 2.4v6.3h-6.3c-1.3 0-2.4 1.1-2.4 2.4 0 1.3 1.1 2.4 2.4 2.4h6.3v6.3c0 1.3 1.1 2.4 2.4 2.4s2.4-1.1 2.4-2.4v-6.3h6.3c1.3 0 2.4-1.1 2.4-2.4 0-1.3-1.1-2.4-2.4-2.4ZM53.2 86.5h-6.3v-6.3c0-1.3-1.1-2.4-2.4-2.4s-2.4 1.1-2.4 2.4v6.3h-6.3c-1.3 0-2.4 1.1-2.4 2.4s1.1 2.4 2.4 2.4h6.3v6.3c0 1.3 1.1 2.4 2.4 2.4s2.4-1.1 2.4-2.4v-6.3h6.3c1.3 0 2.4-1.1 2.4-2.4s-1.1-2.4-2.4-2.4ZM53.2 42h-6.3v-6.3c0-1.3-1.1-2.4-2.4-2.4s-2.4 1.1-2.4 2.4V42h-6.3c-1.3 0-2.4 1.1-2.4 2.4s1.1 2.4 2.4 2.4h6.3v6.3c0 1.3 1.1 2.4 2.4 2.4s2.4-1.1 2.4-2.4v-6.3h6.3c1.3 0 2.4-1.1 2.4-2.4S54.5 42 53.2 42ZM53.2 130.9h-6.3v-6.3c0-1.3-1.1-2.4-2.4-2.4s-2.4 1.1-2.4 2.4v6.3h-6.3c-1.3 0-2.4 1.1-2.4 2.4s1.1 2.4 2.4 2.4h6.3v6.3c0 1.3 1.1 2.4 2.4 2.4s2.4-1.1 2.4-2.4v-6.3h6.3c1.3 0 2.4-1.1 2.4-2.4s-1.1-2.4-2.4-2.4ZM53.2 175.4h-6.3v-6.3c0-1.3-1.1-2.4-2.4-2.4s-2.4 1.1-2.4 2.4v6.3h-6.3c-1.3 0-2.4 1.1-2.4 2.4s1.1 2.4 2.4 2.4h6.3v6.3c0 1.3 1.1 2.4 2.4 2.4s2.4-1.1 2.4-2.4v-6.3h6.3c1.3 0 2.4-1.1 2.4-2.4s-1.1-2.4-2.4-2.4ZM53.2 219.8h-6.3v-6.3c0-1.3-1.1-2.4-2.4-2.4s-2.4 1.1-2.4 2.4v6.3h-6.3c-1.3 0-2.4 1.1-2.4 2.4s1.1 2.4 2.4 2.4h6.3v6.3c0 1.3 1.1 2.4 2.4 2.4s2.4-1.1 2.4-2.4v-6.3h6.3c1.3 0 2.4-1.1 2.4-2.4s-1.1-2.4-2.4-2.4ZM53.2 442h-6.3v-6.3c0-1.3-1.1-2.4-2.4-2.4s-2.4 1.1-2.4 2.4v6.3h-6.3c-1.3 0-2.4 1.1-2.4 2.4s1.1 2.4 2.4 2.4h6.3v6.3c0 1.3 1.1 2.4 2.4 2.4s2.4-1.1 2.4-2.4v-6.3h6.3c1.3 0 2.4-1.1 2.4-2.4s-1.1-2.4-2.4-2.4ZM53.2-2.4h-6.3v-6.3c0-1.3-1.1-2.4-2.4-2.4s-2.4 1.1-2.4 2.4v6.3h-6.3c-1.3 0-2.4 1.1-2.4 2.4s1.1 2.4 2.4 2.4h6.3v6.3c0 1.3 1.1 2.4 2.4 2.4s2.4-1.1 2.4-2.4V2.4h6.3c1.3 0 2.4-1.1 2.4-2.4s-1.1-2.4-2.4-2.4ZM97.6 708.7h-6.3v-6.3c0-1.3-1.1-2.4-2.4-2.4s-2.4 1.1-2.4 2.4v6.3h-6.3c-1.3 0-2.4 1.1-2.4 2.4 0 1.3 1.1 2.4 2.4 2.4h6.3v6.3c0 1.3 1.1 2.4 2.4 2.4s2.4-1.1 2.4-2.4v-6.3h6.3c1.3 0 2.4-1.1 2.4-2.4 0-1.3-1.1-2.4-2.4-2.4ZM97.6 797.6h-6.3v-6.3c0-1.3-1.1-2.4-2.4-2.4s-2.4 1.1-2.4 2.4v6.3h-6.3c-1.3 0-2.4 1.1-2.4 2.4 0 1.3 1.1 2.4 2.4 2.4h6.3v6.3c0 1.3 1.1 2.4 2.4 2.4s2.4-1.1 2.4-2.4v-6.3h6.3c1.3 0 2.4-1.1 2.4-2.4 0-1.3-1.1-2.4-2.4-2.4ZM230.9 175.4h-6.3v-6.3c0-1.3-1.1-2.4-2.4-2.4s-2.4 1.1-2.4 2.4v6.3h-6.3c-1.3 0-2.4 1.1-2.4 2.4s1.1 2.4 2.4 2.4h6.3v6.3c0 1.3 1.1 2.4 2.4 2.4s2.4-1.1 2.4-2.4v-6.3h6.3c1.3 0 2.4-1.1 2.4-2.4s-1.1-2.4-2.4-2.4ZM53.2 264.3h-6.3V258c0-1.3-1.1-2.4-2.4-2.4s-2.4 1.1-2.4 2.4v6.3h-6.3c-1.3 0-2.4 1.1-2.4 2.4s1.1 2.4 2.4 2.4h6.3v6.3c0 1.3 1.1 2.4 2.4 2.4s2.4-1.1 2.4-2.4v-6.3h6.3c1.3 0 2.4-1.1 2.4-2.4s-1.1-2.4-2.4-2.4ZM33.3 400zM53.2 353.2h-6.3v-6.3c0-1.3-1.1-2.4-2.4-2.4s-2.4 1.1-2.4 2.4v6.3h-6.3c-1.3 0-2.4 1.1-2.4 2.4s1.1 2.4 2.4 2.4h6.3v6.3c0 1.3 1.1 2.4 2.4 2.4s2.4-1.1 2.4-2.4V358h6.3c1.3 0 2.4-1.1 2.4-2.4s-1.1-2.4-2.4-2.4ZM97.6 664.3h-6.3V658c0-1.3-1.1-2.4-2.4-2.4s-2.4 1.1-2.4 2.4v6.3h-6.3c-1.3 0-2.4 1.1-2.4 2.4 0 1.3 1.1 2.4 2.4 2.4h6.3v6.3c0 1.3 1.1 2.4 2.4 2.4s2.4-1.1 2.4-2.4v-6.3h6.3c1.3 0 2.4-1.1 2.4-2.4 0-1.3-1.1-2.4-2.4-2.4ZM53.2 397.6h-6.3v-6.3c0-1.3-1.1-2.4-2.4-2.4s-2.4 1.1-2.4 2.4v6.3h-6.3c-1.3 0-2.4 1.1-2.4 2.4s1.1 2.4 2.4 2.4h6.3v6.3c0 1.3 1.1 2.4 2.4 2.4s2.4-1.1 2.4-2.4v-6.3h6.3c1.3 0 2.4-1.1 2.4-2.4s-1.1-2.4-2.4-2.4ZM33.3 266.7zM53.2 308.7h-6.3v-6.3c0-1.3-1.1-2.4-2.4-2.4s-2.4 1.1-2.4 2.4v6.3h-6.3c-1.3 0-2.4 1.1-2.4 2.4s1.1 2.4 2.4 2.4h6.3v6.3c0 1.3 1.1 2.4 2.4 2.4s2.4-1.1 2.4-2.4v-6.3h6.3c1.3 0 2.4-1.1 2.4-2.4s-1.1-2.4-2.4-2.4ZM55.6 266.7zM97.6 753.2h-6.3v-6.3c0-1.3-1.1-2.4-2.4-2.4s-2.4 1.1-2.4 2.4v6.3h-6.3c-1.3 0-2.4 1.1-2.4 2.4 0 1.3 1.1 2.4 2.4 2.4h6.3v6.3c0 1.3 1.1 2.4 2.4 2.4s2.4-1.1 2.4-2.4V758h6.3c1.3 0 2.4-1.1 2.4-2.4 0-1.3-1.1-2.4-2.4-2.4ZM100 266.7zM77.8 266.7zM97.6 308.7h-6.3v-6.3c0-1.3-1.1-2.4-2.4-2.4s-2.4 1.1-2.4 2.4v6.3h-6.3c-1.3 0-2.4 1.1-2.4 2.4s1.1 2.4 2.4 2.4h6.3v6.3c0 1.3 1.1 2.4 2.4 2.4s2.4-1.1 2.4-2.4v-6.3h6.3c1.3 0 2.4-1.1 2.4-2.4s-1.1-2.4-2.4-2.4ZM97.6 130.9h-6.3v-6.3c0-1.3-1.1-2.4-2.4-2.4s-2.4 1.1-2.4 2.4v6.3h-6.3c-1.3 0-2.4 1.1-2.4 2.4s1.1 2.4 2.4 2.4h6.3v6.3c0 1.3 1.1 2.4 2.4 2.4s2.4-1.1 2.4-2.4v-6.3h6.3c1.3 0 2.4-1.1 2.4-2.4s-1.1-2.4-2.4-2.4ZM97.6 264.3h-6.3V258c0-1.3-1.1-2.4-2.4-2.4s-2.4 1.1-2.4 2.4v6.3h-6.3c-1.3 0-2.4 1.1-2.4 2.4s1.1 2.4 2.4 2.4h6.3v6.3c0 1.3 1.1 2.4 2.4 2.4s2.4-1.1 2.4-2.4v-6.3h6.3c1.3 0 2.4-1.1 2.4-2.4s-1.1-2.4-2.4-2.4ZM97.6 175.4h-6.3v-6.3c0-1.3-1.1-2.4-2.4-2.4s-2.4 1.1-2.4 2.4v6.3h-6.3c-1.3 0-2.4 1.1-2.4 2.4s1.1 2.4 2.4 2.4h6.3v6.3c0 1.3 1.1 2.4 2.4 2.4s2.4-1.1 2.4-2.4v-6.3h6.3c1.3 0 2.4-1.1 2.4-2.4s-1.1-2.4-2.4-2.4ZM97.6 397.6h-6.3v-6.3c0-1.3-1.1-2.4-2.4-2.4s-2.4 1.1-2.4 2.4v6.3h-6.3c-1.3 0-2.4 1.1-2.4 2.4s1.1 2.4 2.4 2.4h6.3v6.3c0 1.3 1.1 2.4 2.4 2.4s2.4-1.1 2.4-2.4v-6.3h6.3c1.3 0 2.4-1.1 2.4-2.4s-1.1-2.4-2.4-2.4ZM97.6 219.8h-6.3v-6.3c0-1.3-1.1-2.4-2.4-2.4s-2.4 1.1-2.4 2.4v6.3h-6.3c-1.3 0-2.4 1.1-2.4 2.4s1.1 2.4 2.4 2.4h6.3v6.3c0 1.3 1.1 2.4 2.4 2.4s2.4-1.1 2.4-2.4v-6.3h6.3c1.3 0 2.4-1.1 2.4-2.4s-1.1-2.4-2.4-2.4ZM97.6 575.4h-6.3v-6.3c0-1.3-1.1-2.4-2.4-2.4s-2.4 1.1-2.4 2.4v6.3h-6.3c-1.3 0-2.4 1.1-2.4 2.4 0 1.3 1.1 2.4 2.4 2.4h6.3v6.3c0 1.3 1.1 2.4 2.4 2.4s2.4-1.1 2.4-2.4v-6.3h6.3c1.3 0 2.4-1.1 2.4-2.4 0-1.3-1.1-2.4-2.4-2.4ZM100 444.4zM97.6 530.9h-6.3v-6.3c0-1.3-1.1-2.4-2.4-2.4s-2.4 1.1-2.4 2.4v6.3h-6.3c-1.3 0-2.4 1.1-2.4 2.4 0 1.3 1.1 2.4 2.4 2.4h6.3v6.3c0 1.3 1.1 2.4 2.4 2.4s2.4-1.1 2.4-2.4v-6.3h6.3c1.3 0 2.4-1.1 2.4-2.4 0-1.3-1.1-2.4-2.4-2.4ZM97.6 486.5h-6.3v-6.3c0-1.3-1.1-2.4-2.4-2.4s-2.4 1.1-2.4 2.4v6.3h-6.3c-1.3 0-2.4 1.1-2.4 2.4s1.1 2.4 2.4 2.4h6.3v6.3c0 1.3 1.1 2.4 2.4 2.4s2.4-1.1 2.4-2.4v-6.3h6.3c1.3 0 2.4-1.1 2.4-2.4s-1.1-2.4-2.4-2.4ZM97.6 619.8h-6.3v-6.3c0-1.3-1.1-2.4-2.4-2.4s-2.4 1.1-2.4 2.4v6.3h-6.3c-1.3 0-2.4 1.1-2.4 2.4 0 1.3 1.1 2.4 2.4 2.4h6.3v6.3c0 1.3 1.1 2.4 2.4 2.4s2.4-1.1 2.4-2.4v-6.3h6.3c1.3 0 2.4-1.1 2.4-2.4 0-1.3-1.1-2.4-2.4-2.4ZM77.8 444.4zM100 400zM97.6 442h-6.3v-6.3c0-1.3-1.1-2.4-2.4-2.4s-2.4 1.1-2.4 2.4v6.3h-6.3c-1.3 0-2.4 1.1-2.4 2.4s1.1 2.4 2.4 2.4h6.3v6.3c0 1.3 1.1 2.4 2.4 2.4s2.4-1.1 2.4-2.4v-6.3h6.3c1.3 0 2.4-1.1 2.4-2.4s-1.1-2.4-2.4-2.4ZM77.8 400zM97.6 353.2h-6.3v-6.3c0-1.3-1.1-2.4-2.4-2.4s-2.4 1.1-2.4 2.4v6.3h-6.3c-1.3 0-2.4 1.1-2.4 2.4s1.1 2.4 2.4 2.4h6.3v6.3c0 1.3 1.1 2.4 2.4 2.4s2.4-1.1 2.4-2.4V358h6.3c1.3 0 2.4-1.1 2.4-2.4s-1.1-2.4-2.4-2.4ZM11.1 266.7zM-11.1 444.4zM11.1 400zM11.1 444.4zM-11.1 400zM8.7 308.7H2.4v-6.3c0-1.3-1.1-2.4-2.4-2.4s-2.4 1.1-2.4 2.4v6.3h-6.3c-1.3 0-2.4 1.1-2.4 2.4s1.1 2.4 2.4 2.4h6.3v6.3c0 1.3 1.1 2.4 2.4 2.4s2.4-1.1 2.4-2.4v-6.3h6.3c1.3 0 2.4-1.1 2.4-2.4s-1.1-2.4-2.4-2.4ZM8.7 353.2H2.4v-6.3c0-1.3-1.1-2.4-2.4-2.4s-2.4 1.1-2.4 2.4v6.3h-6.3c-1.3 0-2.4 1.1-2.4 2.4s1.1 2.4 2.4 2.4h6.3v6.3c0 1.3 1.1 2.4 2.4 2.4s2.4-1.1 2.4-2.4V358h6.3c1.3 0 2.4-1.1 2.4-2.4s-1.1-2.4-2.4-2.4ZM8.7 486.5H2.4v-6.3c0-1.3-1.1-2.4-2.4-2.4s-2.4 1.1-2.4 2.4v6.3h-6.3c-1.3 0-2.4 1.1-2.4 2.4s1.1 2.4 2.4 2.4h6.3v6.3c0 1.3 1.1 2.4 2.4 2.4s2.4-1.1 2.4-2.4v-6.3h6.3c1.3 0 2.4-1.1 2.4-2.4s-1.1-2.4-2.4-2.4ZM8.7 397.6H2.4v-6.3c0-1.3-1.1-2.4-2.4-2.4s-2.4 1.1-2.4 2.4v6.3h-6.3c-1.3 0-2.4 1.1-2.4 2.4s1.1 2.4 2.4 2.4h6.3v6.3c0 1.3 1.1 2.4 2.4 2.4s2.4-1.1 2.4-2.4v-6.3h6.3c1.3 0 2.4-1.1 2.4-2.4s-1.1-2.4-2.4-2.4ZM8.7 442H2.4v-6.3c0-1.3-1.1-2.4-2.4-2.4s-2.4 1.1-2.4 2.4v6.3h-6.3c-1.3 0-2.4 1.1-2.4 2.4s1.1 2.4 2.4 2.4h6.3v6.3c0 1.3 1.1 2.4 2.4 2.4s2.4-1.1 2.4-2.4v-6.3h6.3c1.3 0 2.4-1.1 2.4-2.4S10 442 8.7 442ZM8.7 530.9H2.4v-6.3c0-1.3-1.1-2.4-2.4-2.4s-2.4 1.1-2.4 2.4v6.3h-6.3c-1.3 0-2.4 1.1-2.4 2.4 0 1.3 1.1 2.4 2.4 2.4h6.3v6.3c0 1.3 1.1 2.4 2.4 2.4s2.4-1.1 2.4-2.4v-6.3h6.3c1.3 0 2.4-1.1 2.4-2.4 0-1.3-1.1-2.4-2.4-2.4ZM8.7 708.7H2.4v-6.3c0-1.3-1.1-2.4-2.4-2.4s-2.4 1.1-2.4 2.4v6.3h-6.3c-1.3 0-2.4 1.1-2.4 2.4 0 1.3 1.1 2.4 2.4 2.4h6.3v6.3c0 1.3 1.1 2.4 2.4 2.4s2.4-1.1 2.4-2.4v-6.3h6.3c1.3 0 2.4-1.1 2.4-2.4 0-1.3-1.1-2.4-2.4-2.4ZM8.7 753.2H2.4v-6.3c0-1.3-1.1-2.4-2.4-2.4s-2.4 1.1-2.4 2.4v6.3h-6.3c-1.3 0-2.4 1.1-2.4 2.4 0 1.3 1.1 2.4 2.4 2.4h6.3v6.3c0 1.3 1.1 2.4 2.4 2.4s2.4-1.1 2.4-2.4V758h6.3c1.3 0 2.4-1.1 2.4-2.4 0-1.3-1.1-2.4-2.4-2.4ZM791.3 2.4h6.3v6.3c0 1.3 1.1 2.4 2.4 2.4 1.3 0 2.4-1.1 2.4-2.4V2.4h6.3c1.3 0 2.4-1.1 2.4-2.4s-1.1-2.4-2.4-2.4h-6.3v-6.3c0-1.3-1.1-2.4-2.4-2.4-1.3 0-2.4 1.1-2.4 2.4v6.3h-6.3c-1.3 0-2.4 1.1-2.4 2.4s1.1 2.4 2.4 2.4ZM8.7 797.6H2.4v-6.3c0-1.3-1.1-2.4-2.4-2.4s-2.4 1.1-2.4 2.4v6.3h-6.3c-1.3 0-2.4 1.1-2.4 2.4 0 1.3 1.1 2.4 2.4 2.4h6.3v6.3c0 1.3 1.1 2.4 2.4 2.4s2.4-1.1 2.4-2.4v-6.3h6.3c1.3 0 2.4-1.1 2.4-2.4 0-1.3-1.1-2.4-2.4-2.4ZM8.7 575.4H2.4v-6.3c0-1.3-1.1-2.4-2.4-2.4s-2.4 1.1-2.4 2.4v6.3h-6.3c-1.3 0-2.4 1.1-2.4 2.4 0 1.3 1.1 2.4 2.4 2.4h6.3v6.3c0 1.3 1.1 2.4 2.4 2.4s2.4-1.1 2.4-2.4v-6.3h6.3c1.3 0 2.4-1.1 2.4-2.4 0-1.3-1.1-2.4-2.4-2.4ZM8.7 664.3H2.4V658c0-1.3-1.1-2.4-2.4-2.4s-2.4 1.1-2.4 2.4v6.3h-6.3c-1.3 0-2.4 1.1-2.4 2.4 0 1.3 1.1 2.4 2.4 2.4h6.3v6.3c0 1.3 1.1 2.4 2.4 2.4s2.4-1.1 2.4-2.4v-6.3h6.3c1.3 0 2.4-1.1 2.4-2.4 0-1.3-1.1-2.4-2.4-2.4ZM8.7 619.8H2.4v-6.3c0-1.3-1.1-2.4-2.4-2.4s-2.4 1.1-2.4 2.4v6.3h-6.3c-1.3 0-2.4 1.1-2.4 2.4 0 1.3 1.1 2.4 2.4 2.4h6.3v6.3c0 1.3 1.1 2.4 2.4 2.4s2.4-1.1 2.4-2.4v-6.3h6.3c1.3 0 2.4-1.1 2.4-2.4 0-1.3-1.1-2.4-2.4-2.4ZM8.7 175.4H2.4v-6.3c0-1.3-1.1-2.4-2.4-2.4s-2.4 1.1-2.4 2.4v6.3h-6.3c-1.3 0-2.4 1.1-2.4 2.4s1.1 2.4 2.4 2.4h6.3v6.3c0 1.3 1.1 2.4 2.4 2.4s2.4-1.1 2.4-2.4v-6.3h6.3c1.3 0 2.4-1.1 2.4-2.4s-1.1-2.4-2.4-2.4ZM53.2 753.2h-6.3v-6.3c0-1.3-1.1-2.4-2.4-2.4s-2.4 1.1-2.4 2.4v6.3h-6.3c-1.3 0-2.4 1.1-2.4 2.4 0 1.3 1.1 2.4 2.4 2.4h6.3v6.3c0 1.3 1.1 2.4 2.4 2.4s2.4-1.1 2.4-2.4V758h6.3c1.3 0 2.4-1.1 2.4-2.4 0-1.3-1.1-2.4-2.4-2.4ZM53.2 575.4h-6.3v-6.3c0-1.3-1.1-2.4-2.4-2.4s-2.4 1.1-2.4 2.4v6.3h-6.3c-1.3 0-2.4 1.1-2.4 2.4 0 1.3 1.1 2.4 2.4 2.4h6.3v6.3c0 1.3 1.1 2.4 2.4 2.4s2.4-1.1 2.4-2.4v-6.3h6.3c1.3 0 2.4-1.1 2.4-2.4 0-1.3-1.1-2.4-2.4-2.4ZM53.2 619.8h-6.3v-6.3c0-1.3-1.1-2.4-2.4-2.4s-2.4 1.1-2.4 2.4v6.3h-6.3c-1.3 0-2.4 1.1-2.4 2.4 0 1.3 1.1 2.4 2.4 2.4h6.3v6.3c0 1.3 1.1 2.4 2.4 2.4s2.4-1.1 2.4-2.4v-6.3h6.3c1.3 0 2.4-1.1 2.4-2.4 0-1.3-1.1-2.4-2.4-2.4ZM53.2 708.7h-6.3v-6.3c0-1.3-1.1-2.4-2.4-2.4s-2.4 1.1-2.4 2.4v6.3h-6.3c-1.3 0-2.4 1.1-2.4 2.4 0 1.3 1.1 2.4 2.4 2.4h6.3v6.3c0 1.3 1.1 2.4 2.4 2.4s2.4-1.1 2.4-2.4v-6.3h6.3c1.3 0 2.4-1.1 2.4-2.4 0-1.3-1.1-2.4-2.4-2.4ZM53.2 664.3h-6.3V658c0-1.3-1.1-2.4-2.4-2.4s-2.4 1.1-2.4 2.4v6.3h-6.3c-1.3 0-2.4 1.1-2.4 2.4 0 1.3 1.1 2.4 2.4 2.4h6.3v6.3c0 1.3 1.1 2.4 2.4 2.4s2.4-1.1 2.4-2.4v-6.3h6.3c1.3 0 2.4-1.1 2.4-2.4 0-1.3-1.1-2.4-2.4-2.4ZM-11.1 266.7zM53.2 530.9h-6.3v-6.3c0-1.3-1.1-2.4-2.4-2.4s-2.4 1.1-2.4 2.4v6.3h-6.3c-1.3 0-2.4 1.1-2.4 2.4 0 1.3 1.1 2.4 2.4 2.4h6.3v6.3c0 1.3 1.1 2.4 2.4 2.4s2.4-1.1 2.4-2.4v-6.3h6.3c1.3 0 2.4-1.1 2.4-2.4 0-1.3-1.1-2.4-2.4-2.4ZM53.2 486.5h-6.3v-6.3c0-1.3-1.1-2.4-2.4-2.4s-2.4 1.1-2.4 2.4v6.3h-6.3c-1.3 0-2.4 1.1-2.4 2.4s1.1 2.4 2.4 2.4h6.3v6.3c0 1.3 1.1 2.4 2.4 2.4s2.4-1.1 2.4-2.4v-6.3h6.3c1.3 0 2.4-1.1 2.4-2.4s-1.1-2.4-2.4-2.4ZM55.6 444.4zM33.3 444.4zM8.7 219.8H2.4v-6.3c0-1.3-1.1-2.4-2.4-2.4s-2.4 1.1-2.4 2.4v6.3h-6.3c-1.3 0-2.4 1.1-2.4 2.4s1.1 2.4 2.4 2.4h6.3v6.3c0 1.3 1.1 2.4 2.4 2.4s2.4-1.1 2.4-2.4v-6.3h6.3c1.3 0 2.4-1.1 2.4-2.4s-1.1-2.4-2.4-2.4ZM8.7 264.3H2.4V258c0-1.3-1.1-2.4-2.4-2.4s-2.4 1.1-2.4 2.4v6.3h-6.3c-1.3 0-2.4 1.1-2.4 2.4s1.1 2.4 2.4 2.4h6.3v6.3c0 1.3 1.1 2.4 2.4 2.4s2.4-1.1 2.4-2.4v-6.3h6.3c1.3 0 2.4-1.1 2.4-2.4s-1.1-2.4-2.4-2.4ZM8.7 130.9H2.4v-6.3c0-1.3-1.1-2.4-2.4-2.4s-2.4 1.1-2.4 2.4v6.3h-6.3c-1.3 0-2.4 1.1-2.4 2.4s1.1 2.4 2.4 2.4h6.3v6.3c0 1.3 1.1 2.4 2.4 2.4s2.4-1.1 2.4-2.4v-6.3h6.3c1.3 0 2.4-1.1 2.4-2.4s-1.1-2.4-2.4-2.4ZM8.7 42H2.4v-6.3c0-1.3-1.1-2.4-2.4-2.4s-2.4 1.1-2.4 2.4V42h-6.3c-1.3 0-2.4 1.1-2.4 2.4s1.1 2.4 2.4 2.4h6.3v6.3c0 1.3 1.1 2.4 2.4 2.4s2.4-1.1 2.4-2.4v-6.3h6.3c1.3 0 2.4-1.1 2.4-2.4S10 42 8.7 42ZM8.7-2.4H2.4v-6.3c0-1.3-1.1-2.4-2.4-2.4S-2.4-10-2.4-8.7v6.3h-6.3c-1.3 0-2.4 1.1-2.4 2.4s1.1 2.4 2.4 2.4h6.3v6.3c0 1.3 1.1 2.4 2.4 2.4S2.4 10 2.4 8.7V2.4h6.3c1.3 0 2.4-1.1 2.4-2.4S10-2.4 8.7-2.4ZM53.2 797.6h-6.3v-6.3c0-1.3-1.1-2.4-2.4-2.4s-2.4 1.1-2.4 2.4v6.3h-6.3c-1.3 0-2.4 1.1-2.4 2.4 0 1.3 1.1 2.4 2.4 2.4h6.3v6.3c0 1.3 1.1 2.4 2.4 2.4s2.4-1.1 2.4-2.4v-6.3h6.3c1.3 0 2.4-1.1 2.4-2.4 0-1.3-1.1-2.4-2.4-2.4ZM8.7 86.5H2.4v-6.3c0-1.3-1.1-2.4-2.4-2.4s-2.4 1.1-2.4 2.4v6.3h-6.3c-1.3 0-2.4 1.1-2.4 2.4s1.1 2.4 2.4 2.4h6.3v6.3c0 1.3 1.1 2.4 2.4 2.4s2.4-1.1 2.4-2.4v-6.3h6.3c1.3 0 2.4-1.1 2.4-2.4s-1.1-2.4-2.4-2.4ZM55.6 400zM186.5 175.4h-6.3v-6.3c0-1.3-1.1-2.4-2.4-2.4s-2.4 1.1-2.4 2.4v6.3h-6.3c-1.3 0-2.4 1.1-2.4 2.4s1.1 2.4 2.4 2.4h6.3v6.3c0 1.3 1.1 2.4 2.4 2.4s2.4-1.1 2.4-2.4v-6.3h6.3c1.3 0 2.4-1.1 2.4-2.4s-1.1-2.4-2.4-2.4ZM230.9 708.7h-6.3v-6.3c0-1.3-1.1-2.4-2.4-2.4s-2.4 1.1-2.4 2.4v6.3h-6.3c-1.3 0-2.4 1.1-2.4 2.4 0 1.3 1.1 2.4 2.4 2.4h6.3v6.3c0 1.3 1.1 2.4 2.4 2.4s2.4-1.1 2.4-2.4v-6.3h6.3c1.3 0 2.4-1.1 2.4-2.4 0-1.3-1.1-2.4-2.4-2.4ZM186.5 219.8h-6.3v-6.3c0-1.3-1.1-2.4-2.4-2.4s-2.4 1.1-2.4 2.4v6.3h-6.3c-1.3 0-2.4 1.1-2.4 2.4s1.1 2.4 2.4 2.4h6.3v6.3c0 1.3 1.1 2.4 2.4 2.4s2.4-1.1 2.4-2.4v-6.3h6.3c1.3 0 2.4-1.1 2.4-2.4s-1.1-2.4-2.4-2.4ZM186.5 86.5h-6.3v-6.3c0-1.3-1.1-2.4-2.4-2.4s-2.4 1.1-2.4 2.4v6.3h-6.3c-1.3 0-2.4 1.1-2.4 2.4s1.1 2.4 2.4 2.4h6.3v6.3c0 1.3 1.1 2.4 2.4 2.4s2.4-1.1 2.4-2.4v-6.3h6.3c1.3 0 2.4-1.1 2.4-2.4s-1.1-2.4-2.4-2.4ZM186.5 42h-6.3v-6.3c0-1.3-1.1-2.4-2.4-2.4s-2.4 1.1-2.4 2.4V42h-6.3c-1.3 0-2.4 1.1-2.4 2.4s1.1 2.4 2.4 2.4h6.3v6.3c0 1.3 1.1 2.4 2.4 2.4s2.4-1.1 2.4-2.4v-6.3h6.3c1.3 0 2.4-1.1 2.4-2.4s-1.1-2.4-2.4-2.4ZM230.9 753.2h-6.3v-6.3c0-1.3-1.1-2.4-2.4-2.4s-2.4 1.1-2.4 2.4v6.3h-6.3c-1.3 0-2.4 1.1-2.4 2.4 0 1.3 1.1 2.4 2.4 2.4h6.3v6.3c0 1.3 1.1 2.4 2.4 2.4s2.4-1.1 2.4-2.4V758h6.3c1.3 0 2.4-1.1 2.4-2.4 0-1.3-1.1-2.4-2.4-2.4ZM230.9 797.6h-6.3v-6.3c0-1.3-1.1-2.4-2.4-2.4s-2.4 1.1-2.4 2.4v6.3h-6.3c-1.3 0-2.4 1.1-2.4 2.4 0 1.3 1.1 2.4 2.4 2.4h6.3v6.3c0 1.3 1.1 2.4 2.4 2.4s2.4-1.1 2.4-2.4v-6.3h6.3c1.3 0 2.4-1.1 2.4-2.4 0-1.3-1.1-2.4-2.4-2.4ZM186.5 264.3h-6.3V258c0-1.3-1.1-2.4-2.4-2.4s-2.4 1.1-2.4 2.4v6.3h-6.3c-1.3 0-2.4 1.1-2.4 2.4s1.1 2.4 2.4 2.4h6.3v6.3c0 1.3 1.1 2.4 2.4 2.4s2.4-1.1 2.4-2.4v-6.3h6.3c1.3 0 2.4-1.1 2.4-2.4s-1.1-2.4-2.4-2.4ZM186.5-2.4h-6.3v-6.3c0-1.3-1.1-2.4-2.4-2.4s-2.4 1.1-2.4 2.4v6.3h-6.3c-1.3 0-2.4 1.1-2.4 2.4s1.1 2.4 2.4 2.4h6.3v6.3c0 1.3 1.1 2.4 2.4 2.4s2.4-1.1 2.4-2.4V2.4h6.3c1.3 0 2.4-1.1 2.4-2.4s-1.1-2.4-2.4-2.4ZM186.5 130.9h-6.3v-6.3c0-1.3-1.1-2.4-2.4-2.4s-2.4 1.1-2.4 2.4v6.3h-6.3c-1.3 0-2.4 1.1-2.4 2.4s1.1 2.4 2.4 2.4h6.3v6.3c0 1.3 1.1 2.4 2.4 2.4s2.4-1.1 2.4-2.4v-6.3h6.3c1.3 0 2.4-1.1 2.4-2.4s-1.1-2.4-2.4-2.4ZM188.9 400zM166.7 266.7zM166.7 444.4zM166.7 400zM186.5 442h-6.3v-6.3c0-1.3-1.1-2.4-2.4-2.4s-2.4 1.1-2.4 2.4v6.3h-6.3c-1.3 0-2.4 1.1-2.4 2.4s1.1 2.4 2.4 2.4h6.3v6.3c0 1.3 1.1 2.4 2.4 2.4s2.4-1.1 2.4-2.4v-6.3h6.3c1.3 0 2.4-1.1 2.4-2.4s-1.1-2.4-2.4-2.4ZM188.9 266.7zM186.5 353.2h-6.3v-6.3c0-1.3-1.1-2.4-2.4-2.4s-2.4 1.1-2.4 2.4v6.3h-6.3c-1.3 0-2.4 1.1-2.4 2.4s1.1 2.4 2.4 2.4h6.3v6.3c0 1.3 1.1 2.4 2.4 2.4s2.4-1.1 2.4-2.4V358h6.3c1.3 0 2.4-1.1 2.4-2.4s-1.1-2.4-2.4-2.4ZM186.5 397.6h-6.3v-6.3c0-1.3-1.1-2.4-2.4-2.4s-2.4 1.1-2.4 2.4v6.3h-6.3c-1.3 0-2.4 1.1-2.4 2.4s1.1 2.4 2.4 2.4h6.3v6.3c0 1.3 1.1 2.4 2.4 2.4s2.4-1.1 2.4-2.4v-6.3h6.3c1.3 0 2.4-1.1 2.4-2.4s-1.1-2.4-2.4-2.4ZM230.9 486.5h-6.3v-6.3c0-1.3-1.1-2.4-2.4-2.4s-2.4 1.1-2.4 2.4v6.3h-6.3c-1.3 0-2.4 1.1-2.4 2.4s1.1 2.4 2.4 2.4h6.3v6.3c0 1.3 1.1 2.4 2.4 2.4s2.4-1.1 2.4-2.4v-6.3h6.3c1.3 0 2.4-1.1 2.4-2.4s-1.1-2.4-2.4-2.4ZM230.9 353.2h-6.3v-6.3c0-1.3-1.1-2.4-2.4-2.4s-2.4 1.1-2.4 2.4v6.3h-6.3c-1.3 0-2.4 1.1-2.4 2.4s1.1 2.4 2.4 2.4h6.3v6.3c0 1.3 1.1 2.4 2.4 2.4s2.4-1.1 2.4-2.4V358h6.3c1.3 0 2.4-1.1 2.4-2.4s-1.1-2.4-2.4-2.4ZM211.1 400zM230.9 308.7h-6.3v-6.3c0-1.3-1.1-2.4-2.4-2.4s-2.4 1.1-2.4 2.4v6.3h-6.3c-1.3 0-2.4 1.1-2.4 2.4s1.1 2.4 2.4 2.4h6.3v6.3c0 1.3 1.1 2.4 2.4 2.4s2.4-1.1 2.4-2.4v-6.3h6.3c1.3 0 2.4-1.1 2.4-2.4s-1.1-2.4-2.4-2.4ZM230.9 397.6h-6.3v-6.3c0-1.3-1.1-2.4-2.4-2.4s-2.4 1.1-2.4 2.4v6.3h-6.3c-1.3 0-2.4 1.1-2.4 2.4s1.1 2.4 2.4 2.4h6.3v6.3c0 1.3 1.1 2.4 2.4 2.4s2.4-1.1 2.4-2.4v-6.3h6.3c1.3 0 2.4-1.1 2.4-2.4s-1.1-2.4-2.4-2.4ZM233.3 266.7zM230.9 219.8h-6.3v-6.3c0-1.3-1.1-2.4-2.4-2.4s-2.4 1.1-2.4 2.4v6.3h-6.3c-1.3 0-2.4 1.1-2.4 2.4s1.1 2.4 2.4 2.4h6.3v6.3c0 1.3 1.1 2.4 2.4 2.4s2.4-1.1 2.4-2.4v-6.3h6.3c1.3 0 2.4-1.1 2.4-2.4s-1.1-2.4-2.4-2.4ZM230.9 264.3h-6.3V258c0-1.3-1.1-2.4-2.4-2.4s-2.4 1.1-2.4 2.4v6.3h-6.3c-1.3 0-2.4 1.1-2.4 2.4s1.1 2.4 2.4 2.4h6.3v6.3c0 1.3 1.1 2.4 2.4 2.4s2.4-1.1 2.4-2.4v-6.3h6.3c1.3 0 2.4-1.1 2.4-2.4s-1.1-2.4-2.4-2.4ZM211.1 266.7zM211.1 444.4zM188.9 444.4zM233.3 400zM97.6 86.5h-6.3v-6.3c0-1.3-1.1-2.4-2.4-2.4s-2.4 1.1-2.4 2.4v6.3h-6.3c-1.3 0-2.4 1.1-2.4 2.4s1.1 2.4 2.4 2.4h6.3v6.3c0 1.3 1.1 2.4 2.4 2.4s2.4-1.1 2.4-2.4v-6.3h6.3c1.3 0 2.4-1.1 2.4-2.4s-1.1-2.4-2.4-2.4ZM230.9 619.8h-6.3v-6.3c0-1.3-1.1-2.4-2.4-2.4s-2.4 1.1-2.4 2.4v6.3h-6.3c-1.3 0-2.4 1.1-2.4 2.4 0 1.3 1.1 2.4 2.4 2.4h6.3v6.3c0 1.3 1.1 2.4 2.4 2.4s2.4-1.1 2.4-2.4v-6.3h6.3c1.3 0 2.4-1.1 2.4-2.4 0-1.3-1.1-2.4-2.4-2.4ZM230.9 530.9h-6.3v-6.3c0-1.3-1.1-2.4-2.4-2.4s-2.4 1.1-2.4 2.4v6.3h-6.3c-1.3 0-2.4 1.1-2.4 2.4 0 1.3 1.1 2.4 2.4 2.4h6.3v6.3c0 1.3 1.1 2.4 2.4 2.4s2.4-1.1 2.4-2.4v-6.3h6.3c1.3 0 2.4-1.1 2.4-2.4 0-1.3-1.1-2.4-2.4-2.4ZM230.9 442h-6.3v-6.3c0-1.3-1.1-2.4-2.4-2.4s-2.4 1.1-2.4 2.4v6.3h-6.3c-1.3 0-2.4 1.1-2.4 2.4s1.1 2.4 2.4 2.4h6.3v6.3c0 1.3 1.1 2.4 2.4 2.4s2.4-1.1 2.4-2.4v-6.3h6.3c1.3 0 2.4-1.1 2.4-2.4s-1.1-2.4-2.4-2.4ZM355.6 77.8zM233.3 444.4zM230.9 575.4h-6.3v-6.3c0-1.3-1.1-2.4-2.4-2.4s-2.4 1.1-2.4 2.4v6.3h-6.3c-1.3 0-2.4 1.1-2.4 2.4 0 1.3 1.1 2.4 2.4 2.4h6.3v6.3c0 1.3 1.1 2.4 2.4 2.4s2.4-1.1 2.4-2.4v-6.3h6.3c1.3 0 2.4-1.1 2.4-2.4 0-1.3-1.1-2.4-2.4-2.4ZM142 353.2h-6.3v-6.3c0-1.3-1.1-2.4-2.4-2.4-1.3 0-2.4 1.1-2.4 2.4v6.3h-6.3c-1.3 0-2.4 1.1-2.4 2.4s1.1 2.4 2.4 2.4h6.3v6.3c0 1.3 1.1 2.4 2.4 2.4 1.3 0 2.4-1.1 2.4-2.4V358h6.3c1.3 0 2.4-1.1 2.4-2.4s-1.1-2.4-2.4-2.4ZM142 442h-6.3v-6.3c0-1.3-1.1-2.4-2.4-2.4-1.3 0-2.4 1.1-2.4 2.4v6.3h-6.3c-1.3 0-2.4 1.1-2.4 2.4s1.1 2.4 2.4 2.4h6.3v6.3c0 1.3 1.1 2.4 2.4 2.4 1.3 0 2.4-1.1 2.4-2.4v-6.3h6.3c1.3 0 2.4-1.1 2.4-2.4s-1.1-2.4-2.4-2.4ZM122.2 444.4zM142 486.5h-6.3v-6.3c0-1.3-1.1-2.4-2.4-2.4-1.3 0-2.4 1.1-2.4 2.4v6.3h-6.3c-1.3 0-2.4 1.1-2.4 2.4s1.1 2.4 2.4 2.4h6.3v6.3c0 1.3 1.1 2.4 2.4 2.4 1.3 0 2.4-1.1 2.4-2.4v-6.3h6.3c1.3 0 2.4-1.1 2.4-2.4s-1.1-2.4-2.4-2.4ZM142 397.6h-6.3v-6.3c0-1.3-1.1-2.4-2.4-2.4-1.3 0-2.4 1.1-2.4 2.4v6.3h-6.3c-1.3 0-2.4 1.1-2.4 2.4s1.1 2.4 2.4 2.4h6.3v6.3c0 1.3 1.1 2.4 2.4 2.4 1.3 0 2.4-1.1 2.4-2.4v-6.3h6.3c1.3 0 2.4-1.1 2.4-2.4s-1.1-2.4-2.4-2.4ZM142 530.9h-6.3v-6.3c0-1.3-1.1-2.4-2.4-2.4-1.3 0-2.4 1.1-2.4 2.4v6.3h-6.3c-1.3 0-2.4 1.1-2.4 2.4 0 1.3 1.1 2.4 2.4 2.4h6.3v6.3c0 1.3 1.1 2.4 2.4 2.4 1.3 0 2.4-1.1 2.4-2.4v-6.3h6.3c1.3 0 2.4-1.1 2.4-2.4 0-1.3-1.1-2.4-2.4-2.4ZM122.2 400zM144.4 400zM144.4 444.4zM142 575.4h-6.3v-6.3c0-1.3-1.1-2.4-2.4-2.4-1.3 0-2.4 1.1-2.4 2.4v6.3h-6.3c-1.3 0-2.4 1.1-2.4 2.4 0 1.3 1.1 2.4 2.4 2.4h6.3v6.3c0 1.3 1.1 2.4 2.4 2.4 1.3 0 2.4-1.1 2.4-2.4v-6.3h6.3c1.3 0 2.4-1.1 2.4-2.4 0-1.3-1.1-2.4-2.4-2.4ZM97.6-2.4h-6.3v-6.3c0-1.3-1.1-2.4-2.4-2.4s-2.4 1.1-2.4 2.4v6.3h-6.3c-1.3 0-2.4 1.1-2.4 2.4s1.1 2.4 2.4 2.4h6.3v6.3c0 1.3 1.1 2.4 2.4 2.4s2.4-1.1 2.4-2.4V2.4h6.3c1.3 0 2.4-1.1 2.4-2.4s-1.1-2.4-2.4-2.4ZM142 753.2h-6.3v-6.3c0-1.3-1.1-2.4-2.4-2.4-1.3 0-2.4 1.1-2.4 2.4v6.3h-6.3c-1.3 0-2.4 1.1-2.4 2.4 0 1.3 1.1 2.4 2.4 2.4h6.3v6.3c0 1.3 1.1 2.4 2.4 2.4 1.3 0 2.4-1.1 2.4-2.4V758h6.3c1.3 0 2.4-1.1 2.4-2.4 0-1.3-1.1-2.4-2.4-2.4ZM97.6 42h-6.3v-6.3c0-1.3-1.1-2.4-2.4-2.4s-2.4 1.1-2.4 2.4V42h-6.3c-1.3 0-2.4 1.1-2.4 2.4s1.1 2.4 2.4 2.4h6.3v6.3c0 1.3 1.1 2.4 2.4 2.4s2.4-1.1 2.4-2.4v-6.3h6.3c1.3 0 2.4-1.1 2.4-2.4S98.9 42 97.6 42ZM142 797.6h-6.3v-6.3c0-1.3-1.1-2.4-2.4-2.4-1.3 0-2.4 1.1-2.4 2.4v6.3h-6.3c-1.3 0-2.4 1.1-2.4 2.4 0 1.3 1.1 2.4 2.4 2.4h6.3v6.3c0 1.3 1.1 2.4 2.4 2.4 1.3 0 2.4-1.1 2.4-2.4v-6.3h6.3c1.3 0 2.4-1.1 2.4-2.4 0-1.3-1.1-2.4-2.4-2.4ZM142 619.8h-6.3v-6.3c0-1.3-1.1-2.4-2.4-2.4-1.3 0-2.4 1.1-2.4 2.4v6.3h-6.3c-1.3 0-2.4 1.1-2.4 2.4 0 1.3 1.1 2.4 2.4 2.4h6.3v6.3c0 1.3 1.1 2.4 2.4 2.4 1.3 0 2.4-1.1 2.4-2.4v-6.3h6.3c1.3 0 2.4-1.1 2.4-2.4 0-1.3-1.1-2.4-2.4-2.4ZM142 664.3h-6.3V658c0-1.3-1.1-2.4-2.4-2.4-1.3 0-2.4 1.1-2.4 2.4v6.3h-6.3c-1.3 0-2.4 1.1-2.4 2.4 0 1.3 1.1 2.4 2.4 2.4h6.3v6.3c0 1.3 1.1 2.4 2.4 2.4 1.3 0 2.4-1.1 2.4-2.4v-6.3h6.3c1.3 0 2.4-1.1 2.4-2.4 0-1.3-1.1-2.4-2.4-2.4ZM142 708.7h-6.3v-6.3c0-1.3-1.1-2.4-2.4-2.4-1.3 0-2.4 1.1-2.4 2.4v6.3h-6.3c-1.3 0-2.4 1.1-2.4 2.4 0 1.3 1.1 2.4 2.4 2.4h6.3v6.3c0 1.3 1.1 2.4 2.4 2.4 1.3 0 2.4-1.1 2.4-2.4v-6.3h6.3c1.3 0 2.4-1.1 2.4-2.4 0-1.3-1.1-2.4-2.4-2.4ZM142 130.9h-6.3v-6.3c0-1.3-1.1-2.4-2.4-2.4-1.3 0-2.4 1.1-2.4 2.4v6.3h-6.3c-1.3 0-2.4 1.1-2.4 2.4s1.1 2.4 2.4 2.4h6.3v6.3c0 1.3 1.1 2.4 2.4 2.4 1.3 0 2.4-1.1 2.4-2.4v-6.3h6.3c1.3 0 2.4-1.1 2.4-2.4s-1.1-2.4-2.4-2.4ZM186.5 753.2h-6.3v-6.3c0-1.3-1.1-2.4-2.4-2.4s-2.4 1.1-2.4 2.4v6.3h-6.3c-1.3 0-2.4 1.1-2.4 2.4 0 1.3 1.1 2.4 2.4 2.4h6.3v6.3c0 1.3 1.1 2.4 2.4 2.4s2.4-1.1 2.4-2.4V758h6.3c1.3 0 2.4-1.1 2.4-2.4 0-1.3-1.1-2.4-2.4-2.4ZM186.5 664.3h-6.3V658c0-1.3-1.1-2.4-2.4-2.4s-2.4 1.1-2.4 2.4v6.3h-6.3c-1.3 0-2.4 1.1-2.4 2.4 0 1.3 1.1 2.4 2.4 2.4h6.3v6.3c0 1.3 1.1 2.4 2.4 2.4s2.4-1.1 2.4-2.4v-6.3h6.3c1.3 0 2.4-1.1 2.4-2.4 0-1.3-1.1-2.4-2.4-2.4ZM142 308.7h-6.3v-6.3c0-1.3-1.1-2.4-2.4-2.4-1.3 0-2.4 1.1-2.4 2.4v6.3h-6.3c-1.3 0-2.4 1.1-2.4 2.4s1.1 2.4 2.4 2.4h6.3v6.3c0 1.3 1.1 2.4 2.4 2.4 1.3 0 2.4-1.1 2.4-2.4v-6.3h6.3c1.3 0 2.4-1.1 2.4-2.4s-1.1-2.4-2.4-2.4ZM142-2.4h-6.3v-6.3c0-1.3-1.1-2.4-2.4-2.4-1.3 0-2.4 1.1-2.4 2.4v6.3h-6.3c-1.3 0-2.4 1.1-2.4 2.4s1.1 2.4 2.4 2.4h6.3v6.3c0 1.3 1.1 2.4 2.4 2.4 1.3 0 2.4-1.1 2.4-2.4V2.4h6.3c1.3 0 2.4-1.1 2.4-2.4s-1.1-2.4-2.4-2.4ZM186.5 797.6h-6.3v-6.3c0-1.3-1.1-2.4-2.4-2.4s-2.4 1.1-2.4 2.4v6.3h-6.3c-1.3 0-2.4 1.1-2.4 2.4 0 1.3 1.1 2.4 2.4 2.4h6.3v6.3c0 1.3 1.1 2.4 2.4 2.4s2.4-1.1 2.4-2.4v-6.3h6.3c1.3 0 2.4-1.1 2.4-2.4 0-1.3-1.1-2.4-2.4-2.4ZM186.5 530.9h-6.3v-6.3c0-1.3-1.1-2.4-2.4-2.4s-2.4 1.1-2.4 2.4v6.3h-6.3c-1.3 0-2.4 1.1-2.4 2.4 0 1.3 1.1 2.4 2.4 2.4h6.3v6.3c0 1.3 1.1 2.4 2.4 2.4s2.4-1.1 2.4-2.4v-6.3h6.3c1.3 0 2.4-1.1 2.4-2.4 0-1.3-1.1-2.4-2.4-2.4ZM186.5 619.8h-6.3v-6.3c0-1.3-1.1-2.4-2.4-2.4s-2.4 1.1-2.4 2.4v6.3h-6.3c-1.3 0-2.4 1.1-2.4 2.4 0 1.3 1.1 2.4 2.4 2.4h6.3v6.3c0 1.3 1.1 2.4 2.4 2.4s2.4-1.1 2.4-2.4v-6.3h6.3c1.3 0 2.4-1.1 2.4-2.4 0-1.3-1.1-2.4-2.4-2.4ZM186.5 575.4h-6.3v-6.3c0-1.3-1.1-2.4-2.4-2.4s-2.4 1.1-2.4 2.4v6.3h-6.3c-1.3 0-2.4 1.1-2.4 2.4 0 1.3 1.1 2.4 2.4 2.4h6.3v6.3c0 1.3 1.1 2.4 2.4 2.4s2.4-1.1 2.4-2.4v-6.3h6.3c1.3 0 2.4-1.1 2.4-2.4 0-1.3-1.1-2.4-2.4-2.4ZM186.5 708.7h-6.3v-6.3c0-1.3-1.1-2.4-2.4-2.4s-2.4 1.1-2.4 2.4v6.3h-6.3c-1.3 0-2.4 1.1-2.4 2.4 0 1.3 1.1 2.4 2.4 2.4h6.3v6.3c0 1.3 1.1 2.4 2.4 2.4s2.4-1.1 2.4-2.4v-6.3h6.3c1.3 0 2.4-1.1 2.4-2.4 0-1.3-1.1-2.4-2.4-2.4ZM142 219.8h-6.3v-6.3c0-1.3-1.1-2.4-2.4-2.4-1.3 0-2.4 1.1-2.4 2.4v6.3h-6.3c-1.3 0-2.4 1.1-2.4 2.4s1.1 2.4 2.4 2.4h6.3v6.3c0 1.3 1.1 2.4 2.4 2.4 1.3 0 2.4-1.1 2.4-2.4v-6.3h6.3c1.3 0 2.4-1.1 2.4-2.4s-1.1-2.4-2.4-2.4ZM142 264.3h-6.3V258c0-1.3-1.1-2.4-2.4-2.4-1.3 0-2.4 1.1-2.4 2.4v6.3h-6.3c-1.3 0-2.4 1.1-2.4 2.4s1.1 2.4 2.4 2.4h6.3v6.3c0 1.3 1.1 2.4 2.4 2.4 1.3 0 2.4-1.1 2.4-2.4v-6.3h6.3c1.3 0 2.4-1.1 2.4-2.4s-1.1-2.4-2.4-2.4ZM122.2 266.7zM144.4 266.7zM142 175.4h-6.3v-6.3c0-1.3-1.1-2.4-2.4-2.4-1.3 0-2.4 1.1-2.4 2.4v6.3h-6.3c-1.3 0-2.4 1.1-2.4 2.4s1.1 2.4 2.4 2.4h6.3v6.3c0 1.3 1.1 2.4 2.4 2.4 1.3 0 2.4-1.1 2.4-2.4v-6.3h6.3c1.3 0 2.4-1.1 2.4-2.4s-1.1-2.4-2.4-2.4ZM142 86.5h-6.3v-6.3c0-1.3-1.1-2.4-2.4-2.4-1.3 0-2.4 1.1-2.4 2.4v6.3h-6.3c-1.3 0-2.4 1.1-2.4 2.4s1.1 2.4 2.4 2.4h6.3v6.3c0 1.3 1.1 2.4 2.4 2.4 1.3 0 2.4-1.1 2.4-2.4v-6.3h6.3c1.3 0 2.4-1.1 2.4-2.4s-1.1-2.4-2.4-2.4ZM142 42h-6.3v-6.3c0-1.3-1.1-2.4-2.4-2.4-1.3 0-2.4 1.1-2.4 2.4V42h-6.3c-1.3 0-2.4 1.1-2.4 2.4s1.1 2.4 2.4 2.4h6.3v6.3c0 1.3 1.1 2.4 2.4 2.4 1.3 0 2.4-1.1 2.4-2.4v-6.3h6.3c1.3 0 2.4-1.1 2.4-2.4S143.3 42 142 42ZM186.5 486.5h-6.3v-6.3c0-1.3-1.1-2.4-2.4-2.4s-2.4 1.1-2.4 2.4v6.3h-6.3c-1.3 0-2.4 1.1-2.4 2.4s1.1 2.4 2.4 2.4h6.3v6.3c0 1.3 1.1 2.4 2.4 2.4s2.4-1.1 2.4-2.4v-6.3h6.3c1.3 0 2.4-1.1 2.4-2.4s-1.1-2.4-2.4-2.4ZM186.5 308.7h-6.3v-6.3c0-1.3-1.1-2.4-2.4-2.4s-2.4 1.1-2.4 2.4v6.3h-6.3c-1.3 0-2.4 1.1-2.4 2.4s1.1 2.4 2.4 2.4h6.3v6.3c0 1.3 1.1 2.4 2.4 2.4s2.4-1.1 2.4-2.4v-6.3h6.3c1.3 0 2.4-1.1 2.4-2.4s-1.1-2.4-2.4-2.4ZM630.9 353.2h-6.3v-6.3c0-1.3-1.1-2.4-2.4-2.4-1.3 0-2.4 1.1-2.4 2.4v6.3h-6.3c-1.3 0-2.4 1.1-2.4 2.4s1.1 2.4 2.4 2.4h6.3v6.3c0 1.3 1.1 2.4 2.4 2.4 1.3 0 2.4-1.1 2.4-2.4V358h6.3c1.3 0 2.4-1.1 2.4-2.4s-1.1-2.4-2.4-2.4ZM630.9 42h-6.3v-6.3c0-1.3-1.1-2.4-2.4-2.4-1.3 0-2.4 1.1-2.4 2.4V42h-6.3c-1.3 0-2.4 1.1-2.4 2.4s1.1 2.4 2.4 2.4h6.3v6.3c0 1.3 1.1 2.4 2.4 2.4 1.3 0 2.4-1.1 2.4-2.4v-6.3h6.3c1.3 0 2.4-1.1 2.4-2.4s-1.1-2.4-2.4-2.4ZM364.3 86.5H358v-6.3c0-1.3-1.1-2.4-2.4-2.4s-2.4 1.1-2.4 2.4v6.3h-6.3c-1.3 0-2.4 1.1-2.4 2.4s1.1 2.4 2.4 2.4h6.3v6.3c0 1.3 1.1 2.4 2.4 2.4s2.4-1.1 2.4-2.4v-6.3h6.3c1.3 0 2.4-1.1 2.4-2.4s-1.1-2.4-2.4-2.4ZM630.9-2.4h-6.3v-6.3c0-1.3-1.1-2.4-2.4-2.4-1.3 0-2.4 1.1-2.4 2.4v6.3h-6.3c-1.3 0-2.4 1.1-2.4 2.4s1.1 2.4 2.4 2.4h6.3v6.3c0 1.3 1.1 2.4 2.4 2.4 1.3 0 2.4-1.1 2.4-2.4V2.4h6.3c1.3 0 2.4-1.1 2.4-2.4s-1.1-2.4-2.4-2.4ZM675.4 753.2h-6.3v-6.3c0-1.3-1.1-2.4-2.4-2.4-1.3 0-2.4 1.1-2.4 2.4v6.3H658c-1.3 0-2.4 1.1-2.4 2.4 0 1.3 1.1 2.4 2.4 2.4h6.3v6.3c0 1.3 1.1 2.4 2.4 2.4 1.3 0 2.4-1.1 2.4-2.4V758h6.3c1.3 0 2.4-1.1 2.4-2.4 0-1.3-1.1-2.4-2.4-2.4ZM675.4 530.9h-6.3v-6.3c0-1.3-1.1-2.4-2.4-2.4-1.3 0-2.4 1.1-2.4 2.4v6.3H658c-1.3 0-2.4 1.1-2.4 2.4 0 1.3 1.1 2.4 2.4 2.4h6.3v6.3c0 1.3 1.1 2.4 2.4 2.4 1.3 0 2.4-1.1 2.4-2.4v-6.3h6.3c1.3 0 2.4-1.1 2.4-2.4 0-1.3-1.1-2.4-2.4-2.4ZM675.4 575.4h-6.3v-6.3c0-1.3-1.1-2.4-2.4-2.4-1.3 0-2.4 1.1-2.4 2.4v6.3H658c-1.3 0-2.4 1.1-2.4 2.4 0 1.3 1.1 2.4 2.4 2.4h6.3v6.3c0 1.3 1.1 2.4 2.4 2.4 1.3 0 2.4-1.1 2.4-2.4v-6.3h6.3c1.3 0 2.4-1.1 2.4-2.4 0-1.3-1.1-2.4-2.4-2.4ZM675.4 619.8h-6.3v-6.3c0-1.3-1.1-2.4-2.4-2.4-1.3 0-2.4 1.1-2.4 2.4v6.3H658c-1.3 0-2.4 1.1-2.4 2.4 0 1.3 1.1 2.4 2.4 2.4h6.3v6.3c0 1.3 1.1 2.4 2.4 2.4 1.3 0 2.4-1.1 2.4-2.4v-6.3h6.3c1.3 0 2.4-1.1 2.4-2.4 0-1.3-1.1-2.4-2.4-2.4ZM675.4 486.5h-6.3v-6.3c0-1.3-1.1-2.4-2.4-2.4-1.3 0-2.4 1.1-2.4 2.4v6.3H658c-1.3 0-2.4 1.1-2.4 2.4s1.1 2.4 2.4 2.4h6.3v6.3c0 1.3 1.1 2.4 2.4 2.4 1.3 0 2.4-1.1 2.4-2.4v-6.3h6.3c1.3 0 2.4-1.1 2.4-2.4s-1.1-2.4-2.4-2.4ZM675.4 664.3h-6.3V658c0-1.3-1.1-2.4-2.4-2.4-1.3 0-2.4 1.1-2.4 2.4v6.3H658c-1.3 0-2.4 1.1-2.4 2.4 0 1.3 1.1 2.4 2.4 2.4h6.3v6.3c0 1.3 1.1 2.4 2.4 2.4 1.3 0 2.4-1.1 2.4-2.4v-6.3h6.3c1.3 0 2.4-1.1 2.4-2.4 0-1.3-1.1-2.4-2.4-2.4ZM630.9 86.5h-6.3v-6.3c0-1.3-1.1-2.4-2.4-2.4-1.3 0-2.4 1.1-2.4 2.4v6.3h-6.3c-1.3 0-2.4 1.1-2.4 2.4s1.1 2.4 2.4 2.4h6.3v6.3c0 1.3 1.1 2.4 2.4 2.4 1.3 0 2.4-1.1 2.4-2.4v-6.3h6.3c1.3 0 2.4-1.1 2.4-2.4s-1.1-2.4-2.4-2.4ZM611.1 266.7zM630.9 264.3h-6.3V258c0-1.3-1.1-2.4-2.4-2.4-1.3 0-2.4 1.1-2.4 2.4v6.3h-6.3c-1.3 0-2.4 1.1-2.4 2.4s1.1 2.4 2.4 2.4h6.3v6.3c0 1.3 1.1 2.4 2.4 2.4 1.3 0 2.4-1.1 2.4-2.4v-6.3h6.3c1.3 0 2.4-1.1 2.4-2.4s-1.1-2.4-2.4-2.4ZM630.9 308.7h-6.3v-6.3c0-1.3-1.1-2.4-2.4-2.4-1.3 0-2.4 1.1-2.4 2.4v6.3h-6.3c-1.3 0-2.4 1.1-2.4 2.4s1.1 2.4 2.4 2.4h6.3v6.3c0 1.3 1.1 2.4 2.4 2.4 1.3 0 2.4-1.1 2.4-2.4v-6.3h6.3c1.3 0 2.4-1.1 2.4-2.4s-1.1-2.4-2.4-2.4ZM633.3 266.7zM630.9 219.8h-6.3v-6.3c0-1.3-1.1-2.4-2.4-2.4-1.3 0-2.4 1.1-2.4 2.4v6.3h-6.3c-1.3 0-2.4 1.1-2.4 2.4s1.1 2.4 2.4 2.4h6.3v6.3c0 1.3 1.1 2.4 2.4 2.4 1.3 0 2.4-1.1 2.4-2.4v-6.3h6.3c1.3 0 2.4-1.1 2.4-2.4s-1.1-2.4-2.4-2.4ZM630.9 130.9h-6.3v-6.3c0-1.3-1.1-2.4-2.4-2.4-1.3 0-2.4 1.1-2.4 2.4v6.3h-6.3c-1.3 0-2.4 1.1-2.4 2.4s1.1 2.4 2.4 2.4h6.3v6.3c0 1.3 1.1 2.4 2.4 2.4 1.3 0 2.4-1.1 2.4-2.4v-6.3h6.3c1.3 0 2.4-1.1 2.4-2.4s-1.1-2.4-2.4-2.4ZM630.9 175.4h-6.3v-6.3c0-1.3-1.1-2.4-2.4-2.4-1.3 0-2.4 1.1-2.4 2.4v6.3h-6.3c-1.3 0-2.4 1.1-2.4 2.4s1.1 2.4 2.4 2.4h6.3v6.3c0 1.3 1.1 2.4 2.4 2.4 1.3 0 2.4-1.1 2.4-2.4v-6.3h6.3c1.3 0 2.4-1.1 2.4-2.4s-1.1-2.4-2.4-2.4ZM675.4 708.7h-6.3v-6.3c0-1.3-1.1-2.4-2.4-2.4-1.3 0-2.4 1.1-2.4 2.4v6.3H658c-1.3 0-2.4 1.1-2.4 2.4 0 1.3 1.1 2.4 2.4 2.4h6.3v6.3c0 1.3 1.1 2.4 2.4 2.4 1.3 0 2.4-1.1 2.4-2.4v-6.3h6.3c1.3 0 2.4-1.1 2.4-2.4 0-1.3-1.1-2.4-2.4-2.4ZM655.6 266.7zM675.4 219.8h-6.3v-6.3c0-1.3-1.1-2.4-2.4-2.4-1.3 0-2.4 1.1-2.4 2.4v6.3H658c-1.3 0-2.4 1.1-2.4 2.4s1.1 2.4 2.4 2.4h6.3v6.3c0 1.3 1.1 2.4 2.4 2.4 1.3 0 2.4-1.1 2.4-2.4v-6.3h6.3c1.3 0 2.4-1.1 2.4-2.4s-1.1-2.4-2.4-2.4ZM677.8 444.4zM675.4 130.9h-6.3v-6.3c0-1.3-1.1-2.4-2.4-2.4-1.3 0-2.4 1.1-2.4 2.4v6.3H658c-1.3 0-2.4 1.1-2.4 2.4s1.1 2.4 2.4 2.4h6.3v6.3c0 1.3 1.1 2.4 2.4 2.4 1.3 0 2.4-1.1 2.4-2.4v-6.3h6.3c1.3 0 2.4-1.1 2.4-2.4s-1.1-2.4-2.4-2.4ZM675.4 175.4h-6.3v-6.3c0-1.3-1.1-2.4-2.4-2.4-1.3 0-2.4 1.1-2.4 2.4v6.3H658c-1.3 0-2.4 1.1-2.4 2.4s1.1 2.4 2.4 2.4h6.3v6.3c0 1.3 1.1 2.4 2.4 2.4 1.3 0 2.4-1.1 2.4-2.4v-6.3h6.3c1.3 0 2.4-1.1 2.4-2.4s-1.1-2.4-2.4-2.4ZM675.4-2.4h-6.3v-6.3c0-1.3-1.1-2.4-2.4-2.4-1.3 0-2.4 1.1-2.4 2.4v6.3H658c-1.3 0-2.4 1.1-2.4 2.4s1.1 2.4 2.4 2.4h6.3v6.3c0 1.3 1.1 2.4 2.4 2.4 1.3 0 2.4-1.1 2.4-2.4V2.4h6.3c1.3 0 2.4-1.1 2.4-2.4s-1.1-2.4-2.4-2.4ZM675.4 42h-6.3v-6.3c0-1.3-1.1-2.4-2.4-2.4-1.3 0-2.4 1.1-2.4 2.4V42H658c-1.3 0-2.4 1.1-2.4 2.4s1.1 2.4 2.4 2.4h6.3v6.3c0 1.3 1.1 2.4 2.4 2.4 1.3 0 2.4-1.1 2.4-2.4v-6.3h6.3c1.3 0 2.4-1.1 2.4-2.4s-1.1-2.4-2.4-2.4ZM675.4 86.5h-6.3v-6.3c0-1.3-1.1-2.4-2.4-2.4-1.3 0-2.4 1.1-2.4 2.4v6.3H658c-1.3 0-2.4 1.1-2.4 2.4s1.1 2.4 2.4 2.4h6.3v6.3c0 1.3 1.1 2.4 2.4 2.4 1.3 0 2.4-1.1 2.4-2.4v-6.3h6.3c1.3 0 2.4-1.1 2.4-2.4s-1.1-2.4-2.4-2.4ZM675.4 264.3h-6.3V258c0-1.3-1.1-2.4-2.4-2.4-1.3 0-2.4 1.1-2.4 2.4v6.3H658c-1.3 0-2.4 1.1-2.4 2.4s1.1 2.4 2.4 2.4h6.3v6.3c0 1.3 1.1 2.4 2.4 2.4 1.3 0 2.4-1.1 2.4-2.4v-6.3h6.3c1.3 0 2.4-1.1 2.4-2.4s-1.1-2.4-2.4-2.4ZM677.8 400zM655.6 400zM675.4 442h-6.3v-6.3c0-1.3-1.1-2.4-2.4-2.4-1.3 0-2.4 1.1-2.4 2.4v6.3H658c-1.3 0-2.4 1.1-2.4 2.4s1.1 2.4 2.4 2.4h6.3v6.3c0 1.3 1.1 2.4 2.4 2.4 1.3 0 2.4-1.1 2.4-2.4v-6.3h6.3c1.3 0 2.4-1.1 2.4-2.4s-1.1-2.4-2.4-2.4ZM655.6 444.4zM677.8 266.7zM675.4 397.6h-6.3v-6.3c0-1.3-1.1-2.4-2.4-2.4-1.3 0-2.4 1.1-2.4 2.4v6.3H658c-1.3 0-2.4 1.1-2.4 2.4s1.1 2.4 2.4 2.4h6.3v6.3c0 1.3 1.1 2.4 2.4 2.4 1.3 0 2.4-1.1 2.4-2.4v-6.3h6.3c1.3 0 2.4-1.1 2.4-2.4s-1.1-2.4-2.4-2.4ZM675.4 308.7h-6.3v-6.3c0-1.3-1.1-2.4-2.4-2.4-1.3 0-2.4 1.1-2.4 2.4v6.3H658c-1.3 0-2.4 1.1-2.4 2.4s1.1 2.4 2.4 2.4h6.3v6.3c0 1.3 1.1 2.4 2.4 2.4 1.3 0 2.4-1.1 2.4-2.4v-6.3h6.3c1.3 0 2.4-1.1 2.4-2.4s-1.1-2.4-2.4-2.4ZM675.4 353.2h-6.3v-6.3c0-1.3-1.1-2.4-2.4-2.4-1.3 0-2.4 1.1-2.4 2.4v6.3H658c-1.3 0-2.4 1.1-2.4 2.4s1.1 2.4 2.4 2.4h6.3v6.3c0 1.3 1.1 2.4 2.4 2.4 1.3 0 2.4-1.1 2.4-2.4V358h6.3c1.3 0 2.4-1.1 2.4-2.4s-1.1-2.4-2.4-2.4ZM586.5 397.6h-6.3v-6.3c0-1.3-1.1-2.4-2.4-2.4-1.3 0-2.4 1.1-2.4 2.4v6.3h-6.3c-1.3 0-2.4 1.1-2.4 2.4s1.1 2.4 2.4 2.4h6.3v6.3c0 1.3 1.1 2.4 2.4 2.4 1.3 0 2.4-1.1 2.4-2.4v-6.3h6.3c1.3 0 2.4-1.1 2.4-2.4s-1.1-2.4-2.4-2.4ZM719.8 797.6h-6.3v-6.3c0-1.3-1.1-2.4-2.4-2.4-1.3 0-2.4 1.1-2.4 2.4v6.3h-6.3c-1.3 0-2.4 1.1-2.4 2.4 0 1.3 1.1 2.4 2.4 2.4h6.3v6.3c0 1.3 1.1 2.4 2.4 2.4 1.3 0 2.4-1.1 2.4-2.4v-6.3h6.3c1.3 0 2.4-1.1 2.4-2.4 0-1.3-1.1-2.4-2.4-2.4ZM586.5 353.2h-6.3v-6.3c0-1.3-1.1-2.4-2.4-2.4-1.3 0-2.4 1.1-2.4 2.4v6.3h-6.3c-1.3 0-2.4 1.1-2.4 2.4s1.1 2.4 2.4 2.4h6.3v6.3c0 1.3 1.1 2.4 2.4 2.4 1.3 0 2.4-1.1 2.4-2.4V358h6.3c1.3 0 2.4-1.1 2.4-2.4s-1.1-2.4-2.4-2.4ZM586.5 308.7h-6.3v-6.3c0-1.3-1.1-2.4-2.4-2.4-1.3 0-2.4 1.1-2.4 2.4v6.3h-6.3c-1.3 0-2.4 1.1-2.4 2.4s1.1 2.4 2.4 2.4h6.3v6.3c0 1.3 1.1 2.4 2.4 2.4 1.3 0 2.4-1.1 2.4-2.4v-6.3h6.3c1.3 0 2.4-1.1 2.4-2.4s-1.1-2.4-2.4-2.4ZM566.7 400zM586.5 264.3h-6.3V258c0-1.3-1.1-2.4-2.4-2.4-1.3 0-2.4 1.1-2.4 2.4v6.3h-6.3c-1.3 0-2.4 1.1-2.4 2.4s1.1 2.4 2.4 2.4h6.3v6.3c0 1.3 1.1 2.4 2.4 2.4 1.3 0 2.4-1.1 2.4-2.4v-6.3h6.3c1.3 0 2.4-1.1 2.4-2.4s-1.1-2.4-2.4-2.4ZM588.9 400zM588.9 266.7zM586.5 219.8h-6.3v-6.3c0-1.3-1.1-2.4-2.4-2.4-1.3 0-2.4 1.1-2.4 2.4v6.3h-6.3c-1.3 0-2.4 1.1-2.4 2.4s1.1 2.4 2.4 2.4h6.3v6.3c0 1.3 1.1 2.4 2.4 2.4 1.3 0 2.4-1.1 2.4-2.4v-6.3h6.3c1.3 0 2.4-1.1 2.4-2.4s-1.1-2.4-2.4-2.4ZM566.7 266.7zM586.5 575.4h-6.3v-6.3c0-1.3-1.1-2.4-2.4-2.4-1.3 0-2.4 1.1-2.4 2.4v6.3h-6.3c-1.3 0-2.4 1.1-2.4 2.4 0 1.3 1.1 2.4 2.4 2.4h6.3v6.3c0 1.3 1.1 2.4 2.4 2.4 1.3 0 2.4-1.1 2.4-2.4v-6.3h6.3c1.3 0 2.4-1.1 2.4-2.4 0-1.3-1.1-2.4-2.4-2.4ZM586.5 619.8h-6.3v-6.3c0-1.3-1.1-2.4-2.4-2.4-1.3 0-2.4 1.1-2.4 2.4v6.3h-6.3c-1.3 0-2.4 1.1-2.4 2.4 0 1.3 1.1 2.4 2.4 2.4h6.3v6.3c0 1.3 1.1 2.4 2.4 2.4 1.3 0 2.4-1.1 2.4-2.4v-6.3h6.3c1.3 0 2.4-1.1 2.4-2.4 0-1.3-1.1-2.4-2.4-2.4ZM586.5 175.4h-6.3v-6.3c0-1.3-1.1-2.4-2.4-2.4-1.3 0-2.4 1.1-2.4 2.4v6.3h-6.3c-1.3 0-2.4 1.1-2.4 2.4s1.1 2.4 2.4 2.4h6.3v6.3c0 1.3 1.1 2.4 2.4 2.4 1.3 0 2.4-1.1 2.4-2.4v-6.3h6.3c1.3 0 2.4-1.1 2.4-2.4s-1.1-2.4-2.4-2.4ZM586.5 530.9h-6.3v-6.3c0-1.3-1.1-2.4-2.4-2.4-1.3 0-2.4 1.1-2.4 2.4v6.3h-6.3c-1.3 0-2.4 1.1-2.4 2.4 0 1.3 1.1 2.4 2.4 2.4h6.3v6.3c0 1.3 1.1 2.4 2.4 2.4 1.3 0 2.4-1.1 2.4-2.4v-6.3h6.3c1.3 0 2.4-1.1 2.4-2.4 0-1.3-1.1-2.4-2.4-2.4ZM586.5 664.3h-6.3V658c0-1.3-1.1-2.4-2.4-2.4-1.3 0-2.4 1.1-2.4 2.4v6.3h-6.3c-1.3 0-2.4 1.1-2.4 2.4 0 1.3 1.1 2.4 2.4 2.4h6.3v6.3c0 1.3 1.1 2.4 2.4 2.4 1.3 0 2.4-1.1 2.4-2.4v-6.3h6.3c1.3 0 2.4-1.1 2.4-2.4 0-1.3-1.1-2.4-2.4-2.4ZM586.5 486.5h-6.3v-6.3c0-1.3-1.1-2.4-2.4-2.4-1.3 0-2.4 1.1-2.4 2.4v6.3h-6.3c-1.3 0-2.4 1.1-2.4 2.4s1.1 2.4 2.4 2.4h6.3v6.3c0 1.3 1.1 2.4 2.4 2.4 1.3 0 2.4-1.1 2.4-2.4v-6.3h6.3c1.3 0 2.4-1.1 2.4-2.4s-1.1-2.4-2.4-2.4ZM586.5 442h-6.3v-6.3c0-1.3-1.1-2.4-2.4-2.4-1.3 0-2.4 1.1-2.4 2.4v6.3h-6.3c-1.3 0-2.4 1.1-2.4 2.4s1.1 2.4 2.4 2.4h6.3v6.3c0 1.3 1.1 2.4 2.4 2.4 1.3 0 2.4-1.1 2.4-2.4v-6.3h6.3c1.3 0 2.4-1.1 2.4-2.4s-1.1-2.4-2.4-2.4ZM566.7 444.4zM588.9 444.4zM630.9 664.3h-6.3V658c0-1.3-1.1-2.4-2.4-2.4-1.3 0-2.4 1.1-2.4 2.4v6.3h-6.3c-1.3 0-2.4 1.1-2.4 2.4 0 1.3 1.1 2.4 2.4 2.4h6.3v6.3c0 1.3 1.1 2.4 2.4 2.4 1.3 0 2.4-1.1 2.4-2.4v-6.3h6.3c1.3 0 2.4-1.1 2.4-2.4 0-1.3-1.1-2.4-2.4-2.4ZM633.3 444.4zM630.9 575.4h-6.3v-6.3c0-1.3-1.1-2.4-2.4-2.4-1.3 0-2.4 1.1-2.4 2.4v6.3h-6.3c-1.3 0-2.4 1.1-2.4 2.4 0 1.3 1.1 2.4 2.4 2.4h6.3v6.3c0 1.3 1.1 2.4 2.4 2.4 1.3 0 2.4-1.1 2.4-2.4v-6.3h6.3c1.3 0 2.4-1.1 2.4-2.4 0-1.3-1.1-2.4-2.4-2.4ZM611.1 444.4zM630.9 530.9h-6.3v-6.3c0-1.3-1.1-2.4-2.4-2.4-1.3 0-2.4 1.1-2.4 2.4v6.3h-6.3c-1.3 0-2.4 1.1-2.4 2.4 0 1.3 1.1 2.4 2.4 2.4h6.3v6.3c0 1.3 1.1 2.4 2.4 2.4 1.3 0 2.4-1.1 2.4-2.4v-6.3h6.3c1.3 0 2.4-1.1 2.4-2.4 0-1.3-1.1-2.4-2.4-2.4ZM630.9 486.5h-6.3v-6.3c0-1.3-1.1-2.4-2.4-2.4-1.3 0-2.4 1.1-2.4 2.4v6.3h-6.3c-1.3 0-2.4 1.1-2.4 2.4s1.1 2.4 2.4 2.4h6.3v6.3c0 1.3 1.1 2.4 2.4 2.4 1.3 0 2.4-1.1 2.4-2.4v-6.3h6.3c1.3 0 2.4-1.1 2.4-2.4s-1.1-2.4-2.4-2.4ZM611.1 400zM630.9 442h-6.3v-6.3c0-1.3-1.1-2.4-2.4-2.4-1.3 0-2.4 1.1-2.4 2.4v6.3h-6.3c-1.3 0-2.4 1.1-2.4 2.4s1.1 2.4 2.4 2.4h6.3v6.3c0 1.3 1.1 2.4 2.4 2.4 1.3 0 2.4-1.1 2.4-2.4v-6.3h6.3c1.3 0 2.4-1.1 2.4-2.4s-1.1-2.4-2.4-2.4ZM633.3 400zM586.5 42h-6.3v-6.3c0-1.3-1.1-2.4-2.4-2.4-1.3 0-2.4 1.1-2.4 2.4V42h-6.3c-1.3 0-2.4 1.1-2.4 2.4s1.1 2.4 2.4 2.4h6.3v6.3c0 1.3 1.1 2.4 2.4 2.4 1.3 0 2.4-1.1 2.4-2.4v-6.3h6.3c1.3 0 2.4-1.1 2.4-2.4s-1.1-2.4-2.4-2.4ZM630.9 797.6h-6.3v-6.3c0-1.3-1.1-2.4-2.4-2.4-1.3 0-2.4 1.1-2.4 2.4v6.3h-6.3c-1.3 0-2.4 1.1-2.4 2.4 0 1.3 1.1 2.4 2.4 2.4h6.3v6.3c0 1.3 1.1 2.4 2.4 2.4 1.3 0 2.4-1.1 2.4-2.4v-6.3h6.3c1.3 0 2.4-1.1 2.4-2.4 0-1.3-1.1-2.4-2.4-2.4ZM586.5-2.4h-6.3v-6.3c0-1.3-1.1-2.4-2.4-2.4-1.3 0-2.4 1.1-2.4 2.4v6.3h-6.3c-1.3 0-2.4 1.1-2.4 2.4s1.1 2.4 2.4 2.4h6.3v6.3c0 1.3 1.1 2.4 2.4 2.4 1.3 0 2.4-1.1 2.4-2.4V2.4h6.3c1.3 0 2.4-1.1 2.4-2.4s-1.1-2.4-2.4-2.4ZM586.5 130.9h-6.3v-6.3c0-1.3-1.1-2.4-2.4-2.4-1.3 0-2.4 1.1-2.4 2.4v6.3h-6.3c-1.3 0-2.4 1.1-2.4 2.4s1.1 2.4 2.4 2.4h6.3v6.3c0 1.3 1.1 2.4 2.4 2.4 1.3 0 2.4-1.1 2.4-2.4v-6.3h6.3c1.3 0 2.4-1.1 2.4-2.4s-1.1-2.4-2.4-2.4ZM630.9 619.8h-6.3v-6.3c0-1.3-1.1-2.4-2.4-2.4-1.3 0-2.4 1.1-2.4 2.4v6.3h-6.3c-1.3 0-2.4 1.1-2.4 2.4 0 1.3 1.1 2.4 2.4 2.4h6.3v6.3c0 1.3 1.1 2.4 2.4 2.4 1.3 0 2.4-1.1 2.4-2.4v-6.3h6.3c1.3 0 2.4-1.1 2.4-2.4 0-1.3-1.1-2.4-2.4-2.4ZM586.5 86.5h-6.3v-6.3c0-1.3-1.1-2.4-2.4-2.4-1.3 0-2.4 1.1-2.4 2.4v6.3h-6.3c-1.3 0-2.4 1.1-2.4 2.4s1.1 2.4 2.4 2.4h6.3v6.3c0 1.3 1.1 2.4 2.4 2.4 1.3 0 2.4-1.1 2.4-2.4v-6.3h6.3c1.3 0 2.4-1.1 2.4-2.4s-1.1-2.4-2.4-2.4ZM630.9 397.6h-6.3v-6.3c0-1.3-1.1-2.4-2.4-2.4-1.3 0-2.4 1.1-2.4 2.4v6.3h-6.3c-1.3 0-2.4 1.1-2.4 2.4s1.1 2.4 2.4 2.4h6.3v6.3c0 1.3 1.1 2.4 2.4 2.4 1.3 0 2.4-1.1 2.4-2.4v-6.3h6.3c1.3 0 2.4-1.1 2.4-2.4s-1.1-2.4-2.4-2.4ZM630.9 753.2h-6.3v-6.3c0-1.3-1.1-2.4-2.4-2.4-1.3 0-2.4 1.1-2.4 2.4v6.3h-6.3c-1.3 0-2.4 1.1-2.4 2.4 0 1.3 1.1 2.4 2.4 2.4h6.3v6.3c0 1.3 1.1 2.4 2.4 2.4 1.3 0 2.4-1.1 2.4-2.4V758h6.3c1.3 0 2.4-1.1 2.4-2.4 0-1.3-1.1-2.4-2.4-2.4ZM630.9 708.7h-6.3v-6.3c0-1.3-1.1-2.4-2.4-2.4-1.3 0-2.4 1.1-2.4 2.4v6.3h-6.3c-1.3 0-2.4 1.1-2.4 2.4 0 1.3 1.1 2.4 2.4 2.4h6.3v6.3c0 1.3 1.1 2.4 2.4 2.4 1.3 0 2.4-1.1 2.4-2.4v-6.3h6.3c1.3 0 2.4-1.1 2.4-2.4 0-1.3-1.1-2.4-2.4-2.4ZM719.8 530.9h-6.3v-6.3c0-1.3-1.1-2.4-2.4-2.4-1.3 0-2.4 1.1-2.4 2.4v6.3h-6.3c-1.3 0-2.4 1.1-2.4 2.4 0 1.3 1.1 2.4 2.4 2.4h6.3v6.3c0 1.3 1.1 2.4 2.4 2.4 1.3 0 2.4-1.1 2.4-2.4v-6.3h6.3c1.3 0 2.4-1.1 2.4-2.4 0-1.3-1.1-2.4-2.4-2.4ZM764.3-2.4H758v-6.3c0-1.3-1.1-2.4-2.4-2.4-1.3 0-2.4 1.1-2.4 2.4v6.3h-6.3c-1.3 0-2.4 1.1-2.4 2.4s1.1 2.4 2.4 2.4h6.3v6.3c0 1.3 1.1 2.4 2.4 2.4 1.3 0 2.4-1.1 2.4-2.4V2.4h6.3c1.3 0 2.4-1.1 2.4-2.4s-1.1-2.4-2.4-2.4ZM764.3 397.6H758v-6.3c0-1.3-1.1-2.4-2.4-2.4-1.3 0-2.4 1.1-2.4 2.4v6.3h-6.3c-1.3 0-2.4 1.1-2.4 2.4s1.1 2.4 2.4 2.4h6.3v6.3c0 1.3 1.1 2.4 2.4 2.4 1.3 0 2.4-1.1 2.4-2.4v-6.3h6.3c1.3 0 2.4-1.1 2.4-2.4s-1.1-2.4-2.4-2.4ZM764.3 42H758v-6.3c0-1.3-1.1-2.4-2.4-2.4-1.3 0-2.4 1.1-2.4 2.4V42h-6.3c-1.3 0-2.4 1.1-2.4 2.4s1.1 2.4 2.4 2.4h6.3v6.3c0 1.3 1.1 2.4 2.4 2.4 1.3 0 2.4-1.1 2.4-2.4v-6.3h6.3c1.3 0 2.4-1.1 2.4-2.4s-1.1-2.4-2.4-2.4ZM808.7 753.2h-6.3v-6.3c0-1.3-1.1-2.4-2.4-2.4-1.3 0-2.4 1.1-2.4 2.4v6.3h-6.3c-1.3 0-2.4 1.1-2.4 2.4 0 1.3 1.1 2.4 2.4 2.4h6.3v6.3c0 1.3 1.1 2.4 2.4 2.4 1.3 0 2.4-1.1 2.4-2.4V758h6.3c1.3 0 2.4-1.1 2.4-2.4 0-1.3-1.1-2.4-2.4-2.4ZM764.3 86.5H758v-6.3c0-1.3-1.1-2.4-2.4-2.4-1.3 0-2.4 1.1-2.4 2.4v6.3h-6.3c-1.3 0-2.4 1.1-2.4 2.4s1.1 2.4 2.4 2.4h6.3v6.3c0 1.3 1.1 2.4 2.4 2.4 1.3 0 2.4-1.1 2.4-2.4v-6.3h6.3c1.3 0 2.4-1.1 2.4-2.4s-1.1-2.4-2.4-2.4ZM808.7 575.4h-6.3v-6.3c0-1.3-1.1-2.4-2.4-2.4-1.3 0-2.4 1.1-2.4 2.4v6.3h-6.3c-1.3 0-2.4 1.1-2.4 2.4 0 1.3 1.1 2.4 2.4 2.4h6.3v6.3c0 1.3 1.1 2.4 2.4 2.4 1.3 0 2.4-1.1 2.4-2.4v-6.3h6.3c1.3 0 2.4-1.1 2.4-2.4 0-1.3-1.1-2.4-2.4-2.4ZM808.7 619.8h-6.3v-6.3c0-1.3-1.1-2.4-2.4-2.4-1.3 0-2.4 1.1-2.4 2.4v6.3h-6.3c-1.3 0-2.4 1.1-2.4 2.4 0 1.3 1.1 2.4 2.4 2.4h6.3v6.3c0 1.3 1.1 2.4 2.4 2.4 1.3 0 2.4-1.1 2.4-2.4v-6.3h6.3c1.3 0 2.4-1.1 2.4-2.4 0-1.3-1.1-2.4-2.4-2.4ZM808.7 664.3h-6.3V658c0-1.3-1.1-2.4-2.4-2.4-1.3 0-2.4 1.1-2.4 2.4v6.3h-6.3c-1.3 0-2.4 1.1-2.4 2.4 0 1.3 1.1 2.4 2.4 2.4h6.3v6.3c0 1.3 1.1 2.4 2.4 2.4 1.3 0 2.4-1.1 2.4-2.4v-6.3h6.3c1.3 0 2.4-1.1 2.4-2.4 0-1.3-1.1-2.4-2.4-2.4ZM808.7 708.7h-6.3v-6.3c0-1.3-1.1-2.4-2.4-2.4-1.3 0-2.4 1.1-2.4 2.4v6.3h-6.3c-1.3 0-2.4 1.1-2.4 2.4 0 1.3 1.1 2.4 2.4 2.4h6.3v6.3c0 1.3 1.1 2.4 2.4 2.4 1.3 0 2.4-1.1 2.4-2.4v-6.3h6.3c1.3 0 2.4-1.1 2.4-2.4 0-1.3-1.1-2.4-2.4-2.4ZM764.3 219.8H758v-6.3c0-1.3-1.1-2.4-2.4-2.4-1.3 0-2.4 1.1-2.4 2.4v6.3h-6.3c-1.3 0-2.4 1.1-2.4 2.4s1.1 2.4 2.4 2.4h6.3v6.3c0 1.3 1.1 2.4 2.4 2.4 1.3 0 2.4-1.1 2.4-2.4v-6.3h6.3c1.3 0 2.4-1.1 2.4-2.4s-1.1-2.4-2.4-2.4ZM766.7 266.7zM764.3 308.7H758v-6.3c0-1.3-1.1-2.4-2.4-2.4-1.3 0-2.4 1.1-2.4 2.4v6.3h-6.3c-1.3 0-2.4 1.1-2.4 2.4s1.1 2.4 2.4 2.4h6.3v6.3c0 1.3 1.1 2.4 2.4 2.4 1.3 0 2.4-1.1 2.4-2.4v-6.3h6.3c1.3 0 2.4-1.1 2.4-2.4s-1.1-2.4-2.4-2.4ZM744.4 266.7zM764.3 130.9H758v-6.3c0-1.3-1.1-2.4-2.4-2.4-1.3 0-2.4 1.1-2.4 2.4v6.3h-6.3c-1.3 0-2.4 1.1-2.4 2.4s1.1 2.4 2.4 2.4h6.3v6.3c0 1.3 1.1 2.4 2.4 2.4 1.3 0 2.4-1.1 2.4-2.4v-6.3h6.3c1.3 0 2.4-1.1 2.4-2.4s-1.1-2.4-2.4-2.4ZM764.3 353.2H758v-6.3c0-1.3-1.1-2.4-2.4-2.4-1.3 0-2.4 1.1-2.4 2.4v6.3h-6.3c-1.3 0-2.4 1.1-2.4 2.4s1.1 2.4 2.4 2.4h6.3v6.3c0 1.3 1.1 2.4 2.4 2.4 1.3 0 2.4-1.1 2.4-2.4V358h6.3c1.3 0 2.4-1.1 2.4-2.4s-1.1-2.4-2.4-2.4ZM764.3 175.4H758v-6.3c0-1.3-1.1-2.4-2.4-2.4-1.3 0-2.4 1.1-2.4 2.4v6.3h-6.3c-1.3 0-2.4 1.1-2.4 2.4s1.1 2.4 2.4 2.4h6.3v6.3c0 1.3 1.1 2.4 2.4 2.4 1.3 0 2.4-1.1 2.4-2.4v-6.3h6.3c1.3 0 2.4-1.1 2.4-2.4s-1.1-2.4-2.4-2.4ZM764.3 264.3H758V258c0-1.3-1.1-2.4-2.4-2.4-1.3 0-2.4 1.1-2.4 2.4v6.3h-6.3c-1.3 0-2.4 1.1-2.4 2.4s1.1 2.4 2.4 2.4h6.3v6.3c0 1.3 1.1 2.4 2.4 2.4 1.3 0 2.4-1.1 2.4-2.4v-6.3h6.3c1.3 0 2.4-1.1 2.4-2.4s-1.1-2.4-2.4-2.4ZM719.8 753.2h-6.3v-6.3c0-1.3-1.1-2.4-2.4-2.4-1.3 0-2.4 1.1-2.4 2.4v6.3h-6.3c-1.3 0-2.4 1.1-2.4 2.4 0 1.3 1.1 2.4 2.4 2.4h6.3v6.3c0 1.3 1.1 2.4 2.4 2.4 1.3 0 2.4-1.1 2.4-2.4V758h6.3c1.3 0 2.4-1.1 2.4-2.4 0-1.3-1.1-2.4-2.4-2.4ZM808.7 797.6h-6.3v-6.3c0-1.3-1.1-2.4-2.4-2.4-1.3 0-2.4 1.1-2.4 2.4v6.3h-6.3c-1.3 0-2.4 1.1-2.4 2.4 0 1.3 1.1 2.4 2.4 2.4h6.3v6.3c0 1.3 1.1 2.4 2.4 2.4 1.3 0 2.4-1.1 2.4-2.4v-6.3h6.3c1.3 0 2.4-1.1 2.4-2.4 0-1.3-1.1-2.4-2.4-2.4ZM808.7 175.4h-6.3v-6.3c0-1.3-1.1-2.4-2.4-2.4-1.3 0-2.4 1.1-2.4 2.4v6.3h-6.3c-1.3 0-2.4 1.1-2.4 2.4s1.1 2.4 2.4 2.4h6.3v6.3c0 1.3 1.1 2.4 2.4 2.4 1.3 0 2.4-1.1 2.4-2.4v-6.3h6.3c1.3 0 2.4-1.1 2.4-2.4s-1.1-2.4-2.4-2.4ZM808.7 264.3h-6.3V258c0-1.3-1.1-2.4-2.4-2.4-1.3 0-2.4 1.1-2.4 2.4v6.3h-6.3c-1.3 0-2.4 1.1-2.4 2.4s1.1 2.4 2.4 2.4h6.3v6.3c0 1.3 1.1 2.4 2.4 2.4 1.3 0 2.4-1.1 2.4-2.4v-6.3h6.3c1.3 0 2.4-1.1 2.4-2.4s-1.1-2.4-2.4-2.4ZM808.7 486.5h-6.3v-6.3c0-1.3-1.1-2.4-2.4-2.4-1.3 0-2.4 1.1-2.4 2.4v6.3h-6.3c-1.3 0-2.4 1.1-2.4 2.4s1.1 2.4 2.4 2.4h6.3v6.3c0 1.3 1.1 2.4 2.4 2.4 1.3 0 2.4-1.1 2.4-2.4v-6.3h6.3c1.3 0 2.4-1.1 2.4-2.4s-1.1-2.4-2.4-2.4ZM788.9 266.7zM808.7 86.5h-6.3v-6.3c0-1.3-1.1-2.4-2.4-2.4-1.3 0-2.4 1.1-2.4 2.4v6.3h-6.3c-1.3 0-2.4 1.1-2.4 2.4s1.1 2.4 2.4 2.4h6.3v6.3c0 1.3 1.1 2.4 2.4 2.4 1.3 0 2.4-1.1 2.4-2.4v-6.3h6.3c1.3 0 2.4-1.1 2.4-2.4s-1.1-2.4-2.4-2.4ZM808.7 130.9h-6.3v-6.3c0-1.3-1.1-2.4-2.4-2.4-1.3 0-2.4 1.1-2.4 2.4v6.3h-6.3c-1.3 0-2.4 1.1-2.4 2.4s1.1 2.4 2.4 2.4h6.3v6.3c0 1.3 1.1 2.4 2.4 2.4 1.3 0 2.4-1.1 2.4-2.4v-6.3h6.3c1.3 0 2.4-1.1 2.4-2.4s-1.1-2.4-2.4-2.4ZM808.7 42h-6.3v-6.3c0-1.3-1.1-2.4-2.4-2.4-1.3 0-2.4 1.1-2.4 2.4V42h-6.3c-1.3 0-2.4 1.1-2.4 2.4s1.1 2.4 2.4 2.4h6.3v6.3c0 1.3 1.1 2.4 2.4 2.4 1.3 0 2.4-1.1 2.4-2.4v-6.3h6.3c1.3 0 2.4-1.1 2.4-2.4S810 42 808.7 42ZM811.1 266.7zM808.7 219.8h-6.3v-6.3c0-1.3-1.1-2.4-2.4-2.4-1.3 0-2.4 1.1-2.4 2.4v6.3h-6.3c-1.3 0-2.4 1.1-2.4 2.4s1.1 2.4 2.4 2.4h6.3v6.3c0 1.3 1.1 2.4 2.4 2.4 1.3 0 2.4-1.1 2.4-2.4v-6.3h6.3c1.3 0 2.4-1.1 2.4-2.4s-1.1-2.4-2.4-2.4ZM808.7 442h-6.3v-6.3c0-1.3-1.1-2.4-2.4-2.4-1.3 0-2.4 1.1-2.4 2.4v6.3h-6.3c-1.3 0-2.4 1.1-2.4 2.4s1.1 2.4 2.4 2.4h6.3v6.3c0 1.3 1.1 2.4 2.4 2.4 1.3 0 2.4-1.1 2.4-2.4v-6.3h6.3c1.3 0 2.4-1.1 2.4-2.4s-1.1-2.4-2.4-2.4ZM811.1 400zM788.9 444.4zM811.1 444.4zM808.7 308.7h-6.3v-6.3c0-1.3-1.1-2.4-2.4-2.4-1.3 0-2.4 1.1-2.4 2.4v6.3h-6.3c-1.3 0-2.4 1.1-2.4 2.4s1.1 2.4 2.4 2.4h6.3v6.3c0 1.3 1.1 2.4 2.4 2.4 1.3 0 2.4-1.1 2.4-2.4v-6.3h6.3c1.3 0 2.4-1.1 2.4-2.4s-1.1-2.4-2.4-2.4ZM808.7 353.2h-6.3v-6.3c0-1.3-1.1-2.4-2.4-2.4-1.3 0-2.4 1.1-2.4 2.4v6.3h-6.3c-1.3 0-2.4 1.1-2.4 2.4s1.1 2.4 2.4 2.4h6.3v6.3c0 1.3 1.1 2.4 2.4 2.4 1.3 0 2.4-1.1 2.4-2.4V358h6.3c1.3 0 2.4-1.1 2.4-2.4s-1.1-2.4-2.4-2.4ZM808.7 397.6h-6.3v-6.3c0-1.3-1.1-2.4-2.4-2.4-1.3 0-2.4 1.1-2.4 2.4v6.3h-6.3c-1.3 0-2.4 1.1-2.4 2.4s1.1 2.4 2.4 2.4h6.3v6.3c0 1.3 1.1 2.4 2.4 2.4 1.3 0 2.4-1.1 2.4-2.4v-6.3h6.3c1.3 0 2.4-1.1 2.4-2.4s-1.1-2.4-2.4-2.4ZM788.9 400zM808.7 530.9h-6.3v-6.3c0-1.3-1.1-2.4-2.4-2.4-1.3 0-2.4 1.1-2.4 2.4v6.3h-6.3c-1.3 0-2.4 1.1-2.4 2.4 0 1.3 1.1 2.4 2.4 2.4h6.3v6.3c0 1.3 1.1 2.4 2.4 2.4 1.3 0 2.4-1.1 2.4-2.4v-6.3h6.3c1.3 0 2.4-1.1 2.4-2.4 0-1.3-1.1-2.4-2.4-2.4ZM719.8 353.2h-6.3v-6.3c0-1.3-1.1-2.4-2.4-2.4-1.3 0-2.4 1.1-2.4 2.4v6.3h-6.3c-1.3 0-2.4 1.1-2.4 2.4s1.1 2.4 2.4 2.4h6.3v6.3c0 1.3 1.1 2.4 2.4 2.4 1.3 0 2.4-1.1 2.4-2.4V358h6.3c1.3 0 2.4-1.1 2.4-2.4s-1.1-2.4-2.4-2.4ZM719.8 397.6h-6.3v-6.3c0-1.3-1.1-2.4-2.4-2.4-1.3 0-2.4 1.1-2.4 2.4v6.3h-6.3c-1.3 0-2.4 1.1-2.4 2.4s1.1 2.4 2.4 2.4h6.3v6.3c0 1.3 1.1 2.4 2.4 2.4 1.3 0 2.4-1.1 2.4-2.4v-6.3h6.3c1.3 0 2.4-1.1 2.4-2.4s-1.1-2.4-2.4-2.4ZM700 400zM719.8 442h-6.3v-6.3c0-1.3-1.1-2.4-2.4-2.4-1.3 0-2.4 1.1-2.4 2.4v6.3h-6.3c-1.3 0-2.4 1.1-2.4 2.4s1.1 2.4 2.4 2.4h6.3v6.3c0 1.3 1.1 2.4 2.4 2.4 1.3 0 2.4-1.1 2.4-2.4v-6.3h6.3c1.3 0 2.4-1.1 2.4-2.4s-1.1-2.4-2.4-2.4ZM722.2 400zM719.8 219.8h-6.3v-6.3c0-1.3-1.1-2.4-2.4-2.4-1.3 0-2.4 1.1-2.4 2.4v6.3h-6.3c-1.3 0-2.4 1.1-2.4 2.4s1.1 2.4 2.4 2.4h6.3v6.3c0 1.3 1.1 2.4 2.4 2.4 1.3 0 2.4-1.1 2.4-2.4v-6.3h6.3c1.3 0 2.4-1.1 2.4-2.4s-1.1-2.4-2.4-2.4ZM719.8 264.3h-6.3V258c0-1.3-1.1-2.4-2.4-2.4-1.3 0-2.4 1.1-2.4 2.4v6.3h-6.3c-1.3 0-2.4 1.1-2.4 2.4s1.1 2.4 2.4 2.4h6.3v6.3c0 1.3 1.1 2.4 2.4 2.4 1.3 0 2.4-1.1 2.4-2.4v-6.3h6.3c1.3 0 2.4-1.1 2.4-2.4s-1.1-2.4-2.4-2.4ZM722.2 266.7zM719.8 308.7h-6.3v-6.3c0-1.3-1.1-2.4-2.4-2.4-1.3 0-2.4 1.1-2.4 2.4v6.3h-6.3c-1.3 0-2.4 1.1-2.4 2.4s1.1 2.4 2.4 2.4h6.3v6.3c0 1.3 1.1 2.4 2.4 2.4 1.3 0 2.4-1.1 2.4-2.4v-6.3h6.3c1.3 0 2.4-1.1 2.4-2.4s-1.1-2.4-2.4-2.4ZM700 266.7zM719.8 575.4h-6.3v-6.3c0-1.3-1.1-2.4-2.4-2.4-1.3 0-2.4 1.1-2.4 2.4v6.3h-6.3c-1.3 0-2.4 1.1-2.4 2.4 0 1.3 1.1 2.4 2.4 2.4h6.3v6.3c0 1.3 1.1 2.4 2.4 2.4 1.3 0 2.4-1.1 2.4-2.4v-6.3h6.3c1.3 0 2.4-1.1 2.4-2.4 0-1.3-1.1-2.4-2.4-2.4ZM719.8 664.3h-6.3V658c0-1.3-1.1-2.4-2.4-2.4-1.3 0-2.4 1.1-2.4 2.4v6.3h-6.3c-1.3 0-2.4 1.1-2.4 2.4 0 1.3 1.1 2.4 2.4 2.4h6.3v6.3c0 1.3 1.1 2.4 2.4 2.4 1.3 0 2.4-1.1 2.4-2.4v-6.3h6.3c1.3 0 2.4-1.1 2.4-2.4 0-1.3-1.1-2.4-2.4-2.4ZM719.8 619.8h-6.3v-6.3c0-1.3-1.1-2.4-2.4-2.4-1.3 0-2.4 1.1-2.4 2.4v6.3h-6.3c-1.3 0-2.4 1.1-2.4 2.4 0 1.3 1.1 2.4 2.4 2.4h6.3v6.3c0 1.3 1.1 2.4 2.4 2.4 1.3 0 2.4-1.1 2.4-2.4v-6.3h6.3c1.3 0 2.4-1.1 2.4-2.4 0-1.3-1.1-2.4-2.4-2.4ZM719.8 708.7h-6.3v-6.3c0-1.3-1.1-2.4-2.4-2.4-1.3 0-2.4 1.1-2.4 2.4v6.3h-6.3c-1.3 0-2.4 1.1-2.4 2.4 0 1.3 1.1 2.4 2.4 2.4h6.3v6.3c0 1.3 1.1 2.4 2.4 2.4 1.3 0 2.4-1.1 2.4-2.4v-6.3h6.3c1.3 0 2.4-1.1 2.4-2.4 0-1.3-1.1-2.4-2.4-2.4ZM722.2 444.4zM586.5 708.7h-6.3v-6.3c0-1.3-1.1-2.4-2.4-2.4-1.3 0-2.4 1.1-2.4 2.4v6.3h-6.3c-1.3 0-2.4 1.1-2.4 2.4 0 1.3 1.1 2.4 2.4 2.4h6.3v6.3c0 1.3 1.1 2.4 2.4 2.4 1.3 0 2.4-1.1 2.4-2.4v-6.3h6.3c1.3 0 2.4-1.1 2.4-2.4 0-1.3-1.1-2.4-2.4-2.4ZM700 444.4zM719.8 486.5h-6.3v-6.3c0-1.3-1.1-2.4-2.4-2.4-1.3 0-2.4 1.1-2.4 2.4v6.3h-6.3c-1.3 0-2.4 1.1-2.4 2.4s1.1 2.4 2.4 2.4h6.3v6.3c0 1.3 1.1 2.4 2.4 2.4 1.3 0 2.4-1.1 2.4-2.4v-6.3h6.3c1.3 0 2.4-1.1 2.4-2.4s-1.1-2.4-2.4-2.4ZM764.3 530.9H758v-6.3c0-1.3-1.1-2.4-2.4-2.4-1.3 0-2.4 1.1-2.4 2.4v6.3h-6.3c-1.3 0-2.4 1.1-2.4 2.4 0 1.3 1.1 2.4 2.4 2.4h6.3v6.3c0 1.3 1.1 2.4 2.4 2.4 1.3 0 2.4-1.1 2.4-2.4v-6.3h6.3c1.3 0 2.4-1.1 2.4-2.4 0-1.3-1.1-2.4-2.4-2.4ZM744.4 400zM766.7 444.4zM764.3 486.5H758v-6.3c0-1.3-1.1-2.4-2.4-2.4-1.3 0-2.4 1.1-2.4 2.4v6.3h-6.3c-1.3 0-2.4 1.1-2.4 2.4s1.1 2.4 2.4 2.4h6.3v6.3c0 1.3 1.1 2.4 2.4 2.4 1.3 0 2.4-1.1 2.4-2.4v-6.3h6.3c1.3 0 2.4-1.1 2.4-2.4s-1.1-2.4-2.4-2.4ZM764.3 575.4H758v-6.3c0-1.3-1.1-2.4-2.4-2.4-1.3 0-2.4 1.1-2.4 2.4v6.3h-6.3c-1.3 0-2.4 1.1-2.4 2.4 0 1.3 1.1 2.4 2.4 2.4h6.3v6.3c0 1.3 1.1 2.4 2.4 2.4 1.3 0 2.4-1.1 2.4-2.4v-6.3h6.3c1.3 0 2.4-1.1 2.4-2.4 0-1.3-1.1-2.4-2.4-2.4ZM766.7 400zM744.4 444.4zM764.3 619.8H758v-6.3c0-1.3-1.1-2.4-2.4-2.4-1.3 0-2.4 1.1-2.4 2.4v6.3h-6.3c-1.3 0-2.4 1.1-2.4 2.4 0 1.3 1.1 2.4 2.4 2.4h6.3v6.3c0 1.3 1.1 2.4 2.4 2.4 1.3 0 2.4-1.1 2.4-2.4v-6.3h6.3c1.3 0 2.4-1.1 2.4-2.4 0-1.3-1.1-2.4-2.4-2.4ZM764.3 442H758v-6.3c0-1.3-1.1-2.4-2.4-2.4-1.3 0-2.4 1.1-2.4 2.4v6.3h-6.3c-1.3 0-2.4 1.1-2.4 2.4s1.1 2.4 2.4 2.4h6.3v6.3c0 1.3 1.1 2.4 2.4 2.4 1.3 0 2.4-1.1 2.4-2.4v-6.3h6.3c1.3 0 2.4-1.1 2.4-2.4s-1.1-2.4-2.4-2.4ZM719.8-2.4h-6.3v-6.3c0-1.3-1.1-2.4-2.4-2.4-1.3 0-2.4 1.1-2.4 2.4v6.3h-6.3c-1.3 0-2.4 1.1-2.4 2.4s1.1 2.4 2.4 2.4h6.3v6.3c0 1.3 1.1 2.4 2.4 2.4 1.3 0 2.4-1.1 2.4-2.4V2.4h6.3c1.3 0 2.4-1.1 2.4-2.4s-1.1-2.4-2.4-2.4ZM719.8 42h-6.3v-6.3c0-1.3-1.1-2.4-2.4-2.4-1.3 0-2.4 1.1-2.4 2.4V42h-6.3c-1.3 0-2.4 1.1-2.4 2.4s1.1 2.4 2.4 2.4h6.3v6.3c0 1.3 1.1 2.4 2.4 2.4 1.3 0 2.4-1.1 2.4-2.4v-6.3h6.3c1.3 0 2.4-1.1 2.4-2.4s-1.1-2.4-2.4-2.4ZM719.8 86.5h-6.3v-6.3c0-1.3-1.1-2.4-2.4-2.4-1.3 0-2.4 1.1-2.4 2.4v6.3h-6.3c-1.3 0-2.4 1.1-2.4 2.4s1.1 2.4 2.4 2.4h6.3v6.3c0 1.3 1.1 2.4 2.4 2.4 1.3 0 2.4-1.1 2.4-2.4v-6.3h6.3c1.3 0 2.4-1.1 2.4-2.4s-1.1-2.4-2.4-2.4ZM719.8 130.9h-6.3v-6.3c0-1.3-1.1-2.4-2.4-2.4-1.3 0-2.4 1.1-2.4 2.4v6.3h-6.3c-1.3 0-2.4 1.1-2.4 2.4s1.1 2.4 2.4 2.4h6.3v6.3c0 1.3 1.1 2.4 2.4 2.4 1.3 0 2.4-1.1 2.4-2.4v-6.3h6.3c1.3 0 2.4-1.1 2.4-2.4s-1.1-2.4-2.4-2.4ZM719.8 175.4h-6.3v-6.3c0-1.3-1.1-2.4-2.4-2.4-1.3 0-2.4 1.1-2.4 2.4v6.3h-6.3c-1.3 0-2.4 1.1-2.4 2.4s1.1 2.4 2.4 2.4h6.3v6.3c0 1.3 1.1 2.4 2.4 2.4 1.3 0 2.4-1.1 2.4-2.4v-6.3h6.3c1.3 0 2.4-1.1 2.4-2.4s-1.1-2.4-2.4-2.4ZM764.3 797.6H758v-6.3c0-1.3-1.1-2.4-2.4-2.4-1.3 0-2.4 1.1-2.4 2.4v6.3h-6.3c-1.3 0-2.4 1.1-2.4 2.4 0 1.3 1.1 2.4 2.4 2.4h6.3v6.3c0 1.3 1.1 2.4 2.4 2.4 1.3 0 2.4-1.1 2.4-2.4v-6.3h6.3c1.3 0 2.4-1.1 2.4-2.4 0-1.3-1.1-2.4-2.4-2.4ZM764.3 708.7H758v-6.3c0-1.3-1.1-2.4-2.4-2.4-1.3 0-2.4 1.1-2.4 2.4v6.3h-6.3c-1.3 0-2.4 1.1-2.4 2.4 0 1.3 1.1 2.4 2.4 2.4h6.3v6.3c0 1.3 1.1 2.4 2.4 2.4 1.3 0 2.4-1.1 2.4-2.4v-6.3h6.3c1.3 0 2.4-1.1 2.4-2.4 0-1.3-1.1-2.4-2.4-2.4ZM764.3 753.2H758v-6.3c0-1.3-1.1-2.4-2.4-2.4-1.3 0-2.4 1.1-2.4 2.4v6.3h-6.3c-1.3 0-2.4 1.1-2.4 2.4 0 1.3 1.1 2.4 2.4 2.4h6.3v6.3c0 1.3 1.1 2.4 2.4 2.4 1.3 0 2.4-1.1 2.4-2.4V758h6.3c1.3 0 2.4-1.1 2.4-2.4 0-1.3-1.1-2.4-2.4-2.4ZM764.3 664.3H758V658c0-1.3-1.1-2.4-2.4-2.4-1.3 0-2.4 1.1-2.4 2.4v6.3h-6.3c-1.3 0-2.4 1.1-2.4 2.4 0 1.3 1.1 2.4 2.4 2.4h6.3v6.3c0 1.3 1.1 2.4 2.4 2.4 1.3 0 2.4-1.1 2.4-2.4v-6.3h6.3c1.3 0 2.4-1.1 2.4-2.4 0-1.3-1.1-2.4-2.4-2.4ZM675.4 797.6h-6.3v-6.3c0-1.3-1.1-2.4-2.4-2.4-1.3 0-2.4 1.1-2.4 2.4v6.3H658c-1.3 0-2.4 1.1-2.4 2.4 0 1.3 1.1 2.4 2.4 2.4h6.3v6.3c0 1.3 1.1 2.4 2.4 2.4 1.3 0 2.4-1.1 2.4-2.4v-6.3h6.3c1.3 0 2.4-1.1 2.4-2.4 0-1.3-1.1-2.4-2.4-2.4ZM488.9 566.7zM433.3 266.7zM453.2 42h-6.3v-6.3c0-1.3-1.1-2.4-2.4-2.4s-2.4 1.1-2.4 2.4V42h-6.3c-1.3 0-2.4 1.1-2.4 2.4s1.1 2.4 2.4 2.4h6.3v6.3c0 1.3 1.1 2.4 2.4 2.4s2.4-1.1 2.4-2.4v-6.3h6.3c1.3 0 2.4-1.1 2.4-2.4s-1.1-2.4-2.4-2.4ZM453.2 308.7h-6.3v-6.3c0-1.3-1.1-2.4-2.4-2.4s-2.4 1.1-2.4 2.4v6.3h-6.3c-1.3 0-2.4 1.1-2.4 2.4s1.1 2.4 2.4 2.4h6.3v6.3c0 1.3 1.1 2.4 2.4 2.4s2.4-1.1 2.4-2.4v-6.3h6.3c1.3 0 2.4-1.1 2.4-2.4s-1.1-2.4-2.4-2.4ZM453.2 130.9h-6.3v-6.3c0-1.3-1.1-2.4-2.4-2.4s-2.4 1.1-2.4 2.4v6.3h-6.3c-1.3 0-2.4 1.1-2.4 2.4s1.1 2.4 2.4 2.4h6.3v6.3c0 1.3 1.1 2.4 2.4 2.4s2.4-1.1 2.4-2.4v-6.3h6.3c1.3 0 2.4-1.1 2.4-2.4s-1.1-2.4-2.4-2.4ZM453.2 219.8h-6.3v-6.3c0-1.3-1.1-2.4-2.4-2.4s-2.4 1.1-2.4 2.4v6.3h-6.3c-1.3 0-2.4 1.1-2.4 2.4s1.1 2.4 2.4 2.4h6.3v6.3c0 1.3 1.1 2.4 2.4 2.4s2.4-1.1 2.4-2.4v-6.3h6.3c1.3 0 2.4-1.1 2.4-2.4s-1.1-2.4-2.4-2.4ZM453.2 353.2h-6.3v-6.3c0-1.3-1.1-2.4-2.4-2.4s-2.4 1.1-2.4 2.4v6.3h-6.3c-1.3 0-2.4 1.1-2.4 2.4s1.1 2.4 2.4 2.4h6.3v6.3c0 1.3 1.1 2.4 2.4 2.4s2.4-1.1 2.4-2.4V358h6.3c1.3 0 2.4-1.1 2.4-2.4s-1.1-2.4-2.4-2.4ZM453.2 86.5h-6.3v-6.3c0-1.3-1.1-2.4-2.4-2.4s-2.4 1.1-2.4 2.4v6.3h-6.3c-1.3 0-2.4 1.1-2.4 2.4s1.1 2.4 2.4 2.4h6.3v6.3c0 1.3 1.1 2.4 2.4 2.4s2.4-1.1 2.4-2.4v-6.3h6.3c1.3 0 2.4-1.1 2.4-2.4s-1.1-2.4-2.4-2.4ZM453.2 175.4h-6.3v-6.3c0-1.3-1.1-2.4-2.4-2.4s-2.4 1.1-2.4 2.4v6.3h-6.3c-1.3 0-2.4 1.1-2.4 2.4s1.1 2.4 2.4 2.4h6.3v6.3c0 1.3 1.1 2.4 2.4 2.4s2.4-1.1 2.4-2.4v-6.3h6.3c1.3 0 2.4-1.1 2.4-2.4s-1.1-2.4-2.4-2.4ZM455.6 266.7zM453.2 397.6h-6.3v-6.3c0-1.3-1.1-2.4-2.4-2.4s-2.4 1.1-2.4 2.4v6.3h-6.3c-1.3 0-2.4 1.1-2.4 2.4s1.1 2.4 2.4 2.4h6.3v6.3c0 1.3 1.1 2.4 2.4 2.4s2.4-1.1 2.4-2.4v-6.3h6.3c1.3 0 2.4-1.1 2.4-2.4s-1.1-2.4-2.4-2.4ZM453.2 486.5h-6.3v-6.3c0-1.3-1.1-2.4-2.4-2.4s-2.4 1.1-2.4 2.4v6.3h-6.3c-1.3 0-2.4 1.1-2.4 2.4s1.1 2.4 2.4 2.4h6.3v6.3c0 1.3 1.1 2.4 2.4 2.4s2.4-1.1 2.4-2.4v-6.3h6.3c1.3 0 2.4-1.1 2.4-2.4s-1.1-2.4-2.4-2.4ZM453.2 530.9h-6.3v-6.3c0-1.3-1.1-2.4-2.4-2.4s-2.4 1.1-2.4 2.4v6.3h-6.3c-1.3 0-2.4 1.1-2.4 2.4 0 1.3 1.1 2.4 2.4 2.4h6.3v6.3c0 1.3 1.1 2.4 2.4 2.4s2.4-1.1 2.4-2.4v-6.3h6.3c1.3 0 2.4-1.1 2.4-2.4 0-1.3-1.1-2.4-2.4-2.4ZM433.3 444.4zM455.6 444.4zM433.3 400zM455.6 400zM453.2 442h-6.3v-6.3c0-1.3-1.1-2.4-2.4-2.4s-2.4 1.1-2.4 2.4v6.3h-6.3c-1.3 0-2.4 1.1-2.4 2.4s1.1 2.4 2.4 2.4h6.3v6.3c0 1.3 1.1 2.4 2.4 2.4s2.4-1.1 2.4-2.4v-6.3h6.3c1.3 0 2.4-1.1 2.4-2.4s-1.1-2.4-2.4-2.4ZM497.6 797.6h-6.3v-6.3c0-1.3-1.1-2.4-2.4-2.4s-2.4 1.1-2.4 2.4v6.3h-6.3c-1.3 0-2.4 1.1-2.4 2.4 0 1.3 1.1 2.4 2.4 2.4h6.3v6.3c0 1.3 1.1 2.4 2.4 2.4s2.4-1.1 2.4-2.4v-6.3h6.3c1.3 0 2.4-1.1 2.4-2.4 0-1.3-1.1-2.4-2.4-2.4ZM488.9 655.6zM497.6 664.3h-6.3V658c0-1.3-1.1-2.4-2.4-2.4s-2.4 1.1-2.4 2.4v6.3h-6.3c-1.3 0-2.4 1.1-2.4 2.4 0 1.3 1.1 2.4 2.4 2.4h6.3v6.3c0 1.3 1.1 2.4 2.4 2.4s2.4-1.1 2.4-2.4v-6.3h6.3c1.3 0 2.4-1.1 2.4-2.4 0-1.3-1.1-2.4-2.4-2.4ZM488.9 633.3zM488.9 677.8zM497.6 708.7h-6.3v-6.3c0-1.3-1.1-2.4-2.4-2.4s-2.4 1.1-2.4 2.4v6.3h-6.3c-1.3 0-2.4 1.1-2.4 2.4 0 1.3 1.1 2.4 2.4 2.4h6.3v6.3c0 1.3 1.1 2.4 2.4 2.4s2.4-1.1 2.4-2.4v-6.3h6.3c1.3 0 2.4-1.1 2.4-2.4 0-1.3-1.1-2.4-2.4-2.4ZM488.9 588.9zM488.9 611.1zM497.6 619.8h-6.3v-6.3c0-1.3-1.1-2.4-2.4-2.4s-2.4 1.1-2.4 2.4v6.3h-6.3c-1.3 0-2.4 1.1-2.4 2.4 0 1.3 1.1 2.4 2.4 2.4h6.3v6.3c0 1.3 1.1 2.4 2.4 2.4s2.4-1.1 2.4-2.4v-6.3h6.3c1.3 0 2.4-1.1 2.4-2.4 0-1.3-1.1-2.4-2.4-2.4ZM488.9 788.9zM453.2 575.4h-6.3v-6.3c0-1.3-1.1-2.4-2.4-2.4s-2.4 1.1-2.4 2.4v6.3h-6.3c-1.3 0-2.4 1.1-2.4 2.4 0 1.3 1.1 2.4 2.4 2.4h6.3v6.3c0 1.3 1.1 2.4 2.4 2.4s2.4-1.1 2.4-2.4v-6.3h6.3c1.3 0 2.4-1.1 2.4-2.4 0-1.3-1.1-2.4-2.4-2.4ZM488.9 766.7zM488.9 700zM488.9 811.1zM453.2-2.4h-6.3v-6.3c0-1.3-1.1-2.4-2.4-2.4s-2.4 1.1-2.4 2.4v6.3h-6.3c-1.3 0-2.4 1.1-2.4 2.4s1.1 2.4 2.4 2.4h6.3v6.3c0 1.3 1.1 2.4 2.4 2.4s2.4-1.1 2.4-2.4V2.4h6.3c1.3 0 2.4-1.1 2.4-2.4s-1.1-2.4-2.4-2.4ZM488.9 744.4zM488.9 722.2zM497.6 753.2h-6.3v-6.3c0-1.3-1.1-2.4-2.4-2.4s-2.4 1.1-2.4 2.4v6.3h-6.3c-1.3 0-2.4 1.1-2.4 2.4 0 1.3 1.1 2.4 2.4 2.4h6.3v6.3c0 1.3 1.1 2.4 2.4 2.4s2.4-1.1 2.4-2.4V758h6.3c1.3 0 2.4-1.1 2.4-2.4 0-1.3-1.1-2.4-2.4-2.4ZM453.2 264.3h-6.3V258c0-1.3-1.1-2.4-2.4-2.4s-2.4 1.1-2.4 2.4v6.3h-6.3c-1.3 0-2.4 1.1-2.4 2.4s1.1 2.4 2.4 2.4h6.3v6.3c0 1.3 1.1 2.4 2.4 2.4s2.4-1.1 2.4-2.4v-6.3h6.3c1.3 0 2.4-1.1 2.4-2.4s-1.1-2.4-2.4-2.4ZM408.7 619.8h-6.3v-6.3c0-1.3-1.1-2.4-2.4-2.4s-2.4 1.1-2.4 2.4v6.3h-6.3c-1.3 0-2.4 1.1-2.4 2.4 0 1.3 1.1 2.4 2.4 2.4h6.3v6.3c0 1.3 1.1 2.4 2.4 2.4s2.4-1.1 2.4-2.4v-6.3h6.3c1.3 0 2.4-1.1 2.4-2.4 0-1.3-1.1-2.4-2.4-2.4ZM408.7 530.9h-6.3v-6.3c0-1.3-1.1-2.4-2.4-2.4s-2.4 1.1-2.4 2.4v6.3h-6.3c-1.3 0-2.4 1.1-2.4 2.4 0 1.3 1.1 2.4 2.4 2.4h6.3v6.3c0 1.3 1.1 2.4 2.4 2.4s2.4-1.1 2.4-2.4v-6.3h6.3c1.3 0 2.4-1.1 2.4-2.4 0-1.3-1.1-2.4-2.4-2.4ZM408.7 575.4h-6.3v-6.3c0-1.3-1.1-2.4-2.4-2.4s-2.4 1.1-2.4 2.4v6.3h-6.3c-1.3 0-2.4 1.1-2.4 2.4 0 1.3 1.1 2.4 2.4 2.4h6.3v6.3c0 1.3 1.1 2.4 2.4 2.4s2.4-1.1 2.4-2.4v-6.3h6.3c1.3 0 2.4-1.1 2.4-2.4 0-1.3-1.1-2.4-2.4-2.4ZM408.7 664.3h-6.3V658c0-1.3-1.1-2.4-2.4-2.4s-2.4 1.1-2.4 2.4v6.3h-6.3c-1.3 0-2.4 1.1-2.4 2.4 0 1.3 1.1 2.4 2.4 2.4h6.3v6.3c0 1.3 1.1 2.4 2.4 2.4s2.4-1.1 2.4-2.4v-6.3h6.3c1.3 0 2.4-1.1 2.4-2.4 0-1.3-1.1-2.4-2.4-2.4ZM408.7 708.7h-6.3v-6.3c0-1.3-1.1-2.4-2.4-2.4s-2.4 1.1-2.4 2.4v6.3h-6.3c-1.3 0-2.4 1.1-2.4 2.4 0 1.3 1.1 2.4 2.4 2.4h6.3v6.3c0 1.3 1.1 2.4 2.4 2.4s2.4-1.1 2.4-2.4v-6.3h6.3c1.3 0 2.4-1.1 2.4-2.4 0-1.3-1.1-2.4-2.4-2.4ZM408.7 442h-6.3v-6.3c0-1.3-1.1-2.4-2.4-2.4s-2.4 1.1-2.4 2.4v6.3h-6.3c-1.3 0-2.4 1.1-2.4 2.4s1.1 2.4 2.4 2.4h6.3v6.3c0 1.3 1.1 2.4 2.4 2.4s2.4-1.1 2.4-2.4v-6.3h6.3c1.3 0 2.4-1.1 2.4-2.4s-1.1-2.4-2.4-2.4ZM388.9 444.4zM411.1 444.4zM408.7 486.5h-6.3v-6.3c0-1.3-1.1-2.4-2.4-2.4s-2.4 1.1-2.4 2.4v6.3h-6.3c-1.3 0-2.4 1.1-2.4 2.4s1.1 2.4 2.4 2.4h6.3v6.3c0 1.3 1.1 2.4 2.4 2.4s2.4-1.1 2.4-2.4v-6.3h6.3c1.3 0 2.4-1.1 2.4-2.4s-1.1-2.4-2.4-2.4ZM408.7 753.2h-6.3v-6.3c0-1.3-1.1-2.4-2.4-2.4s-2.4 1.1-2.4 2.4v6.3h-6.3c-1.3 0-2.4 1.1-2.4 2.4 0 1.3 1.1 2.4 2.4 2.4h6.3v6.3c0 1.3 1.1 2.4 2.4 2.4s2.4-1.1 2.4-2.4V758h6.3c1.3 0 2.4-1.1 2.4-2.4 0-1.3-1.1-2.4-2.4-2.4ZM355.6 33.3zM453.2 619.8h-6.3v-6.3c0-1.3-1.1-2.4-2.4-2.4s-2.4 1.1-2.4 2.4v6.3h-6.3c-1.3 0-2.4 1.1-2.4 2.4 0 1.3 1.1 2.4 2.4 2.4h6.3v6.3c0 1.3 1.1 2.4 2.4 2.4s2.4-1.1 2.4-2.4v-6.3h6.3c1.3 0 2.4-1.1 2.4-2.4 0-1.3-1.1-2.4-2.4-2.4ZM355.6 55.6zM355.6 11.1zM411.1 400zM408.7 797.6h-6.3v-6.3c0-1.3-1.1-2.4-2.4-2.4s-2.4 1.1-2.4 2.4v6.3h-6.3c-1.3 0-2.4 1.1-2.4 2.4 0 1.3 1.1 2.4 2.4 2.4h6.3v6.3c0 1.3 1.1 2.4 2.4 2.4s2.4-1.1 2.4-2.4v-6.3h6.3c1.3 0 2.4-1.1 2.4-2.4 0-1.3-1.1-2.4-2.4-2.4ZM364.3-2.4H358v-6.3c0-1.3-1.1-2.4-2.4-2.4s-2.4 1.1-2.4 2.4v6.3h-6.3c-1.3 0-2.4 1.1-2.4 2.4s1.1 2.4 2.4 2.4h6.3v6.3c0 1.3 1.1 2.4 2.4 2.4S358 10 358 8.7V2.4h6.3c1.3 0 2.4-1.1 2.4-2.4s-1.1-2.4-2.4-2.4ZM355.6-11.1zM364.3 42H358v-6.3c0-1.3-1.1-2.4-2.4-2.4s-2.4 1.1-2.4 2.4V42h-6.3c-1.3 0-2.4 1.1-2.4 2.4s1.1 2.4 2.4 2.4h6.3v6.3c0 1.3 1.1 2.4 2.4 2.4s2.4-1.1 2.4-2.4v-6.3h6.3c1.3 0 2.4-1.1 2.4-2.4s-1.1-2.4-2.4-2.4ZM586.5 753.2h-6.3v-6.3c0-1.3-1.1-2.4-2.4-2.4-1.3 0-2.4 1.1-2.4 2.4v6.3h-6.3c-1.3 0-2.4 1.1-2.4 2.4 0 1.3 1.1 2.4 2.4 2.4h6.3v6.3c0 1.3 1.1 2.4 2.4 2.4 1.3 0 2.4-1.1 2.4-2.4V758h6.3c1.3 0 2.4-1.1 2.4-2.4 0-1.3-1.1-2.4-2.4-2.4ZM408.7-2.4h-6.3v-6.3c0-1.3-1.1-2.4-2.4-2.4s-2.4 1.1-2.4 2.4v6.3h-6.3c-1.3 0-2.4 1.1-2.4 2.4s1.1 2.4 2.4 2.4h6.3v6.3c0 1.3 1.1 2.4 2.4 2.4s2.4-1.1 2.4-2.4V2.4h6.3c1.3 0 2.4-1.1 2.4-2.4s-1.1-2.4-2.4-2.4ZM408.7 86.5h-6.3v-6.3c0-1.3-1.1-2.4-2.4-2.4s-2.4 1.1-2.4 2.4v6.3h-6.3c-1.3 0-2.4 1.1-2.4 2.4s1.1 2.4 2.4 2.4h6.3v6.3c0 1.3 1.1 2.4 2.4 2.4s2.4-1.1 2.4-2.4v-6.3h6.3c1.3 0 2.4-1.1 2.4-2.4s-1.1-2.4-2.4-2.4ZM453.2 797.6h-6.3v-6.3c0-1.3-1.1-2.4-2.4-2.4s-2.4 1.1-2.4 2.4v6.3h-6.3c-1.3 0-2.4 1.1-2.4 2.4 0 1.3 1.1 2.4 2.4 2.4h6.3v6.3c0 1.3 1.1 2.4 2.4 2.4s2.4-1.1 2.4-2.4v-6.3h6.3c1.3 0 2.4-1.1 2.4-2.4 0-1.3-1.1-2.4-2.4-2.4ZM388.9 400zM408.7 130.9h-6.3v-6.3c0-1.3-1.1-2.4-2.4-2.4s-2.4 1.1-2.4 2.4v6.3h-6.3c-1.3 0-2.4 1.1-2.4 2.4s1.1 2.4 2.4 2.4h6.3v6.3c0 1.3 1.1 2.4 2.4 2.4s2.4-1.1 2.4-2.4v-6.3h6.3c1.3 0 2.4-1.1 2.4-2.4s-1.1-2.4-2.4-2.4ZM453.2 753.2h-6.3v-6.3c0-1.3-1.1-2.4-2.4-2.4s-2.4 1.1-2.4 2.4v6.3h-6.3c-1.3 0-2.4 1.1-2.4 2.4 0 1.3 1.1 2.4 2.4 2.4h6.3v6.3c0 1.3 1.1 2.4 2.4 2.4s2.4-1.1 2.4-2.4V758h6.3c1.3 0 2.4-1.1 2.4-2.4 0-1.3-1.1-2.4-2.4-2.4ZM453.2 708.7h-6.3v-6.3c0-1.3-1.1-2.4-2.4-2.4s-2.4 1.1-2.4 2.4v6.3h-6.3c-1.3 0-2.4 1.1-2.4 2.4 0 1.3 1.1 2.4 2.4 2.4h6.3v6.3c0 1.3 1.1 2.4 2.4 2.4s2.4-1.1 2.4-2.4v-6.3h6.3c1.3 0 2.4-1.1 2.4-2.4 0-1.3-1.1-2.4-2.4-2.4ZM453.2 664.3h-6.3V658c0-1.3-1.1-2.4-2.4-2.4s-2.4 1.1-2.4 2.4v6.3h-6.3c-1.3 0-2.4 1.1-2.4 2.4 0 1.3 1.1 2.4 2.4 2.4h6.3v6.3c0 1.3 1.1 2.4 2.4 2.4s2.4-1.1 2.4-2.4v-6.3h6.3c1.3 0 2.4-1.1 2.4-2.4 0-1.3-1.1-2.4-2.4-2.4ZM408.7 175.4h-6.3v-6.3c0-1.3-1.1-2.4-2.4-2.4s-2.4 1.1-2.4 2.4v6.3h-6.3c-1.3 0-2.4 1.1-2.4 2.4s1.1 2.4 2.4 2.4h6.3v6.3c0 1.3 1.1 2.4 2.4 2.4s2.4-1.1 2.4-2.4v-6.3h6.3c1.3 0 2.4-1.1 2.4-2.4s-1.1-2.4-2.4-2.4ZM408.7 308.7h-6.3v-6.3c0-1.3-1.1-2.4-2.4-2.4s-2.4 1.1-2.4 2.4v6.3h-6.3c-1.3 0-2.4 1.1-2.4 2.4s1.1 2.4 2.4 2.4h6.3v6.3c0 1.3 1.1 2.4 2.4 2.4s2.4-1.1 2.4-2.4v-6.3h6.3c1.3 0 2.4-1.1 2.4-2.4s-1.1-2.4-2.4-2.4ZM411.1 266.7zM408.7 397.6h-6.3v-6.3c0-1.3-1.1-2.4-2.4-2.4s-2.4 1.1-2.4 2.4v6.3h-6.3c-1.3 0-2.4 1.1-2.4 2.4s1.1 2.4 2.4 2.4h6.3v6.3c0 1.3 1.1 2.4 2.4 2.4s2.4-1.1 2.4-2.4v-6.3h6.3c1.3 0 2.4-1.1 2.4-2.4s-1.1-2.4-2.4-2.4ZM408.7 353.2h-6.3v-6.3c0-1.3-1.1-2.4-2.4-2.4s-2.4 1.1-2.4 2.4v6.3h-6.3c-1.3 0-2.4 1.1-2.4 2.4s1.1 2.4 2.4 2.4h6.3v6.3c0 1.3 1.1 2.4 2.4 2.4s2.4-1.1 2.4-2.4V358h6.3c1.3 0 2.4-1.1 2.4-2.4s-1.1-2.4-2.4-2.4ZM408.7 219.8h-6.3v-6.3c0-1.3-1.1-2.4-2.4-2.4s-2.4 1.1-2.4 2.4v6.3h-6.3c-1.3 0-2.4 1.1-2.4 2.4s1.1 2.4 2.4 2.4h6.3v6.3c0 1.3 1.1 2.4 2.4 2.4s2.4-1.1 2.4-2.4v-6.3h6.3c1.3 0 2.4-1.1 2.4-2.4s-1.1-2.4-2.4-2.4ZM408.7 264.3h-6.3V258c0-1.3-1.1-2.4-2.4-2.4s-2.4 1.1-2.4 2.4v6.3h-6.3c-1.3 0-2.4 1.1-2.4 2.4s1.1 2.4 2.4 2.4h6.3v6.3c0 1.3 1.1 2.4 2.4 2.4s2.4-1.1 2.4-2.4v-6.3h6.3c1.3 0 2.4-1.1 2.4-2.4s-1.1-2.4-2.4-2.4ZM388.9 266.7zM408.7 42h-6.3v-6.3c0-1.3-1.1-2.4-2.4-2.4s-2.4 1.1-2.4 2.4V42h-6.3c-1.3 0-2.4 1.1-2.4 2.4s1.1 2.4 2.4 2.4h6.3v6.3c0 1.3 1.1 2.4 2.4 2.4s2.4-1.1 2.4-2.4v-6.3h6.3c1.3 0 2.4-1.1 2.4-2.4S410 42 408.7 42ZM542 753.2h-6.3v-6.3c0-1.3-1.1-2.4-2.4-2.4-1.3 0-2.4 1.1-2.4 2.4v6.3h-6.3c-1.3 0-2.4 1.1-2.4 2.4 0 1.3 1.1 2.4 2.4 2.4h6.3v6.3c0 1.3 1.1 2.4 2.4 2.4 1.3 0 2.4-1.1 2.4-2.4V758h6.3c1.3 0 2.4-1.1 2.4-2.4 0-1.3-1.1-2.4-2.4-2.4ZM544.4 444.4zM542 797.6h-6.3v-6.3c0-1.3-1.1-2.4-2.4-2.4-1.3 0-2.4 1.1-2.4 2.4v6.3h-6.3c-1.3 0-2.4 1.1-2.4 2.4 0 1.3 1.1 2.4 2.4 2.4h6.3v6.3c0 1.3 1.1 2.4 2.4 2.4 1.3 0 2.4-1.1 2.4-2.4v-6.3h6.3c1.3 0 2.4-1.1 2.4-2.4 0-1.3-1.1-2.4-2.4-2.4ZM542 664.3h-6.3V658c0-1.3-1.1-2.4-2.4-2.4-1.3 0-2.4 1.1-2.4 2.4v6.3h-6.3c-1.3 0-2.4 1.1-2.4 2.4 0 1.3 1.1 2.4 2.4 2.4h6.3v6.3c0 1.3 1.1 2.4 2.4 2.4 1.3 0 2.4-1.1 2.4-2.4v-6.3h6.3c1.3 0 2.4-1.1 2.4-2.4 0-1.3-1.1-2.4-2.4-2.4ZM542 708.7h-6.3v-6.3c0-1.3-1.1-2.4-2.4-2.4-1.3 0-2.4 1.1-2.4 2.4v6.3h-6.3c-1.3 0-2.4 1.1-2.4 2.4 0 1.3 1.1 2.4 2.4 2.4h6.3v6.3c0 1.3 1.1 2.4 2.4 2.4 1.3 0 2.4-1.1 2.4-2.4v-6.3h6.3c1.3 0 2.4-1.1 2.4-2.4 0-1.3-1.1-2.4-2.4-2.4ZM542 486.5h-6.3v-6.3c0-1.3-1.1-2.4-2.4-2.4-1.3 0-2.4 1.1-2.4 2.4v6.3h-6.3c-1.3 0-2.4 1.1-2.4 2.4s1.1 2.4 2.4 2.4h6.3v6.3c0 1.3 1.1 2.4 2.4 2.4 1.3 0 2.4-1.1 2.4-2.4v-6.3h6.3c1.3 0 2.4-1.1 2.4-2.4s-1.1-2.4-2.4-2.4ZM542 619.8h-6.3v-6.3c0-1.3-1.1-2.4-2.4-2.4-1.3 0-2.4 1.1-2.4 2.4v6.3h-6.3c-1.3 0-2.4 1.1-2.4 2.4 0 1.3 1.1 2.4 2.4 2.4h6.3v6.3c0 1.3 1.1 2.4 2.4 2.4 1.3 0 2.4-1.1 2.4-2.4v-6.3h6.3c1.3 0 2.4-1.1 2.4-2.4 0-1.3-1.1-2.4-2.4-2.4ZM542 530.9h-6.3v-6.3c0-1.3-1.1-2.4-2.4-2.4-1.3 0-2.4 1.1-2.4 2.4v6.3h-6.3c-1.3 0-2.4 1.1-2.4 2.4 0 1.3 1.1 2.4 2.4 2.4h6.3v6.3c0 1.3 1.1 2.4 2.4 2.4 1.3 0 2.4-1.1 2.4-2.4v-6.3h6.3c1.3 0 2.4-1.1 2.4-2.4 0-1.3-1.1-2.4-2.4-2.4ZM542 575.4h-6.3v-6.3c0-1.3-1.1-2.4-2.4-2.4-1.3 0-2.4 1.1-2.4 2.4v6.3h-6.3c-1.3 0-2.4 1.1-2.4 2.4 0 1.3 1.1 2.4 2.4 2.4h6.3v6.3c0 1.3 1.1 2.4 2.4 2.4 1.3 0 2.4-1.1 2.4-2.4v-6.3h6.3c1.3 0 2.4-1.1 2.4-2.4 0-1.3-1.1-2.4-2.4-2.4ZM497.6-2.4h-6.3v-6.3c0-1.3-1.1-2.4-2.4-2.4s-2.4 1.1-2.4 2.4v6.3h-6.3c-1.3 0-2.4 1.1-2.4 2.4s1.1 2.4 2.4 2.4h6.3v6.3c0 1.3 1.1 2.4 2.4 2.4s2.4-1.1 2.4-2.4V2.4h6.3c1.3 0 2.4-1.1 2.4-2.4s-1.1-2.4-2.4-2.4ZM488.9 77.8zM488.9 55.6zM488.9-11.1zM488.9 100zM497.6 86.5h-6.3v-6.3c0-1.3-1.1-2.4-2.4-2.4s-2.4 1.1-2.4 2.4v6.3h-6.3c-1.3 0-2.4 1.1-2.4 2.4s1.1 2.4 2.4 2.4h6.3v6.3c0 1.3 1.1 2.4 2.4 2.4s2.4-1.1 2.4-2.4v-6.3h6.3c1.3 0 2.4-1.1 2.4-2.4s-1.1-2.4-2.4-2.4ZM488.9 33.3zM488.9 11.1zM497.6 42h-6.3v-6.3c0-1.3-1.1-2.4-2.4-2.4s-2.4 1.1-2.4 2.4V42h-6.3c-1.3 0-2.4 1.1-2.4 2.4s1.1 2.4 2.4 2.4h6.3v6.3c0 1.3 1.1 2.4 2.4 2.4s2.4-1.1 2.4-2.4v-6.3h6.3c1.3 0 2.4-1.1 2.4-2.4s-1.1-2.4-2.4-2.4ZM586.5 797.6h-6.3v-6.3c0-1.3-1.1-2.4-2.4-2.4-1.3 0-2.4 1.1-2.4 2.4v6.3h-6.3c-1.3 0-2.4 1.1-2.4 2.4 0 1.3 1.1 2.4 2.4 2.4h6.3v6.3c0 1.3 1.1 2.4 2.4 2.4 1.3 0 2.4-1.1 2.4-2.4v-6.3h6.3c1.3 0 2.4-1.1 2.4-2.4 0-1.3-1.1-2.4-2.4-2.4ZM542 175.4h-6.3v-6.3c0-1.3-1.1-2.4-2.4-2.4-1.3 0-2.4 1.1-2.4 2.4v6.3h-6.3c-1.3 0-2.4 1.1-2.4 2.4s1.1 2.4 2.4 2.4h6.3v6.3c0 1.3 1.1 2.4 2.4 2.4 1.3 0 2.4-1.1 2.4-2.4v-6.3h6.3c1.3 0 2.4-1.1 2.4-2.4s-1.1-2.4-2.4-2.4ZM542 86.5h-6.3v-6.3c0-1.3-1.1-2.4-2.4-2.4-1.3 0-2.4 1.1-2.4 2.4v6.3h-6.3c-1.3 0-2.4 1.1-2.4 2.4s1.1 2.4 2.4 2.4h6.3v6.3c0 1.3 1.1 2.4 2.4 2.4 1.3 0 2.4-1.1 2.4-2.4v-6.3h6.3c1.3 0 2.4-1.1 2.4-2.4s-1.1-2.4-2.4-2.4ZM542 264.3h-6.3V258c0-1.3-1.1-2.4-2.4-2.4-1.3 0-2.4 1.1-2.4 2.4v6.3h-6.3c-1.3 0-2.4 1.1-2.4 2.4s1.1 2.4 2.4 2.4h6.3v6.3c0 1.3 1.1 2.4 2.4 2.4 1.3 0 2.4-1.1 2.4-2.4v-6.3h6.3c1.3 0 2.4-1.1 2.4-2.4s-1.1-2.4-2.4-2.4ZM542 219.8h-6.3v-6.3c0-1.3-1.1-2.4-2.4-2.4-1.3 0-2.4 1.1-2.4 2.4v6.3h-6.3c-1.3 0-2.4 1.1-2.4 2.4s1.1 2.4 2.4 2.4h6.3v6.3c0 1.3 1.1 2.4 2.4 2.4 1.3 0 2.4-1.1 2.4-2.4v-6.3h6.3c1.3 0 2.4-1.1 2.4-2.4s-1.1-2.4-2.4-2.4ZM497.6 575.4h-6.3v-6.3c0-1.3-1.1-2.4-2.4-2.4s-2.4 1.1-2.4 2.4v6.3h-6.3c-1.3 0-2.4 1.1-2.4 2.4 0 1.3 1.1 2.4 2.4 2.4h6.3v6.3c0 1.3 1.1 2.4 2.4 2.4s2.4-1.1 2.4-2.4v-6.3h6.3c1.3 0 2.4-1.1 2.4-2.4 0-1.3-1.1-2.4-2.4-2.4ZM542 42h-6.3v-6.3c0-1.3-1.1-2.4-2.4-2.4-1.3 0-2.4 1.1-2.4 2.4V42h-6.3c-1.3 0-2.4 1.1-2.4 2.4s1.1 2.4 2.4 2.4h6.3v6.3c0 1.3 1.1 2.4 2.4 2.4 1.3 0 2.4-1.1 2.4-2.4v-6.3h6.3c1.3 0 2.4-1.1 2.4-2.4S543.3 42 542 42ZM497.6 130.9h-6.3v-6.3c0-1.3-1.1-2.4-2.4-2.4s-2.4 1.1-2.4 2.4v6.3h-6.3c-1.3 0-2.4 1.1-2.4 2.4s1.1 2.4 2.4 2.4h6.3v6.3c0 1.3 1.1 2.4 2.4 2.4s2.4-1.1 2.4-2.4v-6.3h6.3c1.3 0 2.4-1.1 2.4-2.4s-1.1-2.4-2.4-2.4ZM542-2.4h-6.3v-6.3c0-1.3-1.1-2.4-2.4-2.4-1.3 0-2.4 1.1-2.4 2.4v6.3h-6.3c-1.3 0-2.4 1.1-2.4 2.4s1.1 2.4 2.4 2.4h6.3v6.3c0 1.3 1.1 2.4 2.4 2.4 1.3 0 2.4-1.1 2.4-2.4V2.4h6.3c1.3 0 2.4-1.1 2.4-2.4s-1.1-2.4-2.4-2.4ZM542 397.6h-6.3v-6.3c0-1.3-1.1-2.4-2.4-2.4-1.3 0-2.4 1.1-2.4 2.4v6.3h-6.3c-1.3 0-2.4 1.1-2.4 2.4s1.1 2.4 2.4 2.4h6.3v6.3c0 1.3 1.1 2.4 2.4 2.4 1.3 0 2.4-1.1 2.4-2.4v-6.3h6.3c1.3 0 2.4-1.1 2.4-2.4s-1.1-2.4-2.4-2.4ZM544.4 400zM522.2 444.4zM522.2 400zM542 442h-6.3v-6.3c0-1.3-1.1-2.4-2.4-2.4-1.3 0-2.4 1.1-2.4 2.4v6.3h-6.3c-1.3 0-2.4 1.1-2.4 2.4s1.1 2.4 2.4 2.4h6.3v6.3c0 1.3 1.1 2.4 2.4 2.4 1.3 0 2.4-1.1 2.4-2.4v-6.3h6.3c1.3 0 2.4-1.1 2.4-2.4s-1.1-2.4-2.4-2.4ZM542 308.7h-6.3v-6.3c0-1.3-1.1-2.4-2.4-2.4-1.3 0-2.4 1.1-2.4 2.4v6.3h-6.3c-1.3 0-2.4 1.1-2.4 2.4s1.1 2.4 2.4 2.4h6.3v6.3c0 1.3 1.1 2.4 2.4 2.4 1.3 0 2.4-1.1 2.4-2.4v-6.3h6.3c1.3 0 2.4-1.1 2.4-2.4s-1.1-2.4-2.4-2.4ZM544.4 266.7zM542 353.2h-6.3v-6.3c0-1.3-1.1-2.4-2.4-2.4-1.3 0-2.4 1.1-2.4 2.4v6.3h-6.3c-1.3 0-2.4 1.1-2.4 2.4s1.1 2.4 2.4 2.4h6.3v6.3c0 1.3 1.1 2.4 2.4 2.4 1.3 0 2.4-1.1 2.4-2.4V358h6.3c1.3 0 2.4-1.1 2.4-2.4s-1.1-2.4-2.4-2.4ZM522.2 266.7zM542 130.9h-6.3v-6.3c0-1.3-1.1-2.4-2.4-2.4-1.3 0-2.4 1.1-2.4 2.4v6.3h-6.3c-1.3 0-2.4 1.1-2.4 2.4s1.1 2.4 2.4 2.4h6.3v6.3c0 1.3 1.1 2.4 2.4 2.4 1.3 0 2.4-1.1 2.4-2.4v-6.3h6.3c1.3 0 2.4-1.1 2.4-2.4s-1.1-2.4-2.4-2.4ZM488.9 411.1zM500 400zM497.6 442h-6.3v-6.3c0-1.3-1.1-2.4-2.4-2.4s-2.4 1.1-2.4 2.4v6.3h-6.3c-1.3 0-2.4 1.1-2.4 2.4s1.1 2.4 2.4 2.4h6.3v6.3c0 1.3 1.1 2.4 2.4 2.4s2.4-1.1 2.4-2.4v-6.3h6.3c1.3 0 2.4-1.1 2.4-2.4s-1.1-2.4-2.4-2.4ZM488.9 433.3zM477.8 444.4zM497.6 397.6h-6.3v-6.3c0-1.3-1.1-2.4-2.4-2.4s-2.4 1.1-2.4 2.4v6.3h-6.3c-1.3 0-2.4 1.1-2.4 2.4s1.1 2.4 2.4 2.4h6.3v6.3c0 1.3 1.1 2.4 2.4 2.4s2.4-1.1 2.4-2.4v-6.3h6.3c1.3 0 2.4-1.1 2.4-2.4s-1.1-2.4-2.4-2.4ZM477.8 400zM488.9 388.9zM488.9 500zM497.6 530.9h-6.3v-6.3c0-1.3-1.1-2.4-2.4-2.4s-2.4 1.1-2.4 2.4v6.3h-6.3c-1.3 0-2.4 1.1-2.4 2.4 0 1.3 1.1 2.4 2.4 2.4h6.3v6.3c0 1.3 1.1 2.4 2.4 2.4s2.4-1.1 2.4-2.4v-6.3h6.3c1.3 0 2.4-1.1 2.4-2.4 0-1.3-1.1-2.4-2.4-2.4ZM488.9 522.2zM488.9 366.7zM488.9 544.4zM488.9 477.8zM488.9 455.6zM500 444.4zM497.6 486.5h-6.3v-6.3c0-1.3-1.1-2.4-2.4-2.4s-2.4 1.1-2.4 2.4v6.3h-6.3c-1.3 0-2.4 1.1-2.4 2.4s1.1 2.4 2.4 2.4h6.3v6.3c0 1.3 1.1 2.4 2.4 2.4s2.4-1.1 2.4-2.4v-6.3h6.3c1.3 0 2.4-1.1 2.4-2.4s-1.1-2.4-2.4-2.4ZM488.9 344.4zM497.6 219.8h-6.3v-6.3c0-1.3-1.1-2.4-2.4-2.4s-2.4 1.1-2.4 2.4v6.3h-6.3c-1.3 0-2.4 1.1-2.4 2.4s1.1 2.4 2.4 2.4h6.3v6.3c0 1.3 1.1 2.4 2.4 2.4s2.4-1.1 2.4-2.4v-6.3h6.3c1.3 0 2.4-1.1 2.4-2.4s-1.1-2.4-2.4-2.4ZM488.9 211.1zM488.9 233.3zM488.9 188.9zM488.9 166.7zM488.9 122.2zM488.9 144.4zM497.6 175.4h-6.3v-6.3c0-1.3-1.1-2.4-2.4-2.4s-2.4 1.1-2.4 2.4v6.3h-6.3c-1.3 0-2.4 1.1-2.4 2.4s1.1 2.4 2.4 2.4h6.3v6.3c0 1.3 1.1 2.4 2.4 2.4s2.4-1.1 2.4-2.4v-6.3h6.3c1.3 0 2.4-1.1 2.4-2.4s-1.1-2.4-2.4-2.4ZM497.6 264.3h-6.3V258c0-1.3-1.1-2.4-2.4-2.4s-2.4 1.1-2.4 2.4v6.3h-6.3c-1.3 0-2.4 1.1-2.4 2.4s1.1 2.4 2.4 2.4h6.3v6.3c0 1.3 1.1 2.4 2.4 2.4s2.4-1.1 2.4-2.4v-6.3h6.3c1.3 0 2.4-1.1 2.4-2.4s-1.1-2.4-2.4-2.4ZM497.6 308.7h-6.3v-6.3c0-1.3-1.1-2.4-2.4-2.4s-2.4 1.1-2.4 2.4v6.3h-6.3c-1.3 0-2.4 1.1-2.4 2.4s1.1 2.4 2.4 2.4h6.3v6.3c0 1.3 1.1 2.4 2.4 2.4s2.4-1.1 2.4-2.4v-6.3h6.3c1.3 0 2.4-1.1 2.4-2.4s-1.1-2.4-2.4-2.4ZM488.9 322.2zM488.9 300zM497.6 353.2h-6.3v-6.3c0-1.3-1.1-2.4-2.4-2.4s-2.4 1.1-2.4 2.4v6.3h-6.3c-1.3 0-2.4 1.1-2.4 2.4s1.1 2.4 2.4 2.4h6.3v6.3c0 1.3 1.1 2.4 2.4 2.4s2.4-1.1 2.4-2.4V358h6.3c1.3 0 2.4-1.1 2.4-2.4s-1.1-2.4-2.4-2.4ZM500 266.7zM477.8 266.7zM488.9 255.6zM488.9 277.8z" class="st0"/></g></svg>
