<svg xmlns="http://www.w3.org/2000/svg" viewBox="0 0 720 565.2"><defs><filter id="a" width="715" height="554" x="5" y="7.2" filterUnits="userSpaceOnUse"><feOffset dx="2.5" dy="2.5"/><feGaussianBlur result="blur" stdDeviation="5"/><feFlood flood-color="#000" flood-opacity=".9"/><feComposite in2="blur" operator="in"/><feComposite in="SourceGraphic"/></filter></defs><path fill="#fff" d="M24 36.9c3-5.7 7.2-10 12.4-12.8 5.2-2.9 11.1-4.3 17.6-4.3s12.1 1.5 16.9 4.5c4.9 3 8.6 7.2 11.3 12.6 2.7 5.4 4 11.8 4 19s-1.5 15.2-4.4 20.9c-3 5.7-7 10.1-12.2 13-5.2 2.9-11.1 4.4-17.8 4.4s-12.2-1.6-17-4.7c-4.9-3.1-8.7-7.5-11.3-13-2.7-5.6-4-11.9-4-18.9s1.5-15 4.6-20.7Zm48.7 5.3c-1.7-4.3-4.1-7.8-7.3-10.3s-7.2-3.8-11.7-3.8-8.3 1.1-11.8 3.2-6.3 5.4-8.4 9.7c-2.1 4.3-3.1 9.7-3.1 16.1s.9 9.9 2.6 14.3c1.7 4.4 4.3 7.9 7.7 10.5 3.4 2.6 7.5 4 12.2 4s8.5-1.1 11.8-3.4c3.4-2.3 6-5.6 7.8-10 1.8-4.4 2.7-9.7 2.7-16 0-5.2-.8-9.9-2.5-14.2Zm131.5 51.9h-12.5c-.3-.5-.7-1.2-1.3-2.2-.5-1.1-1.1-2.2-1.7-3.3-1.5-2.6-3-5.2-4.6-7.7-1.8-2.8-4.1-6.3-7-10.7-.8-1.3-2-3-3.4-5.1-1.1-1.7-2.3-3.5-3.4-5.2L161 70.6v23.5h-10.9V19.8H161v37.3l29.4-37.3h12.8l-26.3 32c1.1 1.8 2.7 4.3 4.8 7.4 1.4 2 2.7 4 4.1 6 3.2 4.7 6.3 9.3 9.4 14 2.3 3.5 4.3 6.7 5.8 9.4l3.2 5.4Zm74-74.3v74.3h-11V19.8h11Zm111.9 0v8.4h-31.9v23.4h23.4V60h-23.4v25.5h35.4V94h-46.3V19.8h42.8Zm110.4 32.3v8.6H459v-8.6h41.5Zm123.8 42h-12.4l-13.1-21.5-5.1-8.2-4.9 8.2L576 94.1h-11.7l23.4-37.8-23.3-36.5h12.3l12.1 20.1 6 10.1 17.4-30.2h11.7l-23.3 38.1 23.8 36.2Zm62.5-50.9h10.1v10.5h-10.1V43.2Zm0 40.4h10.1v10.5h-10.1V83.6ZM22.7 110.5h8.6c4 0 7.1.9 9.2 2.8s3.2 4.7 3.2 8.6-.5 4.7-1.6 6.5c-1 1.8-2.6 3.2-4.6 4.1-2 .9-4.5 1.4-7.5 1.4h-4.6v12.3h-5.2v-35.7h2.5Zm11.6 18.9c1.3-.4 2.3-1.3 3.1-2.5.8-1.2 1.2-2.9 1.2-5.1s-.7-4.6-2.1-5.9-3.4-1.9-6.1-1.9-3.7.2-4.9.5v15.3c1.2.2 2.6.2 4.3.2s3.2-.2 4.5-.7Zm46.8-10.7c1.5-2.7 3.4-4.8 6-6.1 2.5-1.4 5.3-2.1 8.4-2.1s5.8.7 8.1 2.1c2.3 1.4 4.1 3.4 5.4 6.1s1.9 5.7 1.9 9.1-.7 7.3-2.1 10-3.4 4.8-5.9 6.2-5.3 2.1-8.6 2.1-5.8-.8-8.2-2.3-4.2-3.6-5.4-6.3c-1.3-2.7-1.9-5.7-1.9-9.1 0-3.9.7-7.2 2.2-9.9Zm23.4 2.5c-.8-2.1-2-3.7-3.5-4.9-1.6-1.2-3.4-1.8-5.6-1.8s-4 .5-5.6 1.5-3 2.6-4 4.7-1.5 4.7-1.5 7.7.4 4.8 1.2 6.8c.8 2.1 2.1 3.8 3.7 5s3.6 1.9 5.9 1.9 4.1-.5 5.7-1.6c1.6-1.1 2.9-2.7 3.7-4.8.9-2.1 1.3-4.7 1.3-7.7s-.4-4.8-1.2-6.8Zm70.6 24.9h-5.9c-.2-.3-.5-.8-.8-1.5l-.5-1.1c-.3-.6-.8-1.8-1.4-3.4-.7-1.7-1.2-3.2-1.8-4.3s-1.1-2.2-1.9-3.1-1.5-1.5-2.4-1.8h-6.2v15.2H149v-35.7h11.4c3.8 0 6.8.8 8.9 2.4s3.2 4.1 3.2 7.4-.6 4.6-1.7 6.2c-1.1 1.6-2.7 2.8-4.8 3.5.7.5 1.4 1.2 2 2.1s1.2 1.8 1.7 2.8 1.1 2.3 1.8 3.9c1 2.2 1.7 3.8 2.2 4.7.5 1 1 1.8 1.4 2.6Zm-15.3-18.7c2.4 0 4.2-.6 5.5-1.7 1.3-1.1 1.9-2.9 1.9-5.2s-.3-2.7-.8-3.6-1.3-1.6-2.4-2.1c-1.1-.4-2.6-.7-4.4-.7s-4 .1-5.4.4v12.7c.8 0 2.7.1 5.5.1Zm49.4-12.9v-4h27.6v4h-11.2v31.6h-5.3v-31.6h-11.1Zm90.8 31.6h-5.9c-.2-.3-.5-.8-.8-1.5l-.5-1.1c-.3-.6-.8-1.8-1.4-3.4-.7-1.7-1.2-3.2-1.8-4.3s-1.1-2.2-1.9-3.1-1.5-1.5-2.4-1.8h-6.2v15.2h-5.2v-35.7h11.4c3.8 0 6.8.8 8.9 2.4s3.2 4.1 3.2 7.4-.6 4.6-1.7 6.2c-1.1 1.6-2.7 2.8-4.8 3.5.7.5 1.4 1.2 2 2.1s1.2 1.8 1.7 2.8 1.1 2.3 1.8 3.9c1 2.2 1.7 3.8 2.2 4.7.5 1 1 1.8 1.4 2.6Zm-15.3-18.7c2.4 0 4.2-.6 5.5-1.7 1.3-1.1 1.9-2.9 1.9-5.2s-.3-2.7-.8-3.6-1.3-1.6-2.4-2.1c-1.1-.4-2.6-.7-4.4-.7s-4 .1-5.4.4v12.7c.8 0 2.7.1 5.5.1Zm71.7 9.7h-14.6l-3.2 9h-5.5l13.6-35.7h5l13.3 35.7h-5.6l-3-9Zm-1.3-3.9-4.8-13.8-1-3.2-1 3.2-5.1 13.8h11.9Zm51.8-22.7v35.7h-5.3v-35.7h5.3Zm37.5 4v-4H472v4h-11.2v31.6h-5.3v-31.6h-11.1Zm64.4 25.3c1 .6 2.2 1.1 3.8 1.5 1.6.4 3.1.6 4.6.6 2.3 0 4.1-.4 5.3-1.2s1.8-2 1.8-3.7-.3-2-.9-2.8-1.4-1.5-2.4-2.1c-1-.6-2.6-1.4-4.6-2.4-2.6-1.2-4.8-2.7-6.4-4.4s-2.5-3.7-2.5-6.1.6-3.8 1.7-5.2 2.6-2.3 4.4-2.9c1.8-.6 3.7-.9 5.8-.9s3.6.2 5 .6 2.5.8 3.3 1.3l-1.1 4.2c-1-.6-2-1.1-3.1-1.5-1.1-.3-2.5-.5-4.2-.5-1.1 0-2.2.1-3.3.5-1 .3-1.9.8-2.5 1.4-.6.6-1 1.4-1 2.4s.2 2 .7 2.8 1.2 1.4 2.1 2 2.4 1.4 4.3 2.4c2 1 3.7 2 5 2.9 1.3.9 2.5 2 3.4 3.3.9 1.3 1.4 2.8 1.4 4.5s-.5 3.9-1.5 5.3-2.4 2.5-4.2 3.2-3.9 1-6.2 1-2.9-.1-4.3-.3-2.6-.5-3.6-.8c-1-.3-1.7-.6-2.2-.9l1.2-4.3Zm104.5-21.1c1.5-2.7 3.4-4.8 6-6.1 2.5-1.4 5.3-2.1 8.4-2.1s5.8.7 8.1 2.1 4.1 3.4 5.4 6.1 1.9 5.7 1.9 9.1-.7 7.3-2.1 10-3.4 4.8-5.9 6.2-5.3 2.1-8.6 2.1-5.8-.8-8.2-2.3-4.2-3.6-5.4-6.3c-1.3-2.7-1.9-5.7-1.9-9.1 0-3.9.7-7.2 2.2-9.9Zm23.4 2.5c-.8-2.1-2-3.7-3.5-4.9-1.6-1.2-3.4-1.8-5.6-1.8s-4 .5-5.6 1.5-3 2.6-4 4.7-1.5 4.7-1.5 7.7.4 4.8 1.2 6.8c.8 2.1 2.1 3.8 3.7 5s3.6 1.9 5.9 1.9 4.1-.5 5.7-1.6c1.6-1.1 2.9-2.7 3.7-4.8.9-2.1 1.3-4.7 1.3-7.7 0-2.5-.4-4.8-1.2-6.8Zm65-10.7v4h-15.2v11.7h11.4v4h-11.4v15.9h-5.2v-35.7h20.5ZM21 168.5c1.9-3.6 4.6-6.4 7.9-8.2 3.3-1.8 7.1-2.7 11.3-2.7s7.7.9 10.8 2.9c3.1 1.9 5.5 4.6 7.2 8.1s2.6 7.5 2.6 12.2-.9 9.7-2.8 13.4c-1.9 3.7-4.5 6.5-7.8 8.3-3.3 1.9-7.1 2.8-11.4 2.8s-7.8-1-10.9-3-5.5-4.8-7.2-8.3c-1.7-3.6-2.5-7.6-2.5-12.1 0-5.2 1-9.6 2.9-13.2Zm31.2 3.4c-1.1-2.8-2.6-5-4.7-6.6-2.1-1.6-4.6-2.5-7.5-2.5s-5.3.7-7.5 2.1c-2.2 1.4-4 3.4-5.4 6.2-1.3 2.8-2 6.2-2 10.3s.6 6.3 1.7 9.1 2.7 5 4.9 6.7c2.2 1.7 4.8 2.5 7.8 2.5s5.4-.7 7.6-2.2 3.8-3.6 5-6.4 1.8-6.2 1.8-10.3c0-3.3-.5-6.3-1.6-9.1Zm97.7 33.2h-8c-.2-.3-.5-.8-.8-1.4-.3-.7-.7-1.4-1.1-2.1-.9-1.7-1.9-3.3-3-5-1.5-2.3-3-4.6-4.5-6.8-.7-1.1-1.4-2.2-2.2-3.2-.7-1.1-1.5-2.2-2.2-3.3l-5.9 6.9v15h-7v-47.6h7v23.9l18.8-23.9h8.2l-16.8 20.5c.7 1.1 1.7 2.7 3.1 4.8.9 1.3 1.7 2.6 2.6 3.8l6 9c1.5 2.3 2.7 4.3 3.7 6l2 3.4Zm60.6-47.5v42.1h18.9v5.5h-26v-47.6h7.1Zm97.5 35.5h-19.5l-4.2 12h-7.4l18.2-47.6h6.7l17.8 47.6h-7.5l-4-12Zm-1.7-5.2-6.4-18.4-1.3-4.3-1.4 4.3-6.8 18.4h15.9Zm72.2-30.3v20.8h22.4v-20.8h7v47.6h-7v-21.3h-22.4v21.3h-7v-47.6h7Zm86.8 10.9c1.9-3.6 4.6-6.4 7.9-8.2s7.1-2.7 11.3-2.7 7.7.9 10.8 2.9c3.1 1.9 5.5 4.6 7.2 8.1s2.6 7.5 2.6 12.2-.9 9.7-2.8 13.4c-1.9 3.7-4.5 6.5-7.8 8.3-3.3 1.9-7.1 2.8-11.4 2.8s-7.8-1-10.9-3-5.5-4.8-7.2-8.3c-1.7-3.6-2.5-7.6-2.5-12.1 0-5.2 1-9.6 2.9-13.2Zm31.2 3.4c-1.1-2.8-2.6-5-4.7-6.6-2.1-1.6-4.6-2.5-7.5-2.5s-5.3.7-7.5 2.1c-2.2 1.4-4 3.4-5.4 6.2-1.3 2.8-2 6.2-2 10.3s.6 6.3 1.7 9.1 2.7 5 4.9 6.7c2.2 1.7 4.8 2.5 7.8 2.5s5.4-.7 7.6-2.2 3.8-3.6 5-6.4c1.2-2.8 1.8-6.2 1.8-10.3 0-3.3-.5-6.3-1.6-9.1Zm75.9-14.3 8.8 27.2 2.5 10.1 2.3-10.1 8.4-27.2h9.3l5.7 47.6h-7l-2.9-29.6-.9-12.8-3.2 12.7-9.9 29.7h-3.8l-10.4-29.7-3.5-12.6-.8 12.8-2.6 29.6h-6.8l4.8-47.6h9.8Zm118.2 35.5h-19.5l-4.2 12h-7.4l18.2-47.6h6.7l17.8 47.6h-7.5l-4-12Zm-1.7-5.2-6.4-18.4-1.3-4.3-1.4 4.3-6.8 18.4h15.9ZM29.5 219.5l6.6 20.4 1.9 7.6 1.8-7.6 6.3-20.4h7l4.3 35.7h-5.2L50 233l-.7-9.6-2.4 9.5-7.5 22.3h-2.8l-7.8-22.3-2.6-9.5-.6 9.6-1.9 22.2h-5.1l3.6-35.7h7.4Zm65.2 0h5.2v19.4c0 3.2.3 5.6 1 7.4s1.6 3 2.8 3.7c1.2.7 2.8 1.1 4.8 1.1s3.1-.4 4.3-1.1c1.1-.7 2-2 2.6-3.8.6-1.8.9-4.3.9-7.4v-19.4h5.2v20.7c0 4.9-1.1 8.6-3.3 11.2s-5.5 3.8-9.9 3.8-8.2-1.3-10.4-3.8c-2.2-2.6-3.2-6.3-3.2-11.2v-20.6Zm65.3 29.3c1 .6 2.2 1.1 3.8 1.5s3.1.6 4.6.6c2.3 0 4.1-.4 5.3-1.2s1.8-2 1.8-3.7-.3-2-.9-2.8-1.4-1.5-2.4-2.1c-1-.6-2.6-1.4-4.6-2.4-2.6-1.2-4.8-2.7-6.4-4.4s-2.5-3.7-2.5-6.1.6-3.8 1.7-5.2 2.6-2.3 4.4-2.9c1.8-.6 3.7-.9 5.8-.9s3.6.2 5 .6 2.5.8 3.3 1.3l-1.1 4.2c-1-.6-2-1.1-3.1-1.5-1.1-.3-2.5-.5-4.2-.5-1.1 0-2.2.1-3.3.5-1 .3-1.9.8-2.5 1.4-.6.6-1 1.4-1 2.4s.2 2 .7 2.8 1.2 1.4 2.1 2 2.4 1.4 4.3 2.4c2 1 3.7 2 5 2.9 1.3.9 2.5 2 3.4 3.3.9 1.3 1.4 2.8 1.4 4.5s-.5 3.9-1.5 5.3-2.4 2.5-4.2 3.2-3.9 1-6.2 1-2.9-.1-4.3-.3-2.6-.5-3.6-.8c-1-.3-1.7-.6-2.2-.9l1.2-4.3Zm63-29.3v35.7h-5.3v-35.7h5.3Zm59.1.3c1.3.2 2.5.5 3.7.8l.7.2-.8 4.8c-.6-.3-1.1-.6-1.6-.8s-1.3-.5-2.5-.7c-1.1-.2-2.5-.4-4.1-.4-2.4 0-4.5.5-6.2 1.6s-3.1 2.7-4 4.7-1.4 4.4-1.4 7.1.5 5.1 1.4 7.2 2.3 3.7 4 4.9 3.8 1.8 6.2 1.8 2.4 0 3.6-.3 2.3-.5 3.2-.8c.9-.3 1.6-.7 2-1v4.4c-1 .4-1.9.7-2.6 1-.7.2-1.6.5-2.7.6s-2.3.3-3.7.3c-3.3 0-6.2-.7-8.8-2.2s-4.4-3.5-5.8-6.2-2.1-5.8-2.1-9.3.8-6.9 2.2-9.7 3.5-4.8 6-6.2c2.5-1.4 5.3-2.1 8.2-2.1 2 0 3.7.1 5 .3Zm47.7-.3v35.7h-5.3v-35.7h5.3Zm59.2 26.6h-14.6l-3.2 9h-5.5l13.6-35.7h5l13.3 35.7H392l-3-9Zm-1.3-3.9-4.8-13.8-1-3.2-1 3.2-5.1 13.8h11.9Zm72.9-22.7v35.7h-4.9l-14.8-22.7-3.3-5.8.3 6.2v22.3h-4.8v-35.7h4.8l15.3 23.6 2.9 5.3-.3-5.9v-22.9h4.8Zm39.3 29.3c1 .6 2.2 1.1 3.8 1.5s3.1.6 4.6.6c2.3 0 4.1-.4 5.3-1.2s1.8-2 1.8-3.7-.3-2-.9-2.8-1.4-1.5-2.4-2.1c-1-.6-2.6-1.4-4.6-2.4-2.6-1.2-4.8-2.7-6.4-4.4s-2.5-3.7-2.5-6.1.6-3.8 1.7-5.2 2.6-2.3 4.4-2.9c1.8-.6 3.7-.9 5.8-.9s3.6.2 5 .6 2.5.8 3.3 1.3l-1.1 4.2c-1-.6-2-1.1-3.1-1.5-1.1-.3-2.5-.5-4.2-.5-1.1 0-2.2.1-3.3.5-1 .3-1.9.8-2.5 1.4-.6.6-1 1.4-1 2.4s.2 2 .7 2.8 1.2 1.4 2.1 2 2.4 1.4 4.3 2.4c2 1 3.7 2 5 2.9 1.3.9 2.5 2 3.4 3.3.9 1.3 1.4 2.8 1.4 4.5s-.5 3.9-1.5 5.3-2.4 2.5-4.2 3.2-3.9 1-6.2 1-2.9-.1-4.3-.3-2.6-.5-3.6-.8c-1-.3-1.7-.6-2.2-.9l1.2-4.3Zm103.3-21.1c1.5-2.7 3.4-4.8 6-6.1 2.5-1.4 5.3-2.1 8.4-2.1s5.8.7 8.1 2.1 4.1 3.4 5.4 6.1 1.9 5.7 1.9 9.1-.7 7.3-2.1 10-3.4 4.8-5.9 6.2-5.3 2.1-8.6 2.1-5.8-.8-8.2-2.3-4.2-3.6-5.4-6.3c-1.3-2.7-1.9-5.7-1.9-9.1s.7-7.2 2.2-9.9Zm23.4 2.5c-.8-2.1-2-3.7-3.5-4.9-1.6-1.2-3.4-1.8-5.6-1.8s-4 .5-5.6 1.5-3 2.6-4 4.7-1.5 4.7-1.5 7.7.4 4.8 1.2 6.8c.8 2.1 2.1 3.8 3.7 5s3.6 1.9 5.9 1.9 4.1-.5 5.7-1.6c1.6-1.1 2.9-2.7 3.7-4.8.9-2.1 1.3-4.7 1.3-7.7 0-2.5-.4-4.8-1.2-6.8Zm71.3-10.7v35.7H693l-14.8-22.7-3.3-5.8.3 6.2v22.3h-4.8v-35.7h4.8l15.3 23.6 2.9 5.3-.3-5.9v-22.9h4.8ZM90.3 356.1H75.5l-15.6-25.6-6-9.8-5.9 9.8-15.2 25.6H18.9l27.9-45L19 267.6h14.6L48 291.5l7.1 12 20.7-35.9h13.9L62 312.9 90.3 356Zm140.2-49.9v10.3h-49.4v-10.3h49.4Zm164.3 49.9h-14.7c-.6-.9-1.2-2.1-1.9-3.7l-1.3-2.8c-.7-1.5-1.9-4.4-3.4-8.4-1.6-4.3-3.1-7.9-4.4-10.8s-2.8-5.4-4.6-7.6c-1.8-2.2-3.7-3.7-6-4.4h-15.4v37.7h-13v-88.4h28.2c9.5 0 16.8 2 22.1 6 5.3 4 8 10.1 8 18.4s-1.4 11.4-4.2 15.4c-2.8 4-6.7 6.9-11.8 8.7 1.7 1.2 3.4 2.9 4.9 5.1s2.9 4.6 4.1 7.1c1.2 2.5 2.7 5.7 4.4 9.7 2.4 5.5 4.2 9.3 5.4 11.6 1.2 2.2 2.3 4.4 3.5 6.5Zm-38-46.4c5.9 0 10.5-1.4 13.7-4.2 3.2-2.8 4.8-7.1 4.8-13s-.6-6.7-1.9-9c-1.3-2.3-3.3-4-6-5.1-2.7-1.1-6.4-1.7-10.9-1.7s-9.9.4-13.3 1.1v31.5c2.1.2 6.6.3 13.7.3Zm174.5 24.1h-36.2l-7.9 22.4h-13.7l33.8-88.4h12.5l33 88.4h-14l-7.5-22.4Zm-3.2-9.7-11.9-34.3-2.5-8-2.6 8-12.6 34.3H528Zm143.4-2.5v34.5h-13.1v-34.5l-29.1-53.9h13.8l19.6 38.4 2.5 6.1 2.1-6.1 19.2-38.4h13.6l-28.6 53.9ZM93.1 365.3v13.8h-52v40h39v13.8h-39v54.4H23.2V365.4h70Zm143.9 0v121.9h-18.1V365.3H237Zm158.5 0v107.9h48.4v14h-66.6V365.3h18.3Zm209 0 22.6 69.6 6.3 25.9 6-25.9 21.6-69.6h23.9l14.6 121.9h-17.9l-7.4-75.8-2.3-32.8-8.2 32.5-25.5 76.1h-9.6L602 411.1l-9-32.4-2.2 32.8-6.6 75.8h-17.3l12.3-121.9h25.2Zm-564 142.5c1.3.2 2.5.5 3.7.8l.7.2-.8 4.8c-.6-.3-1.1-.6-1.6-.8s-1.3-.5-2.5-.7-2.5-.4-4.1-.4c-2.4 0-4.5.5-6.2 1.6s-3.1 2.7-4 4.7c-.9 2-1.4 4.4-1.4 7.1s.5 5.1 1.4 7.2c.9 2.1 2.3 3.7 4 4.9 1.8 1.2 3.8 1.8 6.2 1.8s2.4 0 3.6-.3 2.3-.5 3.2-.8 1.6-.7 2-1v4.4c-1 .4-1.9.7-2.6 1s-1.6.5-2.7.6-2.3.3-3.7.3c-3.3 0-6.2-.7-8.8-2.2-2.5-1.5-4.4-3.5-5.8-6.2S19 529 19 525.5s.8-6.9 2.2-9.7 3.5-4.8 6-6.2 5.3-2.1 8.2-2.1c2 0 3.7.1 5 .3Zm45.1 7.9c1.5-2.7 3.4-4.8 6-6.1 2.5-1.4 5.3-2.1 8.4-2.1s5.8.7 8.1 2.1 4.1 3.4 5.4 6.1 1.9 5.7 1.9 9.1-.7 7.3-2.1 10c-1.4 2.8-3.4 4.8-5.9 6.2-2.5 1.4-5.3 2.1-8.6 2.1s-5.8-.8-8.2-2.3c-2.3-1.5-4.2-3.6-5.4-6.3-1.3-2.7-1.9-5.7-1.9-9.1s.7-7.2 2.2-9.9Zm23.4 2.5c-.8-2.1-2-3.7-3.5-4.9-1.6-1.2-3.4-1.8-5.6-1.8s-4 .5-5.6 1.5c-1.7 1-3 2.6-4 4.7s-1.5 4.7-1.5 7.7.4 4.8 1.2 6.8c.8 2.1 2.1 3.8 3.7 5 1.6 1.3 3.6 1.9 5.9 1.9s4.1-.5 5.7-1.6c1.6-1.1 2.9-2.7 3.7-4.8.9-2.1 1.3-4.7 1.3-7.7 0-2.5-.4-4.8-1.2-6.8Zm56.4-10.7 6.6 20.4 1.9 7.6 1.8-7.6 6.3-20.4h7l4.3 35.7h-5.2l-2.2-22.2-.7-9.6-2.4 9.5-7.5 22.3h-2.8l-7.8-22.3-2.6-9.5-.6 9.6-1.9 22.2h-5.1l3.6-35.7h7.4Zm74.5 0v35.7h-5.3v-35.7h5.3Zm70.3 0v35.7h-4.9l-14.8-22.7-3.3-5.8.3 6.2v22.3h-4.8v-35.7h4.8l15.3 23.6 2.9 5.3-.3-5.9v-22.9h4.8ZM379 525v15.6c-.3 0-.6 0-1 .2-.4.1-.8.3-1.4.5-1.4.6-2.8 1-4.3 1.4-1.4.3-3.2.5-5.3.5-3.4 0-6.4-.8-8.9-2.3-2.5-1.5-4.4-3.6-5.7-6.3s-2-5.7-2-9.1.7-7.2 2.2-9.9c1.4-2.7 3.4-4.8 5.9-6.1 2.5-1.4 5.3-2 8.4-2s3.2 0 4.3.2 2.3.4 3.5.7c.9.2 1.6.4 2.1.5l-.2 4.7c-1.3-.7-2.7-1.2-4.2-1.6-1.5-.3-3.5-.5-5.9-.5s-3.9.5-5.6 1.6c-1.6 1.1-2.9 2.6-3.8 4.6-.9 2-1.4 4.4-1.4 7.1s.4 5.2 1.2 7.4 2 3.8 3.7 5.1c1.7 1.2 3.7 1.9 6.1 1.9s2.8-.1 4.1-.3c1.3-.2 2.3-.6 3-1v-9h-6.5V525h11.5Zm89.3 11.8c1 .6 2.2 1.1 3.8 1.5s3.1.6 4.6.6c2.3 0 4.1-.4 5.3-1.2s1.8-2 1.8-3.7-.3-2-.9-2.8-1.4-1.5-2.4-2.1c-1-.6-2.6-1.4-4.6-2.4-2.6-1.2-4.8-2.7-6.4-4.4-1.7-1.7-2.5-3.7-2.5-6.1s.6-3.8 1.7-5.2c1.1-1.3 2.6-2.3 4.4-2.9 1.8-.6 3.7-.9 5.8-.9s3.6.2 5 .6 2.5.8 3.3 1.3l-1.1 4.2c-1-.6-2.1-1.1-3.1-1.5s-2.5-.5-4.2-.5-2.3.2-3.3.5-1.9.8-2.5 1.4c-.6.6-1 1.4-1 2.4s.2 2 .7 2.8c.5.7 1.2 1.4 2.1 2s2.4 1.4 4.3 2.4c2 1 3.7 2 5 2.9s2.5 2 3.4 3.3c.9 1.3 1.4 2.8 1.4 4.5s-.5 3.9-1.5 5.3-2.4 2.5-4.2 3.2-3.9 1-6.2 1-2.9-.1-4.3-.3-2.6-.5-3.6-.8-1.7-.6-2.2-.9l1.2-4.3Zm60.3-21.1c1.5-2.7 3.4-4.8 6-6.1 2.5-1.4 5.3-2.1 8.4-2.1s5.8.7 8.1 2.1 4.1 3.4 5.4 6.1 1.9 5.7 1.9 9.1-.7 7.3-2.1 10c-1.4 2.8-3.4 4.8-5.9 6.2-2.5 1.4-5.3 2.1-8.6 2.1s-5.8-.8-8.2-2.3c-2.3-1.5-4.2-3.6-5.4-6.3-1.3-2.7-1.9-5.7-1.9-9.1 0-3.9.7-7.2 2.2-9.9Zm23.4 2.5c-.8-2.1-2-3.7-3.5-4.9-1.6-1.2-3.4-1.8-5.6-1.8s-4 .5-5.6 1.5c-1.7 1-3 2.6-4 4.7s-1.5 4.7-1.5 7.7.4 4.8 1.2 6.8c.8 2.1 2.1 3.8 3.7 5 1.6 1.3 3.6 1.9 5.9 1.9s4.1-.5 5.7-1.6c1.6-1.1 2.9-2.7 3.7-4.8.9-2.1 1.3-4.7 1.3-7.7s-.4-4.8-1.2-6.8Zm46.8-2.5c1.5-2.7 3.4-4.8 6-6.1 2.5-1.4 5.3-2.1 8.4-2.1s5.8.7 8.1 2.1 4.1 3.4 5.4 6.1 1.9 5.7 1.9 9.1-.7 7.3-2.1 10c-1.4 2.8-3.4 4.8-5.9 6.2-2.5 1.4-5.3 2.1-8.6 2.1s-5.8-.8-8.2-2.3c-2.3-1.5-4.2-3.6-5.4-6.3-1.3-2.7-1.9-5.7-1.9-9.1s.7-7.2 2.2-9.9Zm23.4 2.5c-.8-2.1-2-3.7-3.5-4.9-1.6-1.2-3.4-1.8-5.6-1.8s-4 .5-5.6 1.5c-1.7 1-3 2.6-4 4.7s-1.5 4.7-1.5 7.7.4 4.8 1.2 6.8c.8 2.1 2.1 3.8 3.7 5 1.6 1.3 3.6 1.9 5.9 1.9s4.1-.5 5.7-1.6c1.6-1.1 2.9-2.7 3.7-4.8.9-2.1 1.3-4.7 1.3-7.7s-.4-4.8-1.2-6.8Zm74.2-10.7v35.7h-4.9l-14.8-22.7-3.3-5.8.3 6.2v22.3h-4.8v-35.7h4.8l15.3 23.6 2.9 5.3-.3-5.9v-22.9h4.8Z" filter="url(#a)" opacity=".9" style="isolation:isolate"/></svg>